G04 Layer_Color=32896*
%FSLAX23Y23*%
%MOIN*%
G70*
G01*
G75*
G36*
X2798Y211D02*
X2799Y211D01*
X2800Y211D01*
X2801Y210D01*
X2802Y210D01*
X2803Y210D01*
X2804Y209D01*
X2805Y209D01*
X2805Y208D01*
X2806Y208D01*
X2806Y208D01*
X2807Y207D01*
X2807Y207D01*
X2807Y207D01*
X2808Y207D01*
X2808Y207D01*
X2808Y206D01*
X2809Y205D01*
X2809Y204D01*
X2810Y203D01*
X2810Y202D01*
X2811Y201D01*
X2811Y199D01*
X2811Y198D01*
X2811Y197D01*
X2812Y197D01*
X2812Y196D01*
X2812Y196D01*
Y195D01*
Y195D01*
Y195D01*
X2812Y193D01*
X2811Y191D01*
X2811Y190D01*
X2811Y189D01*
X2810Y188D01*
X2810Y187D01*
X2810Y187D01*
X2810Y187D01*
X2810Y187D01*
X2810Y187D01*
Y186D01*
X2809Y185D01*
X2808Y184D01*
X2807Y183D01*
X2806Y183D01*
X2806Y182D01*
X2805Y181D01*
X2805Y181D01*
X2804Y181D01*
X2804D01*
X2803Y181D01*
X2802Y180D01*
X2801Y180D01*
X2799Y180D01*
X2798Y179D01*
X2798Y179D01*
X2797Y179D01*
X2797D01*
X2795Y179D01*
X2793Y180D01*
X2791Y180D01*
X2790Y181D01*
X2789Y182D01*
X2788Y183D01*
X2787Y184D01*
X2786Y185D01*
X2785Y186D01*
X2784Y187D01*
X2784Y187D01*
X2783Y188D01*
X2783Y189D01*
X2783Y189D01*
X2783Y190D01*
X2783Y190D01*
X2791Y190D01*
X2791Y190D01*
X2791Y189D01*
X2792Y188D01*
X2792Y188D01*
X2793Y187D01*
X2793Y187D01*
X2794Y187D01*
X2794Y186D01*
X2795Y186D01*
X2796Y186D01*
X2796D01*
X2796Y186D01*
X2796D01*
X2797Y186D01*
X2798Y186D01*
X2799Y186D01*
X2799Y187D01*
X2800Y187D01*
X2800Y187D01*
X2800Y187D01*
X2801Y187D01*
X2801Y188D01*
X2802Y189D01*
X2802Y190D01*
X2802Y190D01*
X2802Y191D01*
X2802Y192D01*
Y192D01*
Y192D01*
Y192D01*
Y193D01*
Y193D01*
Y194D01*
Y194D01*
Y194D01*
X2783D01*
X2783Y195D01*
X2783Y197D01*
X2783Y198D01*
X2783Y200D01*
X2784Y201D01*
X2784Y202D01*
X2784Y203D01*
X2785Y204D01*
X2785Y204D01*
X2785Y205D01*
X2786Y206D01*
X2786Y206D01*
X2786Y206D01*
X2787Y207D01*
X2787Y207D01*
X2787Y207D01*
X2788Y208D01*
X2788Y208D01*
X2789Y209D01*
X2790Y209D01*
X2791Y210D01*
X2792Y210D01*
X2793Y211D01*
X2794Y211D01*
X2795Y211D01*
X2795Y211D01*
X2796Y211D01*
X2796Y211D01*
X2797D01*
X2798Y211D01*
D02*
G37*
G36*
X3036D02*
X3037Y211D01*
X3038Y211D01*
X3039Y210D01*
X3040Y210D01*
X3041Y210D01*
X3041Y209D01*
X3042Y209D01*
X3043Y208D01*
X3043Y208D01*
X3044Y208D01*
X3044Y207D01*
X3045Y207D01*
X3045Y207D01*
X3045Y207D01*
X3045Y207D01*
X3046Y206D01*
X3046Y205D01*
X3047Y204D01*
X3047Y203D01*
X3048Y202D01*
X3048Y201D01*
X3049Y199D01*
X3049Y198D01*
X3049Y197D01*
X3049Y197D01*
X3049Y196D01*
X3049Y196D01*
Y195D01*
Y195D01*
Y195D01*
X3049Y193D01*
X3049Y191D01*
X3049Y190D01*
X3048Y189D01*
X3048Y188D01*
X3048Y187D01*
X3047Y187D01*
X3047Y187D01*
X3047Y187D01*
X3047Y187D01*
Y186D01*
X3046Y185D01*
X3045Y184D01*
X3045Y183D01*
X3044Y183D01*
X3043Y182D01*
X3042Y181D01*
X3042Y181D01*
X3042Y181D01*
X3042D01*
X3041Y181D01*
X3039Y180D01*
X3038Y180D01*
X3037Y180D01*
X3036Y179D01*
X3035Y179D01*
X3035Y179D01*
X3034D01*
X3032Y179D01*
X3031Y180D01*
X3029Y180D01*
X3028Y181D01*
X3026Y182D01*
X3025Y183D01*
X3024Y184D01*
X3023Y185D01*
X3023Y186D01*
X3022Y187D01*
X3021Y187D01*
X3021Y188D01*
X3021Y189D01*
X3020Y189D01*
X3020Y190D01*
X3020Y190D01*
X3028Y190D01*
X3029Y190D01*
X3029Y189D01*
X3029Y188D01*
X3030Y188D01*
X3030Y187D01*
X3031Y187D01*
X3031Y187D01*
X3031Y186D01*
X3032Y186D01*
X3033Y186D01*
X3033D01*
X3034Y186D01*
X3034D01*
X3035Y186D01*
X3036Y186D01*
X3036Y186D01*
X3037Y187D01*
X3037Y187D01*
X3038Y187D01*
X3038Y187D01*
X3038Y187D01*
X3039Y188D01*
X3039Y189D01*
X3039Y190D01*
X3040Y190D01*
X3040Y191D01*
X3040Y192D01*
Y192D01*
Y192D01*
Y192D01*
Y193D01*
Y193D01*
Y194D01*
Y194D01*
Y194D01*
X3020D01*
X3020Y195D01*
X3020Y197D01*
X3020Y198D01*
X3021Y200D01*
X3021Y201D01*
X3021Y202D01*
X3022Y203D01*
X3022Y204D01*
X3023Y204D01*
X3023Y205D01*
X3023Y206D01*
X3024Y206D01*
X3024Y206D01*
X3024Y207D01*
X3024Y207D01*
X3024Y207D01*
X3025Y208D01*
X3026Y208D01*
X3027Y209D01*
X3028Y209D01*
X3029Y210D01*
X3029Y210D01*
X3031Y211D01*
X3032Y211D01*
X3032Y211D01*
X3033Y211D01*
X3033Y211D01*
X3034Y211D01*
X3034D01*
X3036Y211D01*
D02*
G37*
G36*
X2896Y190D02*
X2896Y189D01*
X2896Y188D01*
X2896Y187D01*
X2896Y186D01*
X2896Y185D01*
X2896Y185D01*
X2896Y184D01*
Y184D01*
X2895Y183D01*
X2895Y183D01*
X2894Y182D01*
X2894Y181D01*
X2894Y181D01*
X2893Y181D01*
X2893Y181D01*
X2893Y181D01*
X2892Y180D01*
X2891Y180D01*
X2890Y180D01*
X2890Y179D01*
X2889Y179D01*
X2888Y179D01*
X2888D01*
X2887Y179D01*
X2885Y180D01*
X2884Y180D01*
X2883Y180D01*
X2883Y181D01*
X2882Y181D01*
X2881Y182D01*
X2881Y182D01*
X2880Y183D01*
X2880Y183D01*
X2879Y184D01*
X2879Y184D01*
X2879Y185D01*
X2879Y185D01*
X2879Y185D01*
Y180D01*
X2870D01*
Y210D01*
X2879D01*
Y193D01*
Y192D01*
X2879Y192D01*
X2879Y191D01*
X2880Y190D01*
X2880Y190D01*
X2880Y190D01*
X2880Y190D01*
Y189D01*
X2880Y189D01*
X2880Y189D01*
X2881Y188D01*
X2881Y188D01*
X2881Y188D01*
X2881Y187D01*
X2881Y187D01*
X2882Y187D01*
X2882Y187D01*
X2883Y187D01*
X2883Y187D01*
X2884Y186D01*
X2884Y186D01*
X2884D01*
X2885Y186D01*
X2885Y187D01*
X2886Y187D01*
X2886Y187D01*
X2887Y188D01*
X2887Y188D01*
X2888Y189D01*
X2888Y190D01*
X2888Y190D01*
Y190D01*
Y190D01*
Y190D01*
Y210D01*
X2896D01*
Y190D01*
D02*
G37*
G36*
X2705Y149D02*
X2705Y140D01*
X2711D01*
Y133D01*
X2706D01*
Y119D01*
Y118D01*
X2706Y117D01*
X2706Y116D01*
X2705Y116D01*
X2705Y115D01*
X2705Y114D01*
X2705Y114D01*
X2705Y113D01*
X2704Y113D01*
X2704Y112D01*
X2704Y112D01*
X2704Y112D01*
X2703Y111D01*
X2703Y111D01*
X2702Y111D01*
X2701Y110D01*
X2700Y110D01*
X2699Y110D01*
X2697Y109D01*
X2697Y109D01*
X2696D01*
X2696Y109D01*
X2695D01*
X2694Y109D01*
X2693Y110D01*
X2692Y110D01*
X2691Y110D01*
X2690Y110D01*
X2690Y110D01*
X2690Y110D01*
X2690D01*
Y117D01*
X2691Y117D01*
X2693D01*
X2694Y117D01*
X2694Y117D01*
X2695Y117D01*
X2695Y117D01*
X2696Y117D01*
X2696Y117D01*
X2696Y117D01*
X2696D01*
X2696Y118D01*
X2696Y118D01*
X2697Y119D01*
Y120D01*
X2697Y120D01*
Y120D01*
Y121D01*
Y133D01*
X2690D01*
Y140D01*
X2697D01*
Y150D01*
X2705Y149D01*
D02*
G37*
G36*
X2760Y141D02*
X2761Y141D01*
X2762Y141D01*
X2763Y140D01*
X2764Y140D01*
X2765Y140D01*
X2766Y139D01*
X2766Y139D01*
X2767Y138D01*
X2767Y138D01*
X2768Y138D01*
X2768Y137D01*
X2769Y137D01*
X2769Y137D01*
X2769Y137D01*
X2769Y137D01*
X2770Y136D01*
X2771Y135D01*
X2771Y134D01*
X2771Y133D01*
X2772Y132D01*
X2772Y131D01*
X2773Y129D01*
X2773Y128D01*
X2773Y127D01*
X2773Y127D01*
X2773Y126D01*
X2773Y126D01*
Y125D01*
Y125D01*
Y125D01*
X2773Y123D01*
X2773Y121D01*
X2773Y120D01*
X2772Y119D01*
X2772Y118D01*
X2772Y117D01*
X2772Y117D01*
X2771Y117D01*
X2771Y117D01*
X2771Y117D01*
Y116D01*
X2770Y115D01*
X2770Y114D01*
X2769Y113D01*
X2768Y113D01*
X2767Y112D01*
X2766Y111D01*
X2766Y111D01*
X2766Y111D01*
X2766D01*
X2765Y111D01*
X2763Y110D01*
X2762Y110D01*
X2761Y110D01*
X2760Y109D01*
X2759Y109D01*
X2759Y109D01*
X2758D01*
X2756Y109D01*
X2755Y110D01*
X2753Y110D01*
X2752Y111D01*
X2750Y112D01*
X2749Y113D01*
X2748Y114D01*
X2747Y115D01*
X2747Y116D01*
X2746Y117D01*
X2745Y117D01*
X2745Y118D01*
X2745Y119D01*
X2745Y119D01*
X2744Y120D01*
X2744Y120D01*
X2753Y120D01*
X2753Y120D01*
X2753Y119D01*
X2753Y118D01*
X2754Y118D01*
X2754Y117D01*
X2755Y117D01*
X2755Y117D01*
X2756Y116D01*
X2756Y116D01*
X2757Y116D01*
X2757D01*
X2758Y116D01*
X2758D01*
X2759Y116D01*
X2760Y116D01*
X2760Y116D01*
X2761Y117D01*
X2761Y117D01*
X2762Y117D01*
X2762Y117D01*
X2762Y117D01*
X2763Y118D01*
X2763Y119D01*
X2763Y120D01*
X2764Y120D01*
X2764Y121D01*
X2764Y122D01*
Y122D01*
Y122D01*
Y122D01*
Y123D01*
Y123D01*
Y124D01*
Y124D01*
Y124D01*
X2744D01*
X2744Y125D01*
X2744Y127D01*
X2745Y128D01*
X2745Y130D01*
X2745Y131D01*
X2746Y132D01*
X2746Y133D01*
X2746Y134D01*
X2747Y134D01*
X2747Y135D01*
X2747Y136D01*
X2748Y136D01*
X2748Y136D01*
X2748Y137D01*
X2748Y137D01*
X2748Y137D01*
X2749Y138D01*
X2750Y138D01*
X2751Y139D01*
X2752Y139D01*
X2753Y140D01*
X2753Y140D01*
X2755Y141D01*
X2756Y141D01*
X2756Y141D01*
X2757Y141D01*
X2757Y141D01*
X2758Y141D01*
X2758D01*
X2760Y141D01*
D02*
G37*
G36*
X2622Y211D02*
X2623Y211D01*
X2624Y211D01*
X2625Y210D01*
X2626Y210D01*
X2627Y210D01*
X2628Y209D01*
X2628Y209D01*
X2629Y208D01*
X2630Y208D01*
X2630Y208D01*
X2631Y207D01*
X2631Y207D01*
X2631Y207D01*
X2631Y207D01*
X2631Y207D01*
X2632Y206D01*
X2633Y205D01*
X2633Y204D01*
X2634Y203D01*
X2634Y202D01*
X2635Y201D01*
X2635Y199D01*
X2635Y198D01*
X2635Y197D01*
X2635Y197D01*
X2635Y196D01*
X2635Y196D01*
Y195D01*
Y195D01*
Y195D01*
X2635Y193D01*
X2635Y191D01*
X2635Y190D01*
X2634Y189D01*
X2634Y188D01*
X2634Y187D01*
X2634Y187D01*
X2634Y187D01*
X2634Y187D01*
X2633Y187D01*
Y186D01*
X2633Y185D01*
X2632Y184D01*
X2631Y183D01*
X2630Y183D01*
X2629Y182D01*
X2629Y181D01*
X2628Y181D01*
X2628Y181D01*
X2628D01*
X2627Y181D01*
X2626Y180D01*
X2624Y180D01*
X2623Y180D01*
X2622Y179D01*
X2622Y179D01*
X2621Y179D01*
X2620D01*
X2619Y179D01*
X2617Y180D01*
X2615Y180D01*
X2614Y181D01*
X2613Y182D01*
X2612Y183D01*
X2610Y184D01*
X2610Y185D01*
X2609Y186D01*
X2608Y187D01*
X2608Y187D01*
X2607Y188D01*
X2607Y189D01*
X2607Y189D01*
X2607Y190D01*
X2607Y190D01*
X2615Y190D01*
X2615Y190D01*
X2615Y189D01*
X2616Y188D01*
X2616Y188D01*
X2616Y187D01*
X2617Y187D01*
X2617Y187D01*
X2618Y186D01*
X2619Y186D01*
X2619Y186D01*
X2620D01*
X2620Y186D01*
X2620D01*
X2621Y186D01*
X2622Y186D01*
X2623Y186D01*
X2623Y187D01*
X2624Y187D01*
X2624Y187D01*
X2624Y187D01*
X2624Y187D01*
X2625Y188D01*
X2625Y189D01*
X2626Y190D01*
X2626Y190D01*
X2626Y191D01*
X2626Y192D01*
Y192D01*
Y192D01*
Y192D01*
Y193D01*
Y193D01*
Y194D01*
Y194D01*
Y194D01*
X2606D01*
X2606Y195D01*
X2607Y197D01*
X2607Y198D01*
X2607Y200D01*
X2607Y201D01*
X2608Y202D01*
X2608Y203D01*
X2608Y204D01*
X2609Y204D01*
X2609Y205D01*
X2610Y206D01*
X2610Y206D01*
X2610Y206D01*
X2610Y207D01*
X2611Y207D01*
X2611Y207D01*
X2611Y208D01*
X2612Y208D01*
X2613Y209D01*
X2614Y209D01*
X2615Y210D01*
X2616Y210D01*
X2617Y211D01*
X2618Y211D01*
X2619Y211D01*
X2619Y211D01*
X2620Y211D01*
X2620Y211D01*
X2621D01*
X2622Y211D01*
D02*
G37*
G36*
X2444Y219D02*
X2444Y210D01*
X2450D01*
Y203D01*
X2445D01*
Y189D01*
Y188D01*
X2445Y187D01*
X2445Y186D01*
X2444Y186D01*
X2444Y185D01*
X2444Y184D01*
X2444Y184D01*
X2444Y183D01*
X2443Y183D01*
X2443Y182D01*
X2443Y182D01*
X2443Y182D01*
X2443Y181D01*
X2442Y181D01*
X2441Y181D01*
X2440Y180D01*
X2439Y180D01*
X2438Y180D01*
X2436Y179D01*
X2436Y179D01*
X2435D01*
X2435Y179D01*
X2434D01*
X2433Y179D01*
X2432Y180D01*
X2431Y180D01*
X2430Y180D01*
X2430Y180D01*
X2429Y180D01*
X2429Y180D01*
X2429D01*
Y187D01*
X2430Y187D01*
X2432D01*
X2433Y187D01*
X2433Y187D01*
X2434Y187D01*
X2434Y187D01*
X2435Y187D01*
X2435Y187D01*
X2435Y187D01*
X2435D01*
X2435Y188D01*
X2436Y188D01*
X2436Y189D01*
Y190D01*
X2436Y190D01*
Y190D01*
Y191D01*
Y203D01*
X2429D01*
Y210D01*
X2436D01*
Y220D01*
X2444Y219D01*
D02*
G37*
G36*
X2958Y110D02*
X2949D01*
Y140D01*
X2958D01*
Y110D01*
D02*
G37*
G36*
X2829Y141D02*
X2829Y141D01*
X2830Y141D01*
X2831Y140D01*
X2831Y140D01*
X2832Y139D01*
X2833Y138D01*
X2833Y137D01*
X2834Y136D01*
X2834Y136D01*
X2834Y135D01*
X2834Y135D01*
X2834Y135D01*
Y140D01*
X2843D01*
Y110D01*
X2834D01*
Y122D01*
X2834Y124D01*
X2834Y125D01*
X2834Y126D01*
X2833Y127D01*
X2833Y127D01*
X2833Y128D01*
X2833Y128D01*
X2833Y128D01*
X2833Y129D01*
X2832Y130D01*
X2832Y130D01*
X2831Y131D01*
X2831Y131D01*
X2831Y131D01*
X2831Y131D01*
X2830Y131D01*
X2830Y132D01*
X2829Y132D01*
X2828Y132D01*
X2828Y132D01*
X2827Y132D01*
X2827Y132D01*
X2826D01*
Y141D01*
X2827Y141D01*
X2827Y141D01*
X2828D01*
X2829Y141D01*
D02*
G37*
G36*
X2546Y127D02*
Y119D01*
X2528D01*
Y110D01*
X2518D01*
Y119D01*
X2513D01*
Y127D01*
X2518D01*
Y152D01*
X2529D01*
X2546Y127D01*
D02*
G37*
G36*
X2829Y211D02*
X2831Y211D01*
X2832Y211D01*
X2833Y210D01*
X2834Y210D01*
X2835Y210D01*
X2835Y209D01*
X2836Y209D01*
X2837Y208D01*
X2837Y208D01*
X2838Y208D01*
X2838Y207D01*
X2839Y207D01*
X2839Y207D01*
X2839Y207D01*
X2839Y207D01*
X2840Y206D01*
X2841Y205D01*
X2841Y204D01*
X2841Y203D01*
X2842Y202D01*
X2842Y201D01*
X2843Y199D01*
X2843Y198D01*
X2843Y197D01*
X2843Y197D01*
X2843Y196D01*
X2843Y196D01*
Y195D01*
Y195D01*
Y195D01*
X2843Y194D01*
X2843Y192D01*
X2843Y191D01*
X2843Y190D01*
X2842Y189D01*
X2842Y188D01*
X2842Y187D01*
X2841Y187D01*
X2841Y186D01*
X2841Y185D01*
X2840Y185D01*
X2840Y184D01*
X2840Y184D01*
X2839Y184D01*
X2839Y184D01*
X2839Y184D01*
X2838Y183D01*
X2838Y182D01*
X2837Y182D01*
X2836Y181D01*
X2835Y181D01*
X2834Y180D01*
X2832Y180D01*
X2832Y180D01*
X2831Y180D01*
X2830Y179D01*
X2830Y179D01*
X2829Y179D01*
X2829D01*
X2828Y179D01*
X2827Y179D01*
X2825Y180D01*
X2824Y180D01*
X2823Y180D01*
X2822Y181D01*
X2822Y181D01*
X2821Y181D01*
X2820Y182D01*
X2820Y182D01*
X2820Y182D01*
X2819Y182D01*
X2819Y183D01*
X2819Y183D01*
X2819Y183D01*
X2818Y183D01*
X2818Y184D01*
X2817Y185D01*
X2817Y185D01*
X2816Y187D01*
X2815Y188D01*
X2815Y190D01*
X2815Y190D01*
X2815Y190D01*
X2815Y191D01*
X2815Y191D01*
Y191D01*
Y191D01*
X2823Y192D01*
X2823Y191D01*
X2824Y190D01*
X2824Y189D01*
X2824Y189D01*
X2825Y188D01*
X2825Y188D01*
X2825Y188D01*
X2826Y187D01*
X2827Y187D01*
X2827Y187D01*
X2828D01*
X2828Y187D01*
X2828D01*
X2829Y187D01*
X2830Y187D01*
X2830Y187D01*
X2831Y187D01*
X2831Y188D01*
X2831Y188D01*
X2832Y188D01*
X2832Y188D01*
X2832Y189D01*
X2832Y189D01*
X2832Y189D01*
X2833Y190D01*
X2833Y191D01*
X2833Y193D01*
X2833Y194D01*
Y194D01*
X2833Y195D01*
Y195D01*
Y195D01*
Y195D01*
Y196D01*
X2833Y197D01*
X2833Y198D01*
X2833Y200D01*
X2832Y201D01*
X2832Y201D01*
X2832Y202D01*
X2831Y203D01*
X2831Y203D01*
X2830Y204D01*
X2830Y204D01*
X2829Y204D01*
X2829Y204D01*
X2828Y204D01*
X2828Y204D01*
X2828D01*
X2827Y204D01*
X2826Y204D01*
X2826Y204D01*
X2825Y203D01*
X2825Y203D01*
X2824Y203D01*
X2824Y202D01*
X2823Y201D01*
X2823Y200D01*
X2823Y199D01*
X2823Y199D01*
Y199D01*
Y199D01*
X2815Y199D01*
X2815Y200D01*
X2815Y201D01*
X2816Y203D01*
X2816Y204D01*
X2817Y205D01*
X2818Y206D01*
X2818Y207D01*
X2818Y207D01*
X2819Y207D01*
X2819Y208D01*
X2819Y208D01*
X2819Y208D01*
X2820Y208D01*
X2820Y209D01*
X2821Y209D01*
X2822Y210D01*
X2823Y210D01*
X2825Y211D01*
X2826Y211D01*
X2827Y211D01*
X2827Y211D01*
X2828Y211D01*
X2828D01*
X2829Y211D01*
D02*
G37*
G36*
X3316Y110D02*
X3307D01*
Y119D01*
X3316D01*
Y110D01*
D02*
G37*
G36*
X2974D02*
X2965D01*
Y119D01*
X2974D01*
Y110D01*
D02*
G37*
G36*
X2604Y152D02*
X2605Y152D01*
X2606Y151D01*
X2607Y151D01*
X2608Y151D01*
X2609Y150D01*
X2610Y150D01*
X2611Y150D01*
X2611Y149D01*
X2612Y149D01*
X2612Y149D01*
X2613Y148D01*
X2613Y148D01*
X2613Y148D01*
X2614Y148D01*
X2614Y148D01*
X2614Y147D01*
X2615Y146D01*
X2615Y146D01*
X2616Y145D01*
X2616Y144D01*
X2617Y143D01*
X2617Y141D01*
X2617Y141D01*
X2617Y140D01*
X2617Y140D01*
X2618Y139D01*
X2618Y139D01*
Y138D01*
Y138D01*
Y138D01*
X2618Y137D01*
X2617Y136D01*
X2617Y134D01*
X2616Y133D01*
X2616Y132D01*
X2616Y131D01*
X2615Y131D01*
X2615Y130D01*
X2615Y130D01*
X2615Y130D01*
X2614Y129D01*
X2614Y129D01*
X2614Y129D01*
X2614Y129D01*
X2613Y128D01*
X2613Y128D01*
X2612Y127D01*
X2611Y127D01*
X2610Y126D01*
X2608Y126D01*
X2607Y126D01*
X2606Y126D01*
X2606Y125D01*
X2605Y125D01*
X2605D01*
X2604Y125D01*
X2603Y126D01*
X2602Y126D01*
X2601Y126D01*
X2600Y127D01*
X2599Y127D01*
X2598Y128D01*
X2598Y128D01*
X2597Y128D01*
X2597Y129D01*
X2596Y129D01*
X2596Y129D01*
X2596Y129D01*
X2596Y130D01*
X2596Y130D01*
X2596Y128D01*
X2596Y127D01*
X2596Y125D01*
X2596Y124D01*
X2596Y123D01*
X2597Y123D01*
X2597Y122D01*
X2597Y121D01*
X2597Y120D01*
X2597Y120D01*
X2597Y120D01*
X2598Y119D01*
X2598Y119D01*
X2598Y119D01*
X2598Y119D01*
X2599Y118D01*
X2600Y118D01*
X2600Y117D01*
X2601Y117D01*
X2602Y117D01*
X2602Y117D01*
X2603Y117D01*
X2603D01*
X2604Y117D01*
X2604Y117D01*
X2605Y117D01*
X2605Y117D01*
X2606Y118D01*
X2607Y119D01*
X2608Y120D01*
X2608Y120D01*
X2608Y120D01*
X2608Y121D01*
X2608Y121D01*
Y121D01*
X2617Y119D01*
X2616Y118D01*
X2615Y116D01*
X2614Y115D01*
X2614Y114D01*
X2612Y113D01*
X2611Y112D01*
X2610Y111D01*
X2609Y111D01*
X2608Y110D01*
X2607Y110D01*
X2606Y110D01*
X2605Y109D01*
X2604Y109D01*
X2604Y109D01*
X2603D01*
X2602Y109D01*
X2600Y110D01*
X2599Y110D01*
X2598Y110D01*
X2597Y111D01*
X2595Y111D01*
X2595Y112D01*
X2594Y112D01*
X2593Y113D01*
X2592Y114D01*
X2592Y114D01*
X2591Y115D01*
X2591Y115D01*
X2591Y115D01*
X2591Y116D01*
X2591Y116D01*
X2590Y117D01*
X2589Y118D01*
X2588Y119D01*
X2588Y121D01*
X2588Y122D01*
X2587Y123D01*
X2587Y125D01*
X2587Y126D01*
X2587Y127D01*
X2586Y128D01*
X2586Y129D01*
X2586Y130D01*
X2586Y130D01*
Y131D01*
Y131D01*
Y131D01*
X2586Y133D01*
X2587Y135D01*
X2587Y137D01*
X2587Y138D01*
X2587Y139D01*
X2587Y140D01*
X2588Y140D01*
X2588Y141D01*
X2588Y141D01*
X2588Y142D01*
X2588Y142D01*
X2588Y142D01*
Y142D01*
X2589Y144D01*
X2590Y145D01*
X2591Y147D01*
X2592Y148D01*
X2593Y148D01*
X2593Y149D01*
X2594Y149D01*
X2594Y149D01*
X2594Y149D01*
X2594D01*
X2595Y150D01*
X2597Y151D01*
X2598Y151D01*
X2600Y151D01*
X2601Y152D01*
X2601Y152D01*
X2602D01*
X2602Y152D01*
X2603D01*
X2604Y152D01*
D02*
G37*
G36*
X2511Y122D02*
X2496D01*
Y129D01*
X2511D01*
Y122D01*
D02*
G37*
G36*
X2994Y110D02*
X2995Y109D01*
X2995Y109D01*
X2995Y108D01*
X2995Y108D01*
X2995Y108D01*
X2996Y107D01*
X2996Y107D01*
X2996Y107D01*
X2996Y107D01*
X2997Y107D01*
X2997Y107D01*
X2998Y106D01*
X2998Y106D01*
X2999Y106D01*
X2999D01*
X3001Y106D01*
X3002Y106D01*
X3002Y106D01*
X3003Y107D01*
X3003Y107D01*
X3003Y107D01*
X3004D01*
Y100D01*
X3003Y100D01*
X3002Y100D01*
X3001Y99D01*
X3001D01*
X3000Y99D01*
X2999D01*
X2998Y99D01*
X2997Y100D01*
X2996Y100D01*
X2995Y100D01*
X2994Y100D01*
X2994Y101D01*
X2993Y101D01*
X2993Y101D01*
X2993Y101D01*
X2992Y102D01*
X2991Y102D01*
X2991Y103D01*
X2991Y103D01*
X2990Y104D01*
X2990Y104D01*
X2990Y104D01*
X2990Y105D01*
X2989Y106D01*
X2989Y107D01*
X2988Y109D01*
X2988Y110D01*
X2988Y110D01*
X2988Y110D01*
X2988Y111D01*
X2988Y111D01*
X2987Y111D01*
Y111D01*
X2978Y140D01*
X2984D01*
X2990Y122D01*
X2996Y140D01*
X3005D01*
X2994Y110D01*
D02*
G37*
G36*
X3023Y141D02*
X3025Y141D01*
X3027Y140D01*
X3028Y140D01*
X3029Y140D01*
X3029Y140D01*
X3030Y139D01*
X3030Y139D01*
X3031Y139D01*
X3031Y139D01*
X3031Y139D01*
X3031D01*
X3032Y138D01*
X3032Y138D01*
X3033Y137D01*
X3033Y137D01*
X3034Y136D01*
X3035Y134D01*
X3035Y133D01*
X3035Y133D01*
X3036Y132D01*
X3036Y132D01*
X3036Y132D01*
X3036Y132D01*
Y132D01*
X3028Y131D01*
X3027Y132D01*
X3027Y132D01*
X3027Y133D01*
X3026Y133D01*
X3026Y134D01*
X3026Y134D01*
X3025Y135D01*
X3024Y135D01*
X3023Y135D01*
X3023Y135D01*
X3022D01*
X3022Y135D01*
X3021Y135D01*
X3020Y135D01*
X3020Y134D01*
X3019Y134D01*
X3019Y134D01*
X3019Y133D01*
X3018Y133D01*
X3018Y132D01*
X3018Y131D01*
X3018Y131D01*
Y131D01*
Y131D01*
Y131D01*
Y129D01*
X3019Y129D01*
X3021Y129D01*
X3022Y129D01*
X3024Y128D01*
X3025Y128D01*
X3026Y128D01*
X3027Y128D01*
X3027Y128D01*
X3028Y127D01*
X3029Y127D01*
X3029Y127D01*
X3030Y127D01*
X3030Y127D01*
X3030Y127D01*
X3030Y127D01*
X3030D01*
X3031Y126D01*
X3033Y126D01*
X3033Y125D01*
X3034Y125D01*
X3035Y124D01*
X3035Y124D01*
X3035Y123D01*
X3035Y123D01*
X3036Y122D01*
X3036Y121D01*
X3036Y120D01*
X3037Y120D01*
X3037Y119D01*
X3037Y118D01*
Y118D01*
Y118D01*
Y118D01*
X3037Y116D01*
X3036Y115D01*
X3036Y114D01*
X3035Y113D01*
X3035Y113D01*
X3035Y112D01*
X3034Y112D01*
X3034Y112D01*
X3033Y111D01*
X3032Y110D01*
X3031Y110D01*
X3030Y110D01*
X3029Y109D01*
X3028Y109D01*
X3028D01*
X3028Y109D01*
X3027D01*
X3026Y109D01*
X3025Y110D01*
X3024Y110D01*
X3024Y110D01*
X3023Y110D01*
X3022Y110D01*
X3022Y110D01*
X3022Y110D01*
X3021Y111D01*
X3020Y111D01*
X3020Y112D01*
X3019Y113D01*
X3018Y114D01*
X3018Y114D01*
X3018Y115D01*
X3017Y115D01*
Y114D01*
X3017Y113D01*
X3017Y112D01*
X3017Y111D01*
X3017Y111D01*
X3017Y110D01*
X3017Y110D01*
Y110D01*
X3008D01*
X3009Y111D01*
X3009Y112D01*
X3009Y113D01*
X3009Y113D01*
X3009Y114D01*
Y115D01*
Y115D01*
Y115D01*
Y116D01*
Y116D01*
Y129D01*
Y131D01*
X3009Y132D01*
X3009Y133D01*
X3009Y134D01*
X3009Y134D01*
X3009Y135D01*
X3009Y135D01*
Y135D01*
X3010Y136D01*
X3010Y136D01*
X3010Y137D01*
X3011Y137D01*
X3011Y138D01*
X3011Y138D01*
X3011Y138D01*
X3012Y138D01*
X3012Y139D01*
X3013Y139D01*
X3014Y139D01*
X3014Y140D01*
X3015Y140D01*
X3015Y140D01*
X3016Y140D01*
X3016D01*
X3017Y141D01*
X3018Y141D01*
X3019Y141D01*
X3020Y141D01*
X3021D01*
X3021Y141D01*
X3022D01*
X3023Y141D01*
D02*
G37*
G36*
X3384Y211D02*
X3385Y211D01*
X3386Y211D01*
X3386Y210D01*
X3387Y210D01*
X3387Y209D01*
X3388Y208D01*
X3389Y207D01*
X3389Y206D01*
X3389Y206D01*
X3390Y205D01*
X3390Y205D01*
X3390Y205D01*
Y210D01*
X3398D01*
Y180D01*
X3389D01*
Y192D01*
X3389Y194D01*
X3389Y195D01*
X3389Y196D01*
X3389Y197D01*
X3389Y197D01*
X3389Y198D01*
X3388Y198D01*
X3388Y198D01*
X3388Y199D01*
X3388Y200D01*
X3387Y200D01*
X3387Y201D01*
X3386Y201D01*
X3386Y201D01*
X3386Y201D01*
X3386Y201D01*
X3385Y202D01*
X3385Y202D01*
X3384Y202D01*
X3383Y202D01*
X3383Y202D01*
X3382Y202D01*
X3382D01*
Y211D01*
X3382Y211D01*
X3383Y211D01*
X3383D01*
X3384Y211D01*
D02*
G37*
G36*
X3135Y110D02*
X3127D01*
Y118D01*
X3121Y124D01*
X3115Y110D01*
X3105D01*
X3115Y130D01*
X3106Y140D01*
X3115D01*
X3124Y130D01*
X3124Y129D01*
X3125Y129D01*
X3125Y129D01*
X3125Y128D01*
X3125Y128D01*
X3125Y128D01*
X3127Y126D01*
Y151D01*
X3135D01*
Y110D01*
D02*
G37*
G36*
X2451D02*
X2451Y109D01*
X2451Y109D01*
X2452Y108D01*
X2452Y108D01*
X2452Y108D01*
X2452Y107D01*
X2452Y107D01*
X2452Y107D01*
X2453Y107D01*
X2453Y107D01*
X2454Y107D01*
X2455Y106D01*
X2455Y106D01*
X2456Y106D01*
X2456D01*
X2458Y106D01*
X2458Y106D01*
X2459Y106D01*
X2459Y107D01*
X2460Y107D01*
X2460Y107D01*
X2460D01*
Y100D01*
X2459Y100D01*
X2459Y100D01*
X2458Y99D01*
X2457D01*
X2457Y99D01*
X2456D01*
X2455Y99D01*
X2454Y100D01*
X2453Y100D01*
X2452Y100D01*
X2451Y100D01*
X2451Y101D01*
X2450Y101D01*
X2450Y101D01*
X2449Y101D01*
X2449Y102D01*
X2448Y102D01*
X2448Y103D01*
X2447Y103D01*
X2447Y104D01*
X2447Y104D01*
X2447Y104D01*
X2446Y105D01*
X2446Y106D01*
X2446Y107D01*
X2445Y109D01*
X2445Y110D01*
X2445Y110D01*
X2444Y110D01*
X2444Y111D01*
X2444Y111D01*
X2444Y111D01*
Y111D01*
X2435Y140D01*
X2441D01*
X2447Y122D01*
X2453Y140D01*
X2462D01*
X2451Y110D01*
D02*
G37*
G36*
X2203Y141D02*
X2204Y141D01*
X2205Y141D01*
X2206Y140D01*
X2207Y140D01*
X2208Y140D01*
X2209Y139D01*
X2210Y139D01*
X2210Y138D01*
X2211Y138D01*
X2211Y138D01*
X2212Y137D01*
X2212Y137D01*
X2212Y137D01*
X2213Y137D01*
X2213Y137D01*
X2213Y136D01*
X2214Y135D01*
X2215Y134D01*
X2215Y133D01*
X2215Y132D01*
X2216Y131D01*
X2216Y129D01*
X2216Y128D01*
X2217Y127D01*
X2217Y127D01*
X2217Y126D01*
X2217Y126D01*
Y125D01*
Y125D01*
Y125D01*
X2217Y124D01*
X2217Y122D01*
X2216Y121D01*
X2216Y120D01*
X2216Y119D01*
X2215Y118D01*
X2215Y117D01*
X2215Y117D01*
X2214Y116D01*
X2214Y115D01*
X2214Y115D01*
X2213Y114D01*
X2213Y114D01*
X2213Y114D01*
X2213Y114D01*
X2213Y114D01*
X2212Y113D01*
X2211Y112D01*
X2210Y112D01*
X2209Y111D01*
X2208Y111D01*
X2208Y110D01*
X2206Y110D01*
X2205Y110D01*
X2204Y110D01*
X2204Y109D01*
X2203Y109D01*
X2203Y109D01*
X2202D01*
X2201Y109D01*
X2200Y109D01*
X2198Y110D01*
X2197Y110D01*
X2197Y110D01*
X2196Y111D01*
X2195Y111D01*
X2195Y111D01*
X2194Y112D01*
X2194Y112D01*
X2193Y112D01*
X2193Y112D01*
X2193Y113D01*
X2193Y113D01*
X2193Y113D01*
X2192Y113D01*
X2191Y114D01*
X2191Y115D01*
X2190Y115D01*
X2190Y117D01*
X2189Y118D01*
X2189Y120D01*
X2188Y120D01*
X2188Y120D01*
X2188Y121D01*
X2188Y121D01*
Y121D01*
Y121D01*
X2197Y122D01*
X2197Y121D01*
X2197Y120D01*
X2197Y119D01*
X2198Y119D01*
X2198Y118D01*
X2199Y118D01*
X2199Y118D01*
X2199Y117D01*
X2200Y117D01*
X2201Y117D01*
X2201D01*
X2201Y117D01*
X2202D01*
X2202Y117D01*
X2203Y117D01*
X2204Y117D01*
X2204Y117D01*
X2205Y118D01*
X2205Y118D01*
X2205Y118D01*
X2205Y118D01*
X2205Y119D01*
X2206Y119D01*
X2206Y119D01*
X2206Y120D01*
X2206Y121D01*
X2206Y123D01*
X2207Y124D01*
Y124D01*
X2207Y125D01*
Y125D01*
Y125D01*
Y125D01*
Y126D01*
X2207Y127D01*
X2206Y128D01*
X2206Y130D01*
X2206Y131D01*
X2205Y131D01*
X2205Y132D01*
X2205Y133D01*
X2204Y133D01*
X2204Y134D01*
X2203Y134D01*
X2203Y134D01*
X2202Y134D01*
X2202Y134D01*
X2202Y134D01*
X2201D01*
X2201Y134D01*
X2200Y134D01*
X2199Y134D01*
X2199Y133D01*
X2198Y133D01*
X2198Y133D01*
X2197Y132D01*
X2197Y131D01*
X2197Y130D01*
X2197Y129D01*
X2197Y129D01*
Y129D01*
Y129D01*
X2188Y129D01*
X2188Y130D01*
X2189Y131D01*
X2189Y133D01*
X2190Y134D01*
X2190Y135D01*
X2191Y136D01*
X2192Y137D01*
X2192Y137D01*
X2192Y137D01*
X2192Y138D01*
X2192Y138D01*
X2192Y138D01*
X2193Y138D01*
X2194Y139D01*
X2195Y139D01*
X2195Y140D01*
X2197Y140D01*
X2198Y141D01*
X2200Y141D01*
X2200Y141D01*
X2201Y141D01*
X2201Y141D01*
X2202D01*
X2203Y141D01*
D02*
G37*
G36*
X3419Y149D02*
X3420Y140D01*
X3425D01*
Y133D01*
X3420D01*
Y119D01*
Y118D01*
X3420Y117D01*
X3420Y116D01*
X3420Y116D01*
X3420Y115D01*
X3420Y114D01*
X3419Y114D01*
X3419Y113D01*
X3419Y113D01*
X3419Y112D01*
X3418Y112D01*
X3418Y112D01*
X3418Y111D01*
X3417Y111D01*
X3417Y111D01*
X3416Y110D01*
X3414Y110D01*
X3413Y110D01*
X3412Y109D01*
X3411Y109D01*
X3411D01*
X3410Y109D01*
X3409D01*
X3408Y109D01*
X3407Y110D01*
X3407Y110D01*
X3406Y110D01*
X3405Y110D01*
X3405Y110D01*
X3405Y110D01*
X3404D01*
Y117D01*
X3405Y117D01*
X3407D01*
X3408Y117D01*
X3409Y117D01*
X3409Y117D01*
X3410Y117D01*
X3410Y117D01*
X3410Y117D01*
X3410Y117D01*
X3411D01*
X3411Y118D01*
X3411Y118D01*
X3411Y119D01*
Y120D01*
X3411Y120D01*
Y120D01*
Y121D01*
Y133D01*
X3405D01*
Y140D01*
X3411D01*
Y150D01*
X3419Y149D01*
D02*
G37*
G36*
X3397D02*
X3398Y140D01*
X3403D01*
Y133D01*
X3399D01*
Y119D01*
Y118D01*
X3398Y117D01*
X3398Y116D01*
X3398Y116D01*
X3398Y115D01*
X3398Y114D01*
X3398Y114D01*
X3397Y113D01*
X3397Y113D01*
X3397Y112D01*
X3397Y112D01*
X3396Y112D01*
X3396Y111D01*
X3396Y111D01*
X3395Y111D01*
X3394Y110D01*
X3393Y110D01*
X3391Y110D01*
X3390Y109D01*
X3390Y109D01*
X3389D01*
X3389Y109D01*
X3388D01*
X3387Y109D01*
X3386Y110D01*
X3385Y110D01*
X3384Y110D01*
X3383Y110D01*
X3383Y110D01*
X3383Y110D01*
X3383D01*
Y117D01*
X3384Y117D01*
X3385D01*
X3386Y117D01*
X3387Y117D01*
X3388Y117D01*
X3388Y117D01*
X3388Y117D01*
X3389Y117D01*
X3389Y117D01*
X3389D01*
X3389Y118D01*
X3389Y118D01*
X3389Y119D01*
Y120D01*
X3390Y120D01*
Y120D01*
Y121D01*
Y133D01*
X3383D01*
Y140D01*
X3390D01*
Y150D01*
X3397Y149D01*
D02*
G37*
G36*
X2304Y110D02*
X2296D01*
X2291Y130D01*
X2287Y110D01*
X2279D01*
X2269Y140D01*
X2276D01*
X2282Y122D01*
X2286Y140D01*
X2294D01*
X2299Y122D01*
X2304Y140D01*
X2313D01*
X2304Y110D01*
D02*
G37*
G36*
X3155Y141D02*
X3156Y141D01*
X3157Y141D01*
X3158Y140D01*
X3159Y140D01*
X3160Y140D01*
X3161Y139D01*
X3161Y139D01*
X3162Y138D01*
X3163Y138D01*
X3163Y138D01*
X3164Y137D01*
X3164Y137D01*
X3164Y137D01*
X3164Y137D01*
X3164Y137D01*
X3165Y136D01*
X3166Y135D01*
X3166Y134D01*
X3167Y133D01*
X3167Y132D01*
X3167Y131D01*
X3168Y129D01*
X3168Y128D01*
X3168Y127D01*
X3168Y127D01*
X3168Y126D01*
X3168Y126D01*
Y125D01*
Y125D01*
Y125D01*
X3168Y124D01*
X3168Y122D01*
X3168Y121D01*
X3168Y120D01*
X3168Y119D01*
X3167Y118D01*
X3167Y117D01*
X3166Y117D01*
X3166Y116D01*
X3166Y115D01*
X3165Y115D01*
X3165Y114D01*
X3165Y114D01*
X3165Y114D01*
X3165Y114D01*
X3164Y114D01*
X3164Y113D01*
X3163Y112D01*
X3162Y112D01*
X3161Y111D01*
X3160Y111D01*
X3159Y110D01*
X3158Y110D01*
X3157Y110D01*
X3156Y110D01*
X3156Y109D01*
X3155Y109D01*
X3155Y109D01*
X3154D01*
X3153Y109D01*
X3152Y109D01*
X3150Y110D01*
X3149Y110D01*
X3148Y110D01*
X3148Y111D01*
X3147Y111D01*
X3146Y111D01*
X3146Y112D01*
X3145Y112D01*
X3145Y112D01*
X3145Y112D01*
X3144Y113D01*
X3144Y113D01*
X3144Y113D01*
X3144Y113D01*
X3143Y114D01*
X3142Y115D01*
X3142Y115D01*
X3141Y117D01*
X3141Y118D01*
X3140Y120D01*
X3140Y120D01*
X3140Y120D01*
X3140Y121D01*
X3140Y121D01*
Y121D01*
Y121D01*
X3148Y122D01*
X3148Y121D01*
X3149Y120D01*
X3149Y119D01*
X3149Y119D01*
X3150Y118D01*
X3150Y118D01*
X3151Y118D01*
X3151Y117D01*
X3152Y117D01*
X3153Y117D01*
X3153D01*
X3153Y117D01*
X3153D01*
X3154Y117D01*
X3155Y117D01*
X3155Y117D01*
X3156Y117D01*
X3156Y118D01*
X3157Y118D01*
X3157Y118D01*
X3157Y118D01*
X3157Y119D01*
X3157Y119D01*
X3158Y119D01*
X3158Y120D01*
X3158Y121D01*
X3158Y123D01*
X3158Y124D01*
Y124D01*
X3158Y125D01*
Y125D01*
Y125D01*
Y125D01*
Y126D01*
X3158Y127D01*
X3158Y128D01*
X3158Y130D01*
X3158Y131D01*
X3157Y131D01*
X3157Y132D01*
X3156Y133D01*
X3156Y133D01*
X3155Y134D01*
X3155Y134D01*
X3154Y134D01*
X3154Y134D01*
X3154Y134D01*
X3153Y134D01*
X3153D01*
X3152Y134D01*
X3152Y134D01*
X3151Y134D01*
X3151Y133D01*
X3150Y133D01*
X3150Y133D01*
X3149Y132D01*
X3149Y131D01*
X3148Y130D01*
X3148Y129D01*
X3148Y129D01*
Y129D01*
Y129D01*
X3140Y129D01*
X3140Y130D01*
X3140Y131D01*
X3141Y133D01*
X3141Y134D01*
X3142Y135D01*
X3143Y136D01*
X3143Y137D01*
X3144Y137D01*
X3144Y137D01*
X3144Y138D01*
X3144Y138D01*
X3144Y138D01*
X3145Y138D01*
X3146Y139D01*
X3146Y139D01*
X3147Y140D01*
X3149Y140D01*
X3150Y141D01*
X3151Y141D01*
X3152Y141D01*
X3152Y141D01*
X3153Y141D01*
X3153D01*
X3155Y141D01*
D02*
G37*
G36*
X2726D02*
X2728Y141D01*
X2729Y141D01*
X2730Y140D01*
X2731Y140D01*
X2732Y140D01*
X2732Y139D01*
X2733Y139D01*
X2734Y138D01*
X2734Y138D01*
X2735Y138D01*
X2735Y137D01*
X2736Y137D01*
X2736Y137D01*
X2736Y137D01*
X2736Y137D01*
X2737Y136D01*
X2738Y135D01*
X2738Y134D01*
X2739Y133D01*
X2739Y132D01*
X2739Y131D01*
X2740Y129D01*
X2740Y128D01*
X2740Y127D01*
X2740Y127D01*
X2740Y126D01*
X2740Y126D01*
Y125D01*
Y125D01*
Y125D01*
X2740Y124D01*
X2740Y122D01*
X2740Y121D01*
X2740Y120D01*
X2739Y119D01*
X2739Y118D01*
X2739Y117D01*
X2738Y117D01*
X2738Y116D01*
X2738Y115D01*
X2737Y115D01*
X2737Y114D01*
X2737Y114D01*
X2736Y114D01*
X2736Y114D01*
X2736Y114D01*
X2735Y113D01*
X2735Y112D01*
X2734Y112D01*
X2733Y111D01*
X2732Y111D01*
X2731Y110D01*
X2729Y110D01*
X2729Y110D01*
X2728Y110D01*
X2727Y109D01*
X2727Y109D01*
X2726Y109D01*
X2726D01*
X2725Y109D01*
X2724Y109D01*
X2722Y110D01*
X2721Y110D01*
X2720Y110D01*
X2719Y111D01*
X2719Y111D01*
X2718Y111D01*
X2718Y112D01*
X2717Y112D01*
X2717Y112D01*
X2716Y112D01*
X2716Y113D01*
X2716Y113D01*
X2716Y113D01*
X2715Y113D01*
X2715Y114D01*
X2714Y115D01*
X2714Y115D01*
X2713Y117D01*
X2712Y118D01*
X2712Y120D01*
X2712Y120D01*
X2712Y120D01*
X2712Y121D01*
X2712Y121D01*
Y121D01*
Y121D01*
X2720Y122D01*
X2720Y121D01*
X2721Y120D01*
X2721Y119D01*
X2721Y119D01*
X2722Y118D01*
X2722Y118D01*
X2723Y118D01*
X2723Y117D01*
X2724Y117D01*
X2724Y117D01*
X2725D01*
X2725Y117D01*
X2725D01*
X2726Y117D01*
X2727Y117D01*
X2727Y117D01*
X2728Y117D01*
X2728Y118D01*
X2728Y118D01*
X2729Y118D01*
X2729Y118D01*
X2729Y119D01*
X2729Y119D01*
X2729Y119D01*
X2730Y120D01*
X2730Y121D01*
X2730Y123D01*
X2730Y124D01*
Y124D01*
X2730Y125D01*
Y125D01*
Y125D01*
Y125D01*
Y126D01*
X2730Y127D01*
X2730Y128D01*
X2730Y130D01*
X2729Y131D01*
X2729Y131D01*
X2729Y132D01*
X2728Y133D01*
X2728Y133D01*
X2727Y134D01*
X2727Y134D01*
X2726Y134D01*
X2726Y134D01*
X2725Y134D01*
X2725Y134D01*
X2725D01*
X2724Y134D01*
X2723Y134D01*
X2723Y134D01*
X2722Y133D01*
X2722Y133D01*
X2721Y133D01*
X2721Y132D01*
X2720Y131D01*
X2720Y130D01*
X2720Y129D01*
X2720Y129D01*
Y129D01*
Y129D01*
X2712Y129D01*
X2712Y130D01*
X2712Y131D01*
X2713Y133D01*
X2713Y134D01*
X2714Y135D01*
X2715Y136D01*
X2715Y137D01*
X2715Y137D01*
X2716Y137D01*
X2716Y138D01*
X2716Y138D01*
X2716Y138D01*
X2717Y138D01*
X2717Y139D01*
X2718Y139D01*
X2719Y140D01*
X2720Y140D01*
X2722Y141D01*
X2723Y141D01*
X2724Y141D01*
X2724Y141D01*
X2725Y141D01*
X2725D01*
X2726Y141D01*
D02*
G37*
G36*
X2384Y141D02*
X2384Y141D01*
X2385Y141D01*
X2386Y140D01*
X2386Y140D01*
X2387Y139D01*
X2388Y138D01*
X2388Y137D01*
X2389Y136D01*
X2389Y136D01*
X2389Y135D01*
X2389Y135D01*
X2389Y135D01*
Y140D01*
X2397D01*
Y110D01*
X2389D01*
Y122D01*
X2389Y124D01*
X2389Y125D01*
X2388Y126D01*
X2388Y127D01*
X2388Y127D01*
X2388Y128D01*
X2388Y128D01*
X2388Y128D01*
X2387Y129D01*
X2387Y130D01*
X2387Y130D01*
X2386Y131D01*
X2386Y131D01*
X2386Y131D01*
X2385Y131D01*
X2385Y131D01*
X2385Y132D01*
X2384Y132D01*
X2383Y132D01*
X2383Y132D01*
X2382Y132D01*
X2381Y132D01*
X2381D01*
Y141D01*
X2382Y141D01*
X2382Y141D01*
X2383D01*
X2384Y141D01*
D02*
G37*
G36*
X2788Y112D02*
X2788Y111D01*
X2788Y110D01*
X2788Y109D01*
X2788Y108D01*
X2789Y108D01*
X2789Y108D01*
X2789Y108D01*
X2789Y107D01*
X2789Y107D01*
X2790Y107D01*
X2790Y107D01*
X2791Y107D01*
X2791Y106D01*
X2791Y106D01*
X2792D01*
X2792Y106D01*
X2793Y107D01*
X2793D01*
X2793Y107D01*
X2794D01*
Y100D01*
X2793Y99D01*
X2792Y99D01*
X2791Y99D01*
X2790Y99D01*
X2790Y99D01*
X2789D01*
X2788Y99D01*
X2787Y99D01*
X2786Y99D01*
X2785Y100D01*
X2784Y100D01*
X2784Y100D01*
X2783Y100D01*
X2783Y100D01*
X2783Y101D01*
X2782Y101D01*
X2781Y102D01*
X2781Y102D01*
X2780Y103D01*
X2780Y103D01*
X2780Y103D01*
X2780Y103D01*
X2780Y104D01*
X2779Y105D01*
X2779Y105D01*
X2779Y106D01*
X2779Y107D01*
X2779Y107D01*
Y107D01*
Y107D01*
X2779Y109D01*
Y110D01*
Y110D01*
Y111D01*
Y111D01*
Y111D01*
Y112D01*
Y140D01*
X2788D01*
Y112D01*
D02*
G37*
G36*
X3213Y213D02*
X3204D01*
Y222D01*
X3213D01*
Y213D01*
D02*
G37*
G36*
X3465Y180D02*
X3456D01*
Y197D01*
X3443D01*
Y180D01*
X3433D01*
Y221D01*
X3443D01*
Y205D01*
X3456D01*
Y221D01*
X3465D01*
Y180D01*
D02*
G37*
G36*
X2861Y141D02*
X2862Y141D01*
X2862Y141D01*
X2863Y140D01*
X2864Y140D01*
X2865Y139D01*
X2865Y139D01*
X2866Y139D01*
X2866Y138D01*
X2867Y138D01*
X2867Y137D01*
X2867Y136D01*
X2867Y136D01*
X2868Y136D01*
Y140D01*
X2876D01*
Y100D01*
X2867D01*
Y113D01*
X2867Y113D01*
X2866Y112D01*
X2866Y111D01*
X2865Y111D01*
X2864Y111D01*
X2864Y110D01*
X2863Y110D01*
X2862Y110D01*
X2861Y109D01*
X2861Y109D01*
X2860Y109D01*
X2860D01*
X2859Y109D01*
X2858Y110D01*
X2857Y110D01*
X2856Y110D01*
X2855Y111D01*
X2854Y111D01*
X2853Y112D01*
X2852Y112D01*
X2852Y113D01*
X2852Y113D01*
X2852Y113D01*
X2852Y113D01*
X2852Y113D01*
X2851Y114D01*
X2850Y115D01*
X2850Y116D01*
X2850Y117D01*
X2849Y119D01*
X2849Y121D01*
X2849Y122D01*
X2848Y123D01*
X2848Y124D01*
Y124D01*
X2848Y125D01*
Y125D01*
Y125D01*
Y126D01*
X2848Y127D01*
X2848Y128D01*
X2849Y129D01*
X2849Y131D01*
X2849Y132D01*
X2849Y132D01*
X2850Y133D01*
X2850Y134D01*
X2850Y135D01*
X2850Y135D01*
X2851Y136D01*
X2851Y136D01*
X2851Y137D01*
X2851Y137D01*
X2851Y137D01*
X2851Y137D01*
X2852Y138D01*
X2853Y138D01*
X2853Y139D01*
X2854Y139D01*
X2855Y140D01*
X2855Y140D01*
X2857Y141D01*
X2858Y141D01*
X2858Y141D01*
X2859Y141D01*
X2859Y141D01*
X2860D01*
X2861Y141D01*
D02*
G37*
G36*
X2693Y100D02*
X2687D01*
X2658Y151D01*
X2664D01*
X2693Y100D01*
D02*
G37*
G36*
X2328Y141D02*
X2329Y141D01*
X2330Y141D01*
X2330Y140D01*
X2331Y140D01*
X2332Y139D01*
X2332Y139D01*
X2333Y139D01*
X2333Y138D01*
X2334Y138D01*
X2334Y137D01*
X2334Y136D01*
X2335Y136D01*
X2335Y136D01*
Y140D01*
X2343D01*
Y100D01*
X2334D01*
Y113D01*
X2334Y113D01*
X2333Y112D01*
X2333Y111D01*
X2332Y111D01*
X2332Y111D01*
X2331Y110D01*
X2330Y110D01*
X2329Y110D01*
X2328Y109D01*
X2328Y109D01*
X2327Y109D01*
X2327D01*
X2326Y109D01*
X2325Y110D01*
X2324Y110D01*
X2324Y110D01*
X2322Y111D01*
X2321Y111D01*
X2320Y112D01*
X2320Y112D01*
X2319Y113D01*
X2319Y113D01*
X2319Y113D01*
X2319Y113D01*
X2319Y113D01*
X2318Y114D01*
X2318Y115D01*
X2317Y116D01*
X2317Y117D01*
X2316Y119D01*
X2316Y121D01*
X2316Y122D01*
X2316Y123D01*
X2315Y124D01*
Y124D01*
X2315Y125D01*
Y125D01*
Y125D01*
Y126D01*
X2315Y127D01*
X2316Y128D01*
X2316Y129D01*
X2316Y131D01*
X2316Y132D01*
X2316Y132D01*
X2317Y133D01*
X2317Y134D01*
X2317Y135D01*
X2318Y135D01*
X2318Y136D01*
X2318Y136D01*
X2318Y137D01*
X2318Y137D01*
X2319Y137D01*
X2319Y137D01*
X2319Y138D01*
X2320Y138D01*
X2321Y139D01*
X2321Y139D01*
X2322Y140D01*
X2323Y140D01*
X2324Y141D01*
X2325Y141D01*
X2325Y141D01*
X2326Y141D01*
X2326Y141D01*
X2327D01*
X2328Y141D01*
D02*
G37*
G36*
X3184Y211D02*
X3185Y211D01*
X3186Y211D01*
X3188Y210D01*
X3188Y210D01*
X3189Y210D01*
X3190Y209D01*
X3191Y209D01*
X3192Y208D01*
X3192Y208D01*
X3193Y208D01*
X3193Y207D01*
X3193Y207D01*
X3194Y207D01*
X3194Y207D01*
X3194Y207D01*
X3195Y206D01*
X3195Y205D01*
X3196Y204D01*
X3196Y203D01*
X3197Y202D01*
X3197Y201D01*
X3198Y199D01*
X3198Y198D01*
X3198Y197D01*
X3198Y197D01*
X3198Y196D01*
X3198Y196D01*
Y195D01*
Y195D01*
Y195D01*
X3198Y194D01*
X3198Y192D01*
X3198Y191D01*
X3197Y190D01*
X3197Y189D01*
X3197Y188D01*
X3196Y187D01*
X3196Y187D01*
X3196Y186D01*
X3195Y185D01*
X3195Y185D01*
X3195Y184D01*
X3194Y184D01*
X3194Y184D01*
X3194Y184D01*
X3194Y184D01*
X3193Y183D01*
X3192Y182D01*
X3192Y182D01*
X3191Y181D01*
X3190Y181D01*
X3189Y180D01*
X3187Y180D01*
X3186Y180D01*
X3186Y180D01*
X3185Y179D01*
X3185Y179D01*
X3184Y179D01*
X3184D01*
X3182Y179D01*
X3181Y179D01*
X3179Y180D01*
X3179Y180D01*
X3178Y180D01*
X3177Y181D01*
X3176Y181D01*
X3176Y181D01*
X3175Y182D01*
X3175Y182D01*
X3174Y182D01*
X3174Y182D01*
X3174Y183D01*
X3174Y183D01*
X3174Y183D01*
X3173Y183D01*
X3172Y184D01*
X3172Y185D01*
X3172Y185D01*
X3171Y187D01*
X3170Y188D01*
X3170Y190D01*
X3170Y190D01*
X3170Y190D01*
X3170Y191D01*
X3170Y191D01*
Y191D01*
Y191D01*
X3178Y192D01*
X3178Y191D01*
X3178Y190D01*
X3179Y189D01*
X3179Y189D01*
X3179Y188D01*
X3180Y188D01*
X3180Y188D01*
X3181Y187D01*
X3181Y187D01*
X3182Y187D01*
X3182D01*
X3183Y187D01*
X3183D01*
X3184Y187D01*
X3184Y187D01*
X3185Y187D01*
X3185Y187D01*
X3186Y188D01*
X3186Y188D01*
X3186Y188D01*
X3186Y188D01*
X3187Y189D01*
X3187Y189D01*
X3187Y189D01*
X3187Y190D01*
X3188Y191D01*
X3188Y193D01*
X3188Y194D01*
Y194D01*
X3188Y195D01*
Y195D01*
Y195D01*
Y195D01*
Y196D01*
X3188Y197D01*
X3188Y198D01*
X3187Y200D01*
X3187Y201D01*
X3187Y201D01*
X3186Y202D01*
X3186Y203D01*
X3185Y203D01*
X3185Y204D01*
X3184Y204D01*
X3184Y204D01*
X3184Y204D01*
X3183Y204D01*
X3183Y204D01*
X3183D01*
X3182Y204D01*
X3181Y204D01*
X3181Y204D01*
X3180Y203D01*
X3180Y203D01*
X3179Y203D01*
X3179Y202D01*
X3178Y201D01*
X3178Y200D01*
X3178Y199D01*
X3178Y199D01*
Y199D01*
Y199D01*
X3170Y199D01*
X3170Y200D01*
X3170Y201D01*
X3170Y203D01*
X3171Y204D01*
X3172Y205D01*
X3172Y206D01*
X3173Y207D01*
X3173Y207D01*
X3173Y207D01*
X3174Y208D01*
X3174Y208D01*
X3174Y208D01*
X3174Y208D01*
X3175Y209D01*
X3176Y209D01*
X3177Y210D01*
X3178Y210D01*
X3180Y211D01*
X3181Y211D01*
X3181Y211D01*
X3182Y211D01*
X3182Y211D01*
X3183D01*
X3184Y211D01*
D02*
G37*
G36*
X3252Y180D02*
X3244D01*
Y205D01*
Y205D01*
X3245Y206D01*
Y206D01*
X3245Y206D01*
Y206D01*
Y206D01*
Y207D01*
X3245Y207D01*
Y207D01*
Y208D01*
Y208D01*
Y208D01*
X3229Y180D01*
X3220D01*
Y221D01*
X3228D01*
Y200D01*
Y199D01*
X3228Y199D01*
X3228Y198D01*
Y197D01*
X3228Y197D01*
Y197D01*
Y197D01*
X3242Y221D01*
X3252D01*
Y180D01*
D02*
G37*
G36*
X3299D02*
X3290D01*
X3283Y207D01*
X3276Y180D01*
X3267D01*
X3257Y221D01*
X3265D01*
X3270Y196D01*
X3270Y195D01*
X3271Y195D01*
X3271Y194D01*
X3271Y194D01*
X3271Y194D01*
Y194D01*
X3271Y193D01*
Y193D01*
X3278Y221D01*
X3287D01*
X3293Y193D01*
X3294Y194D01*
X3294Y194D01*
X3294Y195D01*
Y195D01*
X3294Y195D01*
X3294Y195D01*
X3294Y196D01*
Y196D01*
X3294Y196D01*
Y196D01*
X3300Y221D01*
X3310D01*
X3299Y180D01*
D02*
G37*
G36*
X3418D02*
X3419Y179D01*
X3419Y179D01*
X3419Y178D01*
X3419Y178D01*
X3419Y178D01*
X3420Y177D01*
X3420Y177D01*
X3420Y177D01*
X3420Y177D01*
X3421Y177D01*
X3421Y177D01*
X3422Y176D01*
X3422Y176D01*
X3423Y176D01*
X3423D01*
X3425Y176D01*
X3426Y176D01*
X3426Y176D01*
X3427Y177D01*
X3427Y177D01*
X3427Y177D01*
X3428D01*
Y170D01*
X3427Y170D01*
X3426Y170D01*
X3425Y169D01*
X3425D01*
X3424Y169D01*
X3423D01*
X3422Y169D01*
X3421Y170D01*
X3420Y170D01*
X3419Y170D01*
X3418Y170D01*
X3418Y171D01*
X3418Y171D01*
X3417Y171D01*
X3417Y171D01*
X3416Y172D01*
X3415Y172D01*
X3415Y173D01*
X3415Y173D01*
X3414Y174D01*
X3414Y174D01*
X3414Y174D01*
X3414Y175D01*
X3413Y176D01*
X3413Y177D01*
X3412Y179D01*
X3412Y180D01*
X3412Y180D01*
X3412Y180D01*
X3412Y181D01*
X3412Y181D01*
X3411Y181D01*
Y181D01*
X3402Y210D01*
X3408D01*
X3414Y192D01*
X3420Y210D01*
X3429D01*
X3418Y180D01*
D02*
G37*
G36*
X2711Y211D02*
X2712Y211D01*
X2714Y210D01*
X2715Y210D01*
X2716Y210D01*
X2716Y210D01*
X2717Y209D01*
X2717Y209D01*
X2718Y209D01*
X2718Y209D01*
X2718Y209D01*
X2718D01*
X2719Y208D01*
X2719Y208D01*
X2720Y207D01*
X2720Y207D01*
X2721Y206D01*
X2722Y204D01*
X2722Y203D01*
X2723Y203D01*
X2723Y202D01*
X2723Y202D01*
X2723Y202D01*
X2723Y202D01*
Y202D01*
X2715Y201D01*
X2714Y202D01*
X2714Y202D01*
X2714Y203D01*
X2714Y203D01*
X2713Y204D01*
X2713Y204D01*
X2712Y205D01*
X2711Y205D01*
X2710Y205D01*
X2710Y205D01*
X2709D01*
X2709Y205D01*
X2708Y205D01*
X2707Y205D01*
X2707Y204D01*
X2706Y204D01*
X2706Y204D01*
X2706Y203D01*
X2705Y203D01*
X2705Y202D01*
X2705Y201D01*
X2705Y201D01*
Y201D01*
Y201D01*
Y201D01*
Y199D01*
X2707Y199D01*
X2708Y199D01*
X2709Y199D01*
X2711Y198D01*
X2712Y198D01*
X2713Y198D01*
X2714Y198D01*
X2714Y198D01*
X2715Y197D01*
X2716Y197D01*
X2716Y197D01*
X2717Y197D01*
X2717Y197D01*
X2717Y197D01*
X2717Y197D01*
X2717D01*
X2719Y196D01*
X2720Y196D01*
X2720Y195D01*
X2721Y195D01*
X2722Y194D01*
X2722Y194D01*
X2722Y193D01*
X2722Y193D01*
X2723Y192D01*
X2723Y191D01*
X2723Y190D01*
X2724Y190D01*
X2724Y189D01*
X2724Y188D01*
Y188D01*
Y188D01*
Y188D01*
X2724Y186D01*
X2723Y185D01*
X2723Y184D01*
X2722Y183D01*
X2722Y183D01*
X2722Y182D01*
X2721Y182D01*
X2721Y182D01*
X2720Y181D01*
X2719Y180D01*
X2718Y180D01*
X2717Y180D01*
X2716Y179D01*
X2715Y179D01*
X2715D01*
X2715Y179D01*
X2714D01*
X2713Y179D01*
X2712Y180D01*
X2711Y180D01*
X2711Y180D01*
X2710Y180D01*
X2709Y180D01*
X2709Y180D01*
X2709Y180D01*
X2708Y181D01*
X2707Y181D01*
X2707Y182D01*
X2706Y183D01*
X2705Y184D01*
X2705Y184D01*
X2705Y185D01*
X2705Y185D01*
Y184D01*
X2704Y183D01*
X2704Y182D01*
X2704Y181D01*
X2704Y181D01*
X2704Y180D01*
X2704Y180D01*
Y180D01*
X2695D01*
X2696Y181D01*
X2696Y182D01*
X2696Y183D01*
X2696Y183D01*
X2696Y184D01*
Y185D01*
Y185D01*
Y185D01*
Y186D01*
Y186D01*
Y199D01*
Y201D01*
X2696Y202D01*
X2696Y203D01*
X2696Y204D01*
X2696Y204D01*
X2696Y205D01*
X2696Y205D01*
Y205D01*
X2697Y206D01*
X2697Y206D01*
X2697Y207D01*
X2698Y207D01*
X2698Y208D01*
X2698Y208D01*
X2698Y208D01*
X2699Y208D01*
X2699Y209D01*
X2700Y209D01*
X2701Y209D01*
X2701Y210D01*
X2702Y210D01*
X2702Y210D01*
X2703Y210D01*
X2703D01*
X2704Y211D01*
X2705Y211D01*
X2706Y211D01*
X2707Y211D01*
X2708D01*
X2708Y211D01*
X2709D01*
X2711Y211D01*
D02*
G37*
G36*
X2536Y222D02*
X2538Y221D01*
X2539Y221D01*
X2540Y221D01*
X2542Y220D01*
X2543Y220D01*
X2544Y219D01*
X2545Y219D01*
X2545Y218D01*
X2546Y218D01*
X2547Y217D01*
X2547Y217D01*
X2548Y216D01*
X2548Y216D01*
X2548Y216D01*
X2548Y216D01*
X2549Y215D01*
X2550Y213D01*
X2550Y212D01*
X2551Y211D01*
X2551Y210D01*
X2552Y208D01*
X2552Y207D01*
X2552Y206D01*
X2553Y205D01*
X2553Y204D01*
X2553Y203D01*
X2553Y202D01*
Y201D01*
X2553Y201D01*
Y201D01*
Y201D01*
X2553Y199D01*
X2553Y197D01*
X2553Y195D01*
X2552Y194D01*
X2552Y193D01*
X2551Y191D01*
X2551Y190D01*
X2551Y189D01*
X2550Y188D01*
X2550Y187D01*
X2549Y187D01*
X2549Y186D01*
X2548Y186D01*
X2548Y185D01*
X2548Y185D01*
X2548Y185D01*
X2547Y184D01*
X2546Y183D01*
X2545Y182D01*
X2544Y182D01*
X2543Y181D01*
X2542Y181D01*
X2540Y180D01*
X2539Y180D01*
X2538Y180D01*
X2538Y180D01*
X2537Y180D01*
X2536Y179D01*
X2536D01*
X2535Y179D01*
X2535D01*
X2533Y179D01*
X2532Y180D01*
X2531Y180D01*
X2530Y180D01*
X2529Y180D01*
X2528Y181D01*
X2527Y181D01*
X2527Y181D01*
X2526Y182D01*
X2525Y182D01*
X2525Y182D01*
X2524Y183D01*
X2524Y183D01*
X2524Y183D01*
X2524Y183D01*
X2523Y183D01*
X2523Y184D01*
X2522Y185D01*
X2521Y186D01*
X2521Y187D01*
X2520Y187D01*
X2520Y188D01*
X2519Y190D01*
X2519Y191D01*
X2518Y192D01*
X2518Y193D01*
X2518Y193D01*
X2518Y194D01*
X2518Y194D01*
X2518Y194D01*
Y194D01*
X2527Y195D01*
X2528Y194D01*
X2528Y192D01*
X2528Y191D01*
X2529Y190D01*
X2530Y190D01*
X2530Y189D01*
X2531Y189D01*
X2531Y188D01*
X2532Y188D01*
X2533Y188D01*
X2533Y187D01*
X2534Y187D01*
X2534Y187D01*
X2534Y187D01*
X2535D01*
X2536Y187D01*
X2537Y188D01*
X2538Y188D01*
X2539Y189D01*
X2540Y189D01*
X2540Y189D01*
X2540Y190D01*
X2540Y190D01*
X2541Y190D01*
X2541Y191D01*
X2541Y192D01*
X2542Y193D01*
X2542Y194D01*
X2542Y196D01*
X2542Y197D01*
X2542Y198D01*
X2542Y199D01*
Y199D01*
X2542Y200D01*
Y200D01*
Y200D01*
Y200D01*
Y202D01*
X2542Y203D01*
X2542Y204D01*
X2542Y205D01*
X2542Y206D01*
X2542Y207D01*
X2541Y208D01*
X2541Y209D01*
X2540Y211D01*
X2539Y211D01*
X2539Y212D01*
X2538Y213D01*
X2537Y213D01*
X2537Y214D01*
X2536Y214D01*
X2536Y214D01*
X2535Y214D01*
X2535D01*
X2534Y214D01*
X2533Y214D01*
X2532Y213D01*
X2531Y213D01*
X2530Y212D01*
X2530Y211D01*
X2529Y210D01*
X2529Y210D01*
X2529Y209D01*
X2529Y208D01*
X2528Y207D01*
X2528Y207D01*
X2528Y206D01*
X2528Y206D01*
Y205D01*
Y205D01*
X2518Y206D01*
X2518Y207D01*
X2518Y209D01*
X2519Y210D01*
X2519Y211D01*
X2520Y212D01*
X2520Y213D01*
X2521Y214D01*
X2521Y215D01*
X2522Y216D01*
X2523Y217D01*
X2524Y218D01*
X2526Y219D01*
X2527Y220D01*
X2528Y220D01*
X2530Y221D01*
X2531Y221D01*
X2532Y221D01*
X2533Y222D01*
X2534Y222D01*
X2534Y222D01*
X2535D01*
X2536Y222D01*
D02*
G37*
G36*
X2747D02*
X2748Y221D01*
X2750Y221D01*
X2751Y221D01*
X2752Y220D01*
X2753Y220D01*
X2754Y219D01*
X2755Y219D01*
X2756Y218D01*
X2756Y218D01*
X2757Y217D01*
X2757Y217D01*
X2758Y216D01*
X2758Y216D01*
X2758Y216D01*
X2758Y216D01*
X2759Y215D01*
X2760Y213D01*
X2761Y212D01*
X2761Y211D01*
X2762Y209D01*
X2762Y208D01*
X2762Y207D01*
X2763Y206D01*
X2763Y204D01*
X2763Y203D01*
X2763Y202D01*
X2763Y202D01*
Y201D01*
X2763Y200D01*
Y200D01*
Y200D01*
X2763Y198D01*
X2763Y197D01*
X2763Y195D01*
X2762Y194D01*
X2762Y192D01*
X2762Y191D01*
X2761Y190D01*
X2761Y189D01*
X2760Y188D01*
X2760Y187D01*
X2760Y187D01*
X2759Y186D01*
X2759Y186D01*
X2759Y185D01*
X2759Y185D01*
X2759Y185D01*
X2758Y184D01*
X2757Y183D01*
X2756Y182D01*
X2755Y182D01*
X2754Y181D01*
X2753Y181D01*
X2752Y180D01*
X2751Y180D01*
X2750Y180D01*
X2749Y180D01*
X2748Y180D01*
X2747Y179D01*
X2747D01*
X2746Y179D01*
X2746D01*
X2745Y179D01*
X2744Y180D01*
X2743Y180D01*
X2742Y180D01*
X2740Y181D01*
X2740Y181D01*
X2739Y181D01*
X2738Y182D01*
X2737Y183D01*
X2737Y183D01*
X2736Y183D01*
X2736Y184D01*
X2735Y184D01*
X2735Y184D01*
X2735Y185D01*
X2735Y185D01*
X2734Y183D01*
X2734Y182D01*
X2734Y181D01*
X2734Y181D01*
X2734Y180D01*
X2733Y180D01*
Y180D01*
X2729D01*
Y202D01*
X2746D01*
Y194D01*
X2738D01*
X2738Y193D01*
X2739Y192D01*
X2739Y191D01*
X2739Y190D01*
X2740Y190D01*
X2740Y189D01*
X2740Y189D01*
X2740Y189D01*
X2741Y188D01*
X2742Y188D01*
X2743Y188D01*
X2743Y187D01*
X2744Y187D01*
X2744Y187D01*
X2745D01*
X2746Y187D01*
X2746Y187D01*
X2748Y188D01*
X2749Y188D01*
X2749Y189D01*
X2750Y189D01*
X2751Y190D01*
X2751Y190D01*
X2751Y190D01*
Y190D01*
X2751Y191D01*
X2752Y192D01*
X2752Y193D01*
X2753Y195D01*
X2753Y197D01*
X2753Y197D01*
X2753Y198D01*
X2753Y199D01*
Y199D01*
X2753Y200D01*
Y200D01*
Y200D01*
Y200D01*
Y201D01*
X2753Y203D01*
X2753Y204D01*
X2753Y205D01*
X2753Y205D01*
X2753Y206D01*
X2752Y207D01*
X2752Y208D01*
X2752Y208D01*
X2752Y209D01*
X2752Y209D01*
X2752Y210D01*
X2751Y210D01*
X2751Y210D01*
X2751Y210D01*
Y210D01*
X2751Y211D01*
X2750Y211D01*
X2750Y212D01*
X2750Y212D01*
X2749Y213D01*
X2748Y213D01*
X2747Y214D01*
X2746Y214D01*
X2746Y214D01*
X2745D01*
X2744Y214D01*
X2743Y214D01*
X2742Y213D01*
X2742Y213D01*
X2741Y212D01*
X2740Y211D01*
X2740Y211D01*
X2739Y210D01*
X2739Y209D01*
X2739Y209D01*
X2739Y208D01*
X2738Y208D01*
X2738Y207D01*
X2738Y207D01*
X2738Y206D01*
Y206D01*
X2729Y208D01*
X2729Y209D01*
X2730Y210D01*
X2730Y211D01*
X2730Y212D01*
X2731Y213D01*
X2731Y214D01*
X2732Y214D01*
X2732Y215D01*
X2732Y216D01*
X2733Y216D01*
X2733Y217D01*
X2734Y217D01*
X2734Y217D01*
X2734Y218D01*
X2734Y218D01*
X2734Y218D01*
X2735Y219D01*
X2736Y219D01*
X2737Y220D01*
X2738Y220D01*
X2739Y221D01*
X2740Y221D01*
X2741Y221D01*
X2742Y221D01*
X2743Y222D01*
X2744Y222D01*
X2744Y222D01*
X2745Y222D01*
X2745D01*
X2747Y222D01*
D02*
G37*
G36*
X3051Y137D02*
X3051Y138D01*
X3052Y138D01*
X3053Y139D01*
X3053Y139D01*
X3054Y140D01*
X3055Y140D01*
X3056Y141D01*
X3057Y141D01*
X3057Y141D01*
X3058Y141D01*
X3058Y141D01*
X3058D01*
X3059Y141D01*
X3060Y141D01*
X3061Y141D01*
X3062Y140D01*
X3064Y140D01*
X3065Y139D01*
X3065Y138D01*
X3066Y138D01*
X3066Y138D01*
X3066Y137D01*
X3067Y137D01*
X3067Y137D01*
X3067Y137D01*
X3067Y137D01*
X3067Y136D01*
X3068Y135D01*
X3069Y133D01*
X3069Y131D01*
X3069Y129D01*
X3070Y128D01*
X3070Y127D01*
X3070Y127D01*
Y126D01*
X3070Y126D01*
Y125D01*
Y125D01*
Y125D01*
X3070Y123D01*
X3070Y122D01*
X3070Y121D01*
X3069Y120D01*
X3069Y119D01*
X3069Y118D01*
X3069Y117D01*
X3068Y116D01*
X3068Y116D01*
X3068Y115D01*
X3068Y115D01*
X3067Y114D01*
X3067Y114D01*
X3067Y114D01*
X3067Y113D01*
Y113D01*
X3066Y113D01*
X3066Y112D01*
X3065Y112D01*
X3065Y111D01*
X3064Y111D01*
X3063Y110D01*
X3062Y110D01*
X3061Y110D01*
X3060Y109D01*
X3060Y109D01*
X3059Y109D01*
X3059D01*
X3058Y109D01*
X3057Y110D01*
X3056Y110D01*
X3055Y110D01*
X3054Y111D01*
X3053Y112D01*
X3052Y113D01*
X3052Y113D01*
X3051Y113D01*
X3051Y114D01*
X3051Y114D01*
X3051Y114D01*
X3051Y115D01*
X3051Y115D01*
Y110D01*
X3042D01*
Y151D01*
X3051D01*
Y137D01*
D02*
G37*
G36*
X2931Y141D02*
X2932Y141D01*
X2934Y140D01*
X2935Y140D01*
X2936Y140D01*
X2936Y139D01*
X2937Y139D01*
X2937Y139D01*
X2937Y139D01*
X2937D01*
X2938Y138D01*
X2939Y137D01*
X2940Y136D01*
X2941Y135D01*
X2941Y135D01*
X2941Y134D01*
X2942Y134D01*
X2942Y134D01*
X2942Y134D01*
Y133D01*
X2942Y132D01*
X2943Y131D01*
X2943Y129D01*
X2943Y128D01*
X2943Y127D01*
Y126D01*
X2944Y126D01*
Y126D01*
Y125D01*
Y125D01*
Y125D01*
X2943Y124D01*
X2943Y123D01*
X2943Y122D01*
X2943Y120D01*
X2943Y119D01*
X2942Y119D01*
X2942Y118D01*
X2942Y117D01*
X2941Y116D01*
X2941Y116D01*
X2941Y115D01*
X2940Y115D01*
X2940Y114D01*
X2940Y114D01*
X2940Y114D01*
X2940Y114D01*
X2939Y113D01*
X2938Y112D01*
X2937Y112D01*
X2936Y111D01*
X2935Y111D01*
X2935Y110D01*
X2933Y110D01*
X2932Y110D01*
X2932Y110D01*
X2931Y109D01*
X2930Y109D01*
X2930Y109D01*
X2929D01*
X2928Y109D01*
X2927Y110D01*
X2926Y110D01*
X2925Y110D01*
X2924Y110D01*
X2923Y111D01*
X2922Y111D01*
X2921Y112D01*
X2921Y112D01*
X2920Y112D01*
X2920Y113D01*
X2919Y113D01*
X2919Y113D01*
X2919Y114D01*
X2919Y114D01*
X2919Y114D01*
X2918Y115D01*
X2917Y116D01*
X2917Y117D01*
X2916Y117D01*
X2916Y118D01*
X2915Y119D01*
X2915Y121D01*
X2915Y122D01*
X2915Y123D01*
X2915Y123D01*
X2915Y124D01*
X2914Y124D01*
Y125D01*
Y125D01*
Y125D01*
X2915Y126D01*
X2915Y128D01*
X2915Y129D01*
X2915Y130D01*
X2915Y131D01*
X2916Y132D01*
X2916Y133D01*
X2916Y133D01*
X2917Y134D01*
X2917Y135D01*
X2917Y135D01*
X2918Y136D01*
X2918Y136D01*
X2918Y136D01*
X2918Y136D01*
X2918Y136D01*
X2919Y137D01*
X2920Y138D01*
X2921Y139D01*
X2922Y139D01*
X2923Y140D01*
X2924Y140D01*
X2924Y140D01*
X2925Y140D01*
X2926Y141D01*
X2927Y141D01*
X2927Y141D01*
X2928Y141D01*
X2929Y141D01*
X2929D01*
X2931Y141D01*
D02*
G37*
G36*
X2810D02*
X2812Y141D01*
X2813Y140D01*
X2814Y140D01*
X2815Y140D01*
X2816Y139D01*
X2816Y139D01*
X2816Y139D01*
X2816Y139D01*
X2816D01*
X2817Y138D01*
X2818Y137D01*
X2819Y136D01*
X2820Y135D01*
X2820Y135D01*
X2821Y134D01*
X2821Y134D01*
X2821Y134D01*
X2821Y134D01*
Y133D01*
X2822Y132D01*
X2822Y131D01*
X2822Y129D01*
X2823Y128D01*
X2823Y127D01*
Y126D01*
X2823Y126D01*
Y126D01*
Y125D01*
Y125D01*
Y125D01*
X2823Y124D01*
X2823Y123D01*
X2822Y122D01*
X2822Y120D01*
X2822Y119D01*
X2822Y119D01*
X2821Y118D01*
X2821Y117D01*
X2820Y116D01*
X2820Y116D01*
X2820Y115D01*
X2820Y115D01*
X2819Y114D01*
X2819Y114D01*
X2819Y114D01*
X2819Y114D01*
X2818Y113D01*
X2817Y112D01*
X2817Y112D01*
X2816Y111D01*
X2815Y111D01*
X2814Y110D01*
X2812Y110D01*
X2812Y110D01*
X2811Y110D01*
X2810Y109D01*
X2810Y109D01*
X2809Y109D01*
X2809D01*
X2807Y109D01*
X2806Y110D01*
X2805Y110D01*
X2804Y110D01*
X2803Y110D01*
X2802Y111D01*
X2801Y111D01*
X2801Y112D01*
X2800Y112D01*
X2799Y112D01*
X2799Y113D01*
X2799Y113D01*
X2798Y113D01*
X2798Y114D01*
X2798Y114D01*
X2798Y114D01*
X2797Y115D01*
X2796Y116D01*
X2796Y117D01*
X2795Y117D01*
X2795Y118D01*
X2795Y119D01*
X2794Y121D01*
X2794Y122D01*
X2794Y123D01*
X2794Y123D01*
X2794Y124D01*
X2794Y124D01*
Y125D01*
Y125D01*
Y125D01*
X2794Y126D01*
X2794Y128D01*
X2794Y129D01*
X2794Y130D01*
X2795Y131D01*
X2795Y132D01*
X2795Y133D01*
X2796Y133D01*
X2796Y134D01*
X2796Y135D01*
X2797Y135D01*
X2797Y136D01*
X2797Y136D01*
X2797Y136D01*
X2798Y136D01*
X2798Y136D01*
X2798Y137D01*
X2799Y138D01*
X2800Y139D01*
X2801Y139D01*
X2802Y140D01*
X2803Y140D01*
X2804Y140D01*
X2805Y140D01*
X2805Y141D01*
X2806Y141D01*
X2807Y141D01*
X2807Y141D01*
X2808Y141D01*
X2808D01*
X2810Y141D01*
D02*
G37*
G36*
X2249D02*
X2250Y141D01*
X2251Y141D01*
X2251Y141D01*
X2252Y140D01*
X2252Y140D01*
X2253Y140D01*
X2253Y140D01*
X2253Y139D01*
X2254Y139D01*
X2255Y138D01*
X2255Y137D01*
X2256Y137D01*
X2256Y136D01*
X2257Y136D01*
X2257Y135D01*
X2257Y135D01*
Y140D01*
X2265D01*
Y110D01*
X2256D01*
Y127D01*
X2256Y128D01*
X2256Y129D01*
X2256Y130D01*
X2255Y131D01*
X2255Y132D01*
X2255Y132D01*
X2254Y133D01*
X2254Y133D01*
X2253Y133D01*
X2253Y134D01*
X2252Y134D01*
X2252Y134D01*
X2252Y134D01*
X2251D01*
X2251Y134D01*
X2250Y134D01*
X2250Y134D01*
X2250Y134D01*
X2250Y133D01*
X2249Y133D01*
X2249Y133D01*
X2249Y133D01*
X2249Y133D01*
X2248Y132D01*
X2248Y132D01*
X2248Y131D01*
X2248Y131D01*
Y131D01*
X2248Y131D01*
X2248Y130D01*
X2248Y129D01*
X2248Y129D01*
Y128D01*
Y128D01*
Y127D01*
Y127D01*
Y127D01*
Y110D01*
X2239D01*
Y130D01*
Y131D01*
X2239Y132D01*
X2239Y133D01*
X2239Y134D01*
X2239Y135D01*
X2240Y135D01*
X2240Y136D01*
X2240Y137D01*
X2240Y137D01*
X2241Y138D01*
X2241Y138D01*
X2241Y138D01*
X2241Y138D01*
X2241Y139D01*
X2241Y139D01*
X2242Y139D01*
X2244Y140D01*
X2245Y140D01*
X2246Y141D01*
X2247Y141D01*
X2247Y141D01*
X2248D01*
X2248Y141D01*
X2248D01*
X2249Y141D01*
D02*
G37*
G36*
X2231Y110D02*
X2222D01*
Y140D01*
X2231D01*
Y110D01*
D02*
G37*
G36*
X3336Y141D02*
X3337Y141D01*
X3338Y141D01*
X3339Y140D01*
X3340Y140D01*
X3340Y140D01*
X3341Y140D01*
X3342Y139D01*
X3342Y139D01*
X3343Y139D01*
X3343Y139D01*
X3343Y138D01*
X3343Y138D01*
X3343Y138D01*
X3344Y138D01*
X3344Y138D01*
X3345Y137D01*
X3345Y136D01*
X3345Y136D01*
X3346Y135D01*
X3346Y134D01*
X3347Y133D01*
X3347Y132D01*
X3347Y132D01*
X3347Y131D01*
Y131D01*
Y131D01*
Y131D01*
X3347Y130D01*
X3347Y130D01*
X3346Y128D01*
X3346Y127D01*
X3345Y126D01*
X3345Y125D01*
X3345Y125D01*
X3344Y124D01*
X3344Y124D01*
X3343Y124D01*
X3343Y123D01*
X3342Y123D01*
X3341Y123D01*
X3339Y122D01*
X3337Y122D01*
X3336Y121D01*
X3335Y121D01*
X3334Y121D01*
X3333Y121D01*
X3333Y121D01*
X3332Y121D01*
X3332Y121D01*
X3332D01*
X3331Y121D01*
X3331Y121D01*
X3330Y120D01*
X3330Y120D01*
X3329Y120D01*
X3329Y119D01*
X3329Y119D01*
X3329Y119D01*
X3329Y118D01*
Y118D01*
X3329Y118D01*
X3329Y117D01*
X3329Y117D01*
X3329Y117D01*
X3330Y116D01*
X3330Y116D01*
X3330Y116D01*
X3330Y116D01*
X3331Y116D01*
X3331Y116D01*
X3332Y116D01*
X3333Y116D01*
X3333Y115D01*
X3333Y115D01*
X3334D01*
X3335Y115D01*
X3336Y116D01*
X3337Y116D01*
X3337Y116D01*
X3338Y116D01*
X3338Y117D01*
X3339Y117D01*
X3339Y117D01*
X3340Y118D01*
X3340Y118D01*
X3340Y119D01*
X3340Y119D01*
X3340Y119D01*
X3341Y119D01*
Y119D01*
X3348Y118D01*
X3348Y117D01*
X3347Y115D01*
X3346Y114D01*
X3345Y113D01*
X3344Y112D01*
X3343Y112D01*
X3342Y111D01*
X3340Y110D01*
X3339Y110D01*
X3338Y110D01*
X3337Y110D01*
X3336Y109D01*
X3335Y109D01*
X3335Y109D01*
X3334D01*
X3333Y109D01*
X3332Y109D01*
X3331Y110D01*
X3330Y110D01*
X3329Y110D01*
X3328Y110D01*
X3328Y111D01*
X3327Y111D01*
X3326Y111D01*
X3326Y111D01*
X3325Y112D01*
X3325Y112D01*
X3325Y112D01*
X3324Y112D01*
X3324Y112D01*
X3324D01*
X3324Y113D01*
X3323Y113D01*
X3323Y114D01*
X3322Y115D01*
X3322Y116D01*
X3321Y117D01*
X3321Y118D01*
X3321Y119D01*
X3321Y119D01*
X3321Y119D01*
Y120D01*
Y120D01*
Y120D01*
X3321Y121D01*
X3321Y122D01*
X3321Y123D01*
X3321Y124D01*
X3322Y124D01*
X3322Y125D01*
X3322Y125D01*
X3322Y125D01*
X3323Y126D01*
X3323Y127D01*
X3324Y127D01*
X3325Y127D01*
X3325Y128D01*
X3326Y128D01*
X3326Y128D01*
X3326Y128D01*
X3327Y129D01*
X3328Y129D01*
X3330Y129D01*
X3331Y129D01*
X3332Y130D01*
X3333Y130D01*
X3333Y130D01*
X3333Y130D01*
X3334Y130D01*
X3334D01*
X3335Y130D01*
X3336Y130D01*
X3337Y130D01*
X3337Y131D01*
X3338Y131D01*
X3338Y131D01*
X3338Y131D01*
X3338D01*
X3338Y131D01*
X3339Y131D01*
X3339Y132D01*
X3339Y132D01*
X3339Y132D01*
Y133D01*
Y133D01*
X3339Y133D01*
X3339Y134D01*
X3339Y134D01*
X3338Y134D01*
X3338Y135D01*
X3337Y135D01*
X3336Y135D01*
X3335Y135D01*
X3335Y135D01*
X3334D01*
X3334Y135D01*
X3333Y135D01*
X3332Y135D01*
X3331Y135D01*
X3331Y134D01*
X3330Y134D01*
X3330Y133D01*
X3329Y133D01*
X3329Y132D01*
X3329Y132D01*
X3329Y132D01*
X3329Y131D01*
Y131D01*
X3322Y133D01*
X3323Y134D01*
X3323Y136D01*
X3324Y137D01*
X3325Y138D01*
X3325Y138D01*
X3326Y139D01*
X3326Y139D01*
X3326Y139D01*
X3326D01*
X3328Y140D01*
X3329Y140D01*
X3330Y141D01*
X3331Y141D01*
X3332Y141D01*
X3333Y141D01*
X3333Y141D01*
X3335D01*
X3336Y141D01*
D02*
G37*
G36*
X2413Y137D02*
X2414Y138D01*
X2415Y138D01*
X2415Y139D01*
X2416Y139D01*
X2416Y140D01*
X2417Y140D01*
X2418Y141D01*
X2419Y141D01*
X2420Y141D01*
X2420Y141D01*
X2421Y141D01*
X2421D01*
X2422Y141D01*
X2423Y141D01*
X2424Y141D01*
X2425Y140D01*
X2426Y140D01*
X2427Y139D01*
X2428Y138D01*
X2428Y138D01*
X2429Y138D01*
X2429Y137D01*
X2429Y137D01*
X2429Y137D01*
X2429Y137D01*
X2429Y137D01*
X2430Y136D01*
X2430Y135D01*
X2431Y133D01*
X2432Y131D01*
X2432Y129D01*
X2432Y128D01*
X2432Y127D01*
X2432Y127D01*
Y126D01*
X2432Y126D01*
Y125D01*
Y125D01*
Y125D01*
X2432Y123D01*
X2432Y122D01*
X2432Y121D01*
X2432Y120D01*
X2432Y119D01*
X2431Y118D01*
X2431Y117D01*
X2431Y116D01*
X2431Y116D01*
X2430Y115D01*
X2430Y115D01*
X2430Y114D01*
X2430Y114D01*
X2430Y114D01*
X2429Y113D01*
Y113D01*
X2429Y113D01*
X2428Y112D01*
X2428Y112D01*
X2427Y111D01*
X2426Y111D01*
X2426Y110D01*
X2424Y110D01*
X2423Y110D01*
X2423Y109D01*
X2422Y109D01*
X2422Y109D01*
X2422D01*
X2421Y109D01*
X2420Y110D01*
X2419Y110D01*
X2418Y110D01*
X2417Y111D01*
X2415Y112D01*
X2415Y113D01*
X2414Y113D01*
X2414Y113D01*
X2414Y114D01*
X2413Y114D01*
X2413Y114D01*
X2413Y115D01*
X2413Y115D01*
Y110D01*
X2405D01*
Y151D01*
X2413D01*
Y137D01*
D02*
G37*
G36*
X3307Y100D02*
X3301D01*
X3272Y151D01*
X3278D01*
X3307Y100D01*
D02*
G37*
G36*
X3274D02*
X3268D01*
X3239Y151D01*
X3245D01*
X3274Y100D01*
D02*
G37*
G36*
X2917D02*
X2910D01*
X2881Y151D01*
X2887D01*
X2917Y100D01*
D02*
G37*
G36*
X2365Y141D02*
X2367Y141D01*
X2368Y140D01*
X2369Y140D01*
X2370Y140D01*
X2371Y139D01*
X2371Y139D01*
X2371Y139D01*
X2371Y139D01*
X2371D01*
X2372Y138D01*
X2373Y137D01*
X2374Y136D01*
X2375Y135D01*
X2375Y135D01*
X2376Y134D01*
X2376Y134D01*
X2376Y134D01*
X2376Y134D01*
Y133D01*
X2377Y132D01*
X2377Y131D01*
X2377Y129D01*
X2378Y128D01*
X2378Y127D01*
Y126D01*
X2378Y126D01*
Y126D01*
Y125D01*
Y125D01*
Y125D01*
X2378Y124D01*
X2378Y123D01*
X2377Y122D01*
X2377Y120D01*
X2377Y119D01*
X2376Y119D01*
X2376Y118D01*
X2376Y117D01*
X2375Y116D01*
X2375Y116D01*
X2375Y115D01*
X2374Y115D01*
X2374Y114D01*
X2374Y114D01*
X2374Y114D01*
X2374Y114D01*
X2373Y113D01*
X2372Y112D01*
X2371Y112D01*
X2371Y111D01*
X2370Y111D01*
X2369Y110D01*
X2367Y110D01*
X2366Y110D01*
X2366Y110D01*
X2365Y109D01*
X2365Y109D01*
X2364Y109D01*
X2363D01*
X2362Y109D01*
X2361Y110D01*
X2360Y110D01*
X2359Y110D01*
X2358Y110D01*
X2357Y111D01*
X2356Y111D01*
X2356Y112D01*
X2355Y112D01*
X2354Y112D01*
X2354Y113D01*
X2353Y113D01*
X2353Y113D01*
X2353Y114D01*
X2353Y114D01*
X2353Y114D01*
X2352Y115D01*
X2351Y116D01*
X2351Y117D01*
X2350Y117D01*
X2350Y118D01*
X2350Y119D01*
X2349Y121D01*
X2349Y122D01*
X2349Y123D01*
X2349Y123D01*
X2349Y124D01*
X2349Y124D01*
Y125D01*
Y125D01*
Y125D01*
X2349Y126D01*
X2349Y128D01*
X2349Y129D01*
X2349Y130D01*
X2350Y131D01*
X2350Y132D01*
X2350Y133D01*
X2351Y133D01*
X2351Y134D01*
X2351Y135D01*
X2352Y135D01*
X2352Y136D01*
X2352Y136D01*
X2352Y136D01*
X2352Y136D01*
X2353Y136D01*
X2353Y137D01*
X2354Y138D01*
X2355Y139D01*
X2356Y139D01*
X2357Y140D01*
X2358Y140D01*
X2359Y140D01*
X2359Y140D01*
X2360Y141D01*
X2361Y141D01*
X2362Y141D01*
X2362Y141D01*
X2363Y141D01*
X2363D01*
X2365Y141D01*
D02*
G37*
G36*
X2175Y141D02*
X2176Y141D01*
X2177Y141D01*
X2178Y140D01*
X2179Y140D01*
X2179Y140D01*
X2180Y140D01*
X2180Y139D01*
X2181Y139D01*
X2181Y139D01*
X2182Y139D01*
X2182Y138D01*
X2182Y138D01*
X2182Y138D01*
X2182Y138D01*
X2183Y138D01*
X2183Y137D01*
X2184Y136D01*
X2184Y136D01*
X2185Y135D01*
X2185Y134D01*
X2185Y133D01*
X2186Y132D01*
X2186Y132D01*
X2186Y131D01*
Y131D01*
Y131D01*
Y131D01*
X2186Y130D01*
X2186Y130D01*
X2185Y128D01*
X2185Y127D01*
X2184Y126D01*
X2184Y125D01*
X2183Y125D01*
X2183Y124D01*
X2183Y124D01*
X2182Y124D01*
X2181Y123D01*
X2181Y123D01*
X2180Y123D01*
X2178Y122D01*
X2176Y122D01*
X2175Y121D01*
X2174Y121D01*
X2173Y121D01*
X2172Y121D01*
X2172Y121D01*
X2171Y121D01*
X2171Y121D01*
X2171D01*
X2170Y121D01*
X2170Y121D01*
X2169Y120D01*
X2169Y120D01*
X2168Y120D01*
X2168Y119D01*
X2167Y119D01*
X2167Y119D01*
X2167Y118D01*
Y118D01*
X2167Y118D01*
X2167Y117D01*
X2168Y117D01*
X2168Y117D01*
X2168Y116D01*
X2169Y116D01*
X2169Y116D01*
X2169Y116D01*
X2169Y116D01*
X2170Y116D01*
X2171Y116D01*
X2171Y116D01*
X2172Y115D01*
X2172Y115D01*
X2173D01*
X2174Y115D01*
X2174Y116D01*
X2175Y116D01*
X2176Y116D01*
X2177Y116D01*
X2177Y117D01*
X2178Y117D01*
X2178Y117D01*
X2178Y118D01*
X2179Y118D01*
X2179Y119D01*
X2179Y119D01*
X2179Y119D01*
X2179Y119D01*
Y119D01*
X2187Y118D01*
X2186Y117D01*
X2186Y115D01*
X2185Y114D01*
X2184Y113D01*
X2183Y112D01*
X2181Y112D01*
X2180Y111D01*
X2179Y110D01*
X2178Y110D01*
X2177Y110D01*
X2176Y110D01*
X2175Y109D01*
X2174Y109D01*
X2173Y109D01*
X2173D01*
X2172Y109D01*
X2171Y109D01*
X2170Y110D01*
X2169Y110D01*
X2168Y110D01*
X2167Y110D01*
X2166Y111D01*
X2166Y111D01*
X2165Y111D01*
X2165Y111D01*
X2164Y112D01*
X2164Y112D01*
X2163Y112D01*
X2163Y112D01*
X2163Y112D01*
X2163D01*
X2162Y113D01*
X2162Y113D01*
X2161Y114D01*
X2161Y115D01*
X2160Y116D01*
X2160Y117D01*
X2160Y118D01*
X2160Y119D01*
X2159Y119D01*
X2159Y119D01*
Y120D01*
Y120D01*
Y120D01*
X2159Y121D01*
X2160Y122D01*
X2160Y123D01*
X2160Y124D01*
X2160Y124D01*
X2161Y125D01*
X2161Y125D01*
X2161Y125D01*
X2161Y126D01*
X2162Y127D01*
X2163Y127D01*
X2163Y127D01*
X2164Y128D01*
X2165Y128D01*
X2165Y128D01*
X2165Y128D01*
X2166Y129D01*
X2167Y129D01*
X2168Y129D01*
X2170Y129D01*
X2171Y130D01*
X2171Y130D01*
X2172Y130D01*
X2172Y130D01*
X2172Y130D01*
X2173D01*
X2174Y130D01*
X2175Y130D01*
X2175Y130D01*
X2176Y131D01*
X2176Y131D01*
X2177Y131D01*
X2177Y131D01*
X2177D01*
X2177Y131D01*
X2177Y131D01*
X2178Y132D01*
X2178Y132D01*
X2178Y132D01*
Y133D01*
Y133D01*
X2178Y133D01*
X2177Y134D01*
X2177Y134D01*
X2177Y134D01*
X2176Y135D01*
X2175Y135D01*
X2175Y135D01*
X2174Y135D01*
X2174Y135D01*
X2173D01*
X2172Y135D01*
X2172Y135D01*
X2171Y135D01*
X2170Y135D01*
X2170Y134D01*
X2169Y134D01*
X2168Y133D01*
X2168Y133D01*
X2167Y132D01*
X2167Y132D01*
X2167Y132D01*
X2167Y131D01*
Y131D01*
X2161Y133D01*
X2161Y134D01*
X2162Y136D01*
X2163Y137D01*
X2163Y138D01*
X2164Y138D01*
X2165Y139D01*
X2165Y139D01*
X2165Y139D01*
X2165D01*
X2166Y140D01*
X2168Y140D01*
X2169Y141D01*
X2170Y141D01*
X2171Y141D01*
X2172Y141D01*
X2172Y141D01*
X2174D01*
X2175Y141D01*
D02*
G37*
G36*
X3363Y141D02*
X3364Y141D01*
X3365Y141D01*
X3365Y140D01*
X3366Y140D01*
X3367Y139D01*
X3367Y139D01*
X3368Y139D01*
X3368Y138D01*
X3369Y138D01*
X3369Y137D01*
X3370Y136D01*
X3370Y136D01*
X3370Y136D01*
Y140D01*
X3378D01*
Y100D01*
X3369D01*
Y113D01*
X3369Y113D01*
X3368Y112D01*
X3368Y111D01*
X3367Y111D01*
X3367Y111D01*
X3366Y110D01*
X3365Y110D01*
X3364Y110D01*
X3363Y109D01*
X3363Y109D01*
X3362Y109D01*
X3362D01*
X3361Y109D01*
X3360Y110D01*
X3359Y110D01*
X3359Y110D01*
X3357Y111D01*
X3356Y111D01*
X3355Y112D01*
X3355Y112D01*
X3354Y113D01*
X3354Y113D01*
X3354Y113D01*
X3354Y113D01*
X3354Y113D01*
X3353Y114D01*
X3353Y115D01*
X3352Y116D01*
X3352Y117D01*
X3351Y119D01*
X3351Y121D01*
X3351Y122D01*
X3351Y123D01*
X3351Y124D01*
Y124D01*
X3350Y125D01*
Y125D01*
Y125D01*
Y126D01*
X3351Y127D01*
X3351Y128D01*
X3351Y129D01*
X3351Y131D01*
X3351Y132D01*
X3351Y132D01*
X3352Y133D01*
X3352Y134D01*
X3352Y135D01*
X3353Y135D01*
X3353Y136D01*
X3353Y136D01*
X3353Y137D01*
X3354Y137D01*
X3354Y137D01*
X3354Y137D01*
X3354Y138D01*
X3355Y138D01*
X3356Y139D01*
X3356Y139D01*
X3357Y140D01*
X3358Y140D01*
X3359Y141D01*
X3360Y141D01*
X3361Y141D01*
X3361Y141D01*
X3361Y141D01*
X3362D01*
X3363Y141D01*
D02*
G37*
G36*
X1955Y247D02*
X1954Y244D01*
X1953Y241D01*
X1952Y239D01*
X1952Y237D01*
X1951Y235D01*
X1951Y234D01*
X1950Y232D01*
X1950Y232D01*
X1950Y230D01*
X1949Y230D01*
X1949Y229D01*
X1948Y225D01*
X1947Y221D01*
X1946Y218D01*
X1945Y215D01*
X1944Y213D01*
X1943Y211D01*
X1943Y209D01*
X1942Y208D01*
X1942Y207D01*
X1942Y206D01*
X1941Y206D01*
X1941Y205D01*
X1935D01*
X1934Y206D01*
X1934Y207D01*
X1933Y209D01*
X1933Y210D01*
X1932Y213D01*
X1931Y215D01*
X1930Y220D01*
X1928Y225D01*
X1928Y227D01*
X1927Y229D01*
X1927Y231D01*
X1926Y232D01*
X1926Y233D01*
Y233D01*
X1925D01*
X1924Y229D01*
X1922Y225D01*
X1921Y221D01*
X1920Y218D01*
X1920Y215D01*
X1919Y213D01*
X1918Y211D01*
X1918Y209D01*
X1917Y208D01*
X1917Y207D01*
X1916Y206D01*
X1916Y205D01*
Y205D01*
X1910D01*
X1909Y207D01*
X1908Y209D01*
X1907Y212D01*
X1906Y215D01*
X1905Y218D01*
X1904Y222D01*
X1902Y229D01*
X1900Y232D01*
X1899Y235D01*
X1898Y238D01*
X1898Y241D01*
X1897Y243D01*
X1896Y245D01*
X1896Y246D01*
Y246D01*
X1896Y247D01*
X1896Y247D01*
X1904D01*
X1904Y247D01*
X1904Y246D01*
X1905Y245D01*
X1906Y243D01*
X1906Y241D01*
X1907Y238D01*
X1909Y233D01*
X1910Y228D01*
X1910Y225D01*
X1911Y223D01*
X1911Y221D01*
X1912Y220D01*
X1912Y219D01*
Y219D01*
X1913D01*
X1915Y224D01*
X1916Y228D01*
X1917Y232D01*
X1918Y235D01*
X1919Y238D01*
X1920Y240D01*
X1921Y242D01*
X1921Y244D01*
X1922Y245D01*
X1922Y246D01*
X1923Y246D01*
Y247D01*
X1923Y247D01*
X1927D01*
X1928Y247D01*
X1928Y246D01*
X1929Y245D01*
X1930Y243D01*
X1930Y241D01*
X1931Y238D01*
X1933Y233D01*
X1935Y228D01*
X1935Y225D01*
X1936Y223D01*
X1937Y221D01*
X1937Y220D01*
X1937Y219D01*
Y219D01*
X1939D01*
X1940Y224D01*
X1941Y228D01*
X1942Y232D01*
X1943Y235D01*
X1944Y238D01*
X1944Y240D01*
X1945Y242D01*
X1945Y244D01*
X1946Y245D01*
X1946Y246D01*
X1946Y246D01*
X1947Y247D01*
X1947Y247D01*
X1954D01*
X1955Y247D01*
D02*
G37*
G36*
X3106Y222D02*
X3107Y221D01*
X3108Y221D01*
X3110Y221D01*
X3111Y220D01*
X3112Y220D01*
X3113Y219D01*
X3114Y219D01*
X3114Y218D01*
X3115Y218D01*
X3116Y217D01*
X3116Y217D01*
X3117Y216D01*
X3117Y216D01*
X3117Y216D01*
X3117Y216D01*
X3118Y215D01*
X3119Y213D01*
X3119Y212D01*
X3120Y211D01*
X3120Y210D01*
X3121Y208D01*
X3121Y207D01*
X3121Y206D01*
X3121Y205D01*
X3121Y204D01*
X3122Y203D01*
X3122Y202D01*
X3122Y202D01*
Y201D01*
Y201D01*
Y201D01*
X3122Y199D01*
X3121Y197D01*
X3121Y196D01*
X3121Y195D01*
X3121Y193D01*
X3120Y192D01*
X3120Y191D01*
X3119Y190D01*
X3119Y189D01*
X3119Y188D01*
X3118Y187D01*
X3118Y187D01*
X3118Y186D01*
X3117Y186D01*
X3117Y186D01*
X3117Y186D01*
X3116Y184D01*
X3115Y183D01*
X3114Y183D01*
X3113Y182D01*
X3112Y181D01*
X3111Y181D01*
X3110Y180D01*
X3109Y180D01*
X3108Y180D01*
X3107Y180D01*
X3106Y180D01*
X3106Y179D01*
X3105Y179D01*
X3105Y179D01*
X3104D01*
X3103Y179D01*
X3101Y180D01*
X3100Y180D01*
X3099Y180D01*
X3097Y181D01*
X3096Y181D01*
X3095Y182D01*
X3094Y182D01*
X3094Y183D01*
X3093Y183D01*
X3092Y184D01*
X3092Y184D01*
X3092Y185D01*
X3091Y185D01*
X3091Y185D01*
X3091Y185D01*
X3090Y187D01*
X3090Y188D01*
X3089Y189D01*
X3088Y190D01*
X3088Y192D01*
X3088Y193D01*
X3087Y194D01*
X3087Y195D01*
X3087Y196D01*
X3087Y197D01*
X3087Y198D01*
X3087Y199D01*
X3087Y200D01*
Y200D01*
Y200D01*
Y201D01*
X3087Y202D01*
X3087Y204D01*
X3087Y205D01*
X3087Y206D01*
X3088Y208D01*
X3088Y209D01*
X3088Y210D01*
X3089Y211D01*
X3089Y212D01*
X3090Y213D01*
X3090Y214D01*
X3090Y214D01*
X3091Y215D01*
X3091Y215D01*
X3091Y215D01*
X3091Y215D01*
X3092Y216D01*
X3093Y217D01*
X3094Y218D01*
X3095Y219D01*
X3096Y220D01*
X3097Y220D01*
X3098Y221D01*
X3099Y221D01*
X3100Y221D01*
X3101Y221D01*
X3102Y222D01*
X3103Y222D01*
X3103Y222D01*
X3104Y222D01*
X3104D01*
X3106Y222D01*
D02*
G37*
G36*
X3156Y211D02*
X3157Y211D01*
X3158Y211D01*
X3159Y210D01*
X3160Y210D01*
X3161Y210D01*
X3161Y210D01*
X3162Y209D01*
X3162Y209D01*
X3163Y209D01*
X3163Y209D01*
X3163Y208D01*
X3163Y208D01*
X3163Y208D01*
X3164Y208D01*
X3164Y208D01*
X3165Y207D01*
X3165Y206D01*
X3165Y206D01*
X3166Y205D01*
X3166Y204D01*
X3167Y203D01*
X3167Y202D01*
X3167Y202D01*
X3167Y201D01*
Y201D01*
Y201D01*
Y201D01*
X3167Y200D01*
X3167Y200D01*
X3166Y198D01*
X3166Y197D01*
X3165Y196D01*
X3165Y195D01*
X3165Y195D01*
X3164Y194D01*
X3164Y194D01*
X3163Y194D01*
X3163Y193D01*
X3162Y193D01*
X3161Y193D01*
X3159Y192D01*
X3157Y192D01*
X3156Y191D01*
X3155Y191D01*
X3154Y191D01*
X3153Y191D01*
X3153Y191D01*
X3152Y191D01*
X3152Y191D01*
X3152D01*
X3151Y191D01*
X3151Y191D01*
X3150Y190D01*
X3150Y190D01*
X3149Y190D01*
X3149Y189D01*
X3149Y189D01*
X3149Y189D01*
X3149Y188D01*
Y188D01*
X3149Y188D01*
X3149Y187D01*
X3149Y187D01*
X3149Y187D01*
X3150Y186D01*
X3150Y186D01*
X3150Y186D01*
X3150Y186D01*
X3151Y186D01*
X3151Y186D01*
X3152Y186D01*
X3153Y186D01*
X3153Y185D01*
X3153Y185D01*
X3154D01*
X3155Y185D01*
X3156Y186D01*
X3157Y186D01*
X3157Y186D01*
X3158Y186D01*
X3158Y187D01*
X3159Y187D01*
X3159Y187D01*
X3160Y188D01*
X3160Y188D01*
X3160Y189D01*
X3160Y189D01*
X3161Y189D01*
X3161Y189D01*
Y189D01*
X3168Y188D01*
X3168Y187D01*
X3167Y185D01*
X3166Y184D01*
X3165Y183D01*
X3164Y182D01*
X3163Y182D01*
X3162Y181D01*
X3160Y180D01*
X3159Y180D01*
X3158Y180D01*
X3157Y180D01*
X3156Y179D01*
X3155Y179D01*
X3155Y179D01*
X3154D01*
X3153Y179D01*
X3152Y179D01*
X3151Y180D01*
X3150Y180D01*
X3149Y180D01*
X3148Y180D01*
X3148Y181D01*
X3147Y181D01*
X3146Y181D01*
X3146Y181D01*
X3145Y182D01*
X3145Y182D01*
X3145Y182D01*
X3144Y182D01*
X3144Y182D01*
X3144D01*
X3144Y183D01*
X3143Y183D01*
X3143Y184D01*
X3142Y185D01*
X3142Y186D01*
X3141Y187D01*
X3141Y188D01*
X3141Y189D01*
X3141Y189D01*
X3141Y189D01*
Y190D01*
Y190D01*
Y190D01*
X3141Y191D01*
X3141Y192D01*
X3141Y193D01*
X3141Y194D01*
X3142Y194D01*
X3142Y195D01*
X3142Y195D01*
X3142Y195D01*
X3143Y196D01*
X3143Y197D01*
X3144Y197D01*
X3145Y197D01*
X3145Y198D01*
X3146Y198D01*
X3146Y198D01*
X3146Y198D01*
X3147Y199D01*
X3148Y199D01*
X3150Y199D01*
X3151Y199D01*
X3152Y200D01*
X3153Y200D01*
X3153Y200D01*
X3153Y200D01*
X3154Y200D01*
X3154D01*
X3155Y200D01*
X3156Y200D01*
X3157Y200D01*
X3157Y201D01*
X3158Y201D01*
X3158Y201D01*
X3158Y201D01*
X3158D01*
X3158Y201D01*
X3159Y201D01*
X3159Y202D01*
X3159Y202D01*
X3159Y202D01*
Y203D01*
Y203D01*
X3159Y203D01*
X3159Y204D01*
X3159Y204D01*
X3158Y204D01*
X3158Y205D01*
X3157Y205D01*
X3156Y205D01*
X3155Y205D01*
X3155Y205D01*
X3154D01*
X3154Y205D01*
X3153Y205D01*
X3152Y205D01*
X3151Y205D01*
X3151Y204D01*
X3150Y204D01*
X3150Y203D01*
X3149Y203D01*
X3149Y202D01*
X3149Y202D01*
X3149Y202D01*
X3149Y201D01*
Y201D01*
X3142Y203D01*
X3143Y204D01*
X3143Y206D01*
X3144Y207D01*
X3145Y208D01*
X3145Y208D01*
X3146Y209D01*
X3146Y209D01*
X3146Y209D01*
X3146D01*
X3148Y210D01*
X3149Y210D01*
X3150Y211D01*
X3151Y211D01*
X3152Y211D01*
X3153Y211D01*
X3153Y211D01*
X3155D01*
X3156Y211D01*
D02*
G37*
G36*
X2953Y222D02*
X2954Y222D01*
X2955Y221D01*
X2957Y221D01*
X2957Y221D01*
X2958Y221D01*
X2959Y220D01*
X2960Y220D01*
X2961Y219D01*
X2961Y219D01*
X2962Y219D01*
X2962Y218D01*
X2962Y218D01*
X2963Y218D01*
X2963Y218D01*
X2963Y218D01*
X2964Y217D01*
X2964Y216D01*
X2965Y216D01*
X2965Y215D01*
X2965Y214D01*
X2966Y213D01*
X2966Y212D01*
X2966Y211D01*
X2967Y211D01*
X2967Y210D01*
X2967Y210D01*
X2967Y209D01*
Y209D01*
Y209D01*
Y209D01*
X2967Y208D01*
X2967Y207D01*
X2966Y205D01*
X2966Y204D01*
X2965Y203D01*
X2964Y202D01*
X2964Y201D01*
X2964Y201D01*
X2964Y201D01*
X2964Y201D01*
X2964Y200D01*
X2963Y200D01*
X2963Y200D01*
X2962Y199D01*
X2961Y199D01*
X2960Y199D01*
X2958Y198D01*
X2957Y197D01*
X2956Y197D01*
X2955Y197D01*
X2954Y196D01*
X2953Y196D01*
X2953Y196D01*
X2952Y196D01*
X2952Y196D01*
X2952D01*
X2951Y196D01*
X2950Y195D01*
X2949Y195D01*
X2948Y195D01*
X2947Y195D01*
X2947Y194D01*
X2947Y194D01*
X2946Y194D01*
X2946Y194D01*
X2946Y193D01*
X2945Y193D01*
X2945Y192D01*
X2945Y192D01*
X2945Y192D01*
Y191D01*
Y191D01*
X2945Y191D01*
X2945Y190D01*
X2945Y190D01*
X2946Y189D01*
X2946Y189D01*
X2946Y189D01*
X2947Y188D01*
X2947Y188D01*
X2947Y188D01*
X2948Y188D01*
X2949Y187D01*
X2950Y187D01*
X2950Y187D01*
X2951Y187D01*
X2952D01*
X2953Y187D01*
X2954Y187D01*
X2955Y188D01*
X2956Y188D01*
X2957Y188D01*
X2957Y189D01*
X2958Y189D01*
X2958Y190D01*
X2959Y190D01*
X2959Y191D01*
X2959Y191D01*
X2960Y192D01*
X2960Y192D01*
X2960Y193D01*
X2960Y193D01*
Y193D01*
X2969Y191D01*
X2969Y190D01*
X2968Y189D01*
X2968Y188D01*
X2967Y187D01*
X2967Y186D01*
X2966Y186D01*
X2966Y185D01*
X2965Y184D01*
X2965Y184D01*
X2965Y183D01*
X2964Y183D01*
X2964Y183D01*
X2963Y183D01*
X2963Y182D01*
X2963Y182D01*
X2963Y182D01*
X2962Y182D01*
X2961Y181D01*
X2959Y181D01*
X2958Y180D01*
X2956Y180D01*
X2955Y180D01*
X2955Y179D01*
X2954Y179D01*
X2953D01*
X2953Y179D01*
X2952D01*
X2951Y179D01*
X2949Y180D01*
X2948Y180D01*
X2947Y180D01*
X2946Y180D01*
X2945Y181D01*
X2944Y181D01*
X2943Y181D01*
X2942Y182D01*
X2941Y182D01*
X2941Y182D01*
X2940Y183D01*
X2940Y183D01*
X2940Y183D01*
X2940Y183D01*
X2940Y183D01*
X2939Y184D01*
X2938Y185D01*
X2938Y186D01*
X2937Y187D01*
X2937Y187D01*
X2936Y188D01*
X2936Y190D01*
X2936Y190D01*
X2935Y191D01*
X2935Y192D01*
X2935Y192D01*
X2935Y193D01*
Y193D01*
Y193D01*
Y193D01*
X2935Y194D01*
X2936Y195D01*
X2936Y197D01*
X2936Y197D01*
X2937Y198D01*
X2937Y199D01*
X2937Y199D01*
X2937Y199D01*
X2938Y200D01*
X2939Y201D01*
X2940Y202D01*
X2941Y203D01*
X2941Y203D01*
X2942Y203D01*
X2942Y204D01*
X2942Y204D01*
X2942D01*
X2943Y204D01*
X2943Y204D01*
X2945Y205D01*
X2946Y205D01*
X2948Y205D01*
X2949Y206D01*
X2950Y206D01*
X2950Y206D01*
X2951Y206D01*
X2951Y206D01*
X2951Y206D01*
X2951D01*
X2953Y207D01*
X2954Y207D01*
X2955Y207D01*
X2955Y207D01*
X2956Y208D01*
X2956Y208D01*
X2956Y208D01*
X2956Y208D01*
X2957Y208D01*
X2957Y209D01*
X2957Y209D01*
X2957Y210D01*
X2957Y210D01*
X2957Y210D01*
Y210D01*
Y210D01*
X2957Y211D01*
X2957Y212D01*
X2957Y212D01*
X2956Y213D01*
X2956Y213D01*
X2955Y213D01*
X2954Y214D01*
X2953Y214D01*
X2953Y214D01*
X2952Y214D01*
X2952Y214D01*
X2952D01*
X2951Y214D01*
X2950Y214D01*
X2949Y214D01*
X2948Y213D01*
X2948Y213D01*
X2947Y213D01*
X2946Y212D01*
X2946Y212D01*
X2945Y211D01*
X2945Y210D01*
X2945Y210D01*
X2945Y209D01*
X2945Y209D01*
Y209D01*
X2936Y212D01*
X2937Y214D01*
X2938Y215D01*
X2939Y217D01*
X2940Y218D01*
X2941Y219D01*
X2943Y219D01*
X2944Y220D01*
X2945Y221D01*
X2947Y221D01*
X2948Y221D01*
X2949Y221D01*
X2950Y222D01*
X2951Y222D01*
X2951Y222D01*
X2952D01*
X2953Y222D01*
D02*
G37*
G36*
X2087Y313D02*
X2089Y313D01*
X2092Y312D01*
X2093Y311D01*
X2094Y310D01*
X2095Y310D01*
X2095Y309D01*
Y311D01*
X2095Y312D01*
Y312D01*
X2096Y313D01*
X2096Y313D01*
X2103D01*
X2103Y313D01*
X2103Y313D01*
X2104Y312D01*
Y312D01*
Y206D01*
X2103Y206D01*
X2103Y205D01*
X2103Y205D01*
X2096D01*
X2096Y205D01*
X2095Y206D01*
Y206D01*
Y206D01*
Y230D01*
X2094Y233D01*
X2093Y236D01*
X2092Y237D01*
X2091Y238D01*
X2089Y239D01*
X2088Y239D01*
X2087Y239D01*
X2087D01*
X2085Y239D01*
X2083Y238D01*
X2081Y237D01*
X2080Y235D01*
X2080Y234D01*
X2079Y232D01*
X2079Y231D01*
Y231D01*
Y206D01*
X2079Y206D01*
X2078Y205D01*
X2078Y205D01*
X2071D01*
X2070Y205D01*
X2070Y206D01*
Y206D01*
Y206D01*
Y231D01*
X2070Y234D01*
X2071Y236D01*
X2072Y239D01*
X2073Y241D01*
X2074Y242D01*
X2075Y244D01*
X2077Y246D01*
X2080Y247D01*
X2082Y247D01*
X2083Y248D01*
X2084D01*
X2086Y247D01*
X2088Y247D01*
X2090Y246D01*
X2092Y245D01*
X2093Y244D01*
X2094Y244D01*
X2095Y243D01*
X2095Y243D01*
Y276D01*
X2093Y274D01*
X2092Y273D01*
X2090Y272D01*
X2088Y271D01*
X2087Y271D01*
X2086Y271D01*
X2084D01*
X2082Y271D01*
X2079Y272D01*
X2078Y273D01*
X2076Y274D01*
X2074Y276D01*
X2073Y277D01*
X2072Y281D01*
X2071Y285D01*
X2070Y288D01*
X2070Y289D01*
Y291D01*
Y291D01*
Y291D01*
Y295D01*
X2070Y298D01*
X2070Y300D01*
X2071Y302D01*
X2071Y304D01*
X2071Y305D01*
X2071Y305D01*
Y306D01*
X2073Y308D01*
X2075Y310D01*
X2077Y312D01*
X2079Y313D01*
X2081Y313D01*
X2083Y314D01*
X2086D01*
X2087Y313D01*
D02*
G37*
G36*
X2052Y247D02*
X2054Y247D01*
X2057Y246D01*
X2059Y245D01*
X2060Y244D01*
X2061Y243D01*
X2062Y242D01*
X2062Y242D01*
X2060Y239D01*
X2058Y238D01*
X2056Y237D01*
X2056Y237D01*
X2056D01*
X2055Y238D01*
X2054Y238D01*
X2052Y239D01*
X2051Y239D01*
X2044D01*
X2042Y239D01*
X2041Y239D01*
X2040Y238D01*
X2040Y237D01*
X2039Y236D01*
Y235D01*
Y235D01*
Y230D01*
X2045D01*
X2048Y230D01*
X2051Y230D01*
X2054Y229D01*
X2056Y228D01*
X2058Y227D01*
X2060Y226D01*
X2061Y225D01*
X2062Y224D01*
X2064Y222D01*
X2064Y220D01*
X2065Y218D01*
Y218D01*
Y218D01*
X2064Y215D01*
X2063Y214D01*
X2063Y212D01*
X2062Y210D01*
X2060Y208D01*
X2058Y207D01*
X2056Y206D01*
X2054Y205D01*
X2053Y205D01*
X2046D01*
X2045Y205D01*
X2043Y206D01*
X2041Y207D01*
X2040Y208D01*
X2040Y208D01*
X2039D01*
Y207D01*
X2039Y206D01*
X2039Y206D01*
X2038Y205D01*
X2031D01*
X2031Y205D01*
X2030Y206D01*
Y206D01*
Y206D01*
Y232D01*
X2031Y235D01*
X2031Y237D01*
X2032Y239D01*
X2033Y241D01*
X2034Y243D01*
X2036Y244D01*
X2039Y246D01*
X2042Y247D01*
X2044Y247D01*
X2046Y248D01*
X2048D01*
X2052Y247D01*
D02*
G37*
G36*
X1882D02*
X1885Y247D01*
X1888Y246D01*
X1889Y245D01*
X1891Y244D01*
X1892Y243D01*
X1892Y242D01*
X1893Y242D01*
Y241D01*
X1891Y240D01*
X1890Y239D01*
X1889Y238D01*
X1888Y237D01*
X1887Y237D01*
X1886Y237D01*
X1885Y238D01*
X1884Y238D01*
X1883Y239D01*
X1882Y239D01*
X1875D01*
X1874Y239D01*
X1873Y239D01*
X1871Y238D01*
X1870Y237D01*
X1870Y236D01*
Y236D01*
Y230D01*
X1875D01*
X1879Y230D01*
X1882Y230D01*
X1885Y229D01*
X1887Y228D01*
X1889Y228D01*
X1890Y227D01*
X1892Y225D01*
X1893Y224D01*
X1894Y222D01*
X1895Y220D01*
X1895Y219D01*
Y218D01*
Y218D01*
X1895Y216D01*
X1894Y214D01*
X1893Y212D01*
X1893Y211D01*
X1891Y208D01*
X1888Y207D01*
X1886Y206D01*
X1885Y205D01*
X1884Y205D01*
X1877D01*
X1875Y205D01*
X1874Y206D01*
X1872Y207D01*
X1870Y208D01*
X1870Y208D01*
X1870D01*
Y207D01*
X1870Y206D01*
X1869Y206D01*
X1869Y205D01*
X1862D01*
X1862Y205D01*
X1861Y206D01*
Y206D01*
Y206D01*
Y230D01*
Y233D01*
X1861Y235D01*
X1862Y237D01*
Y237D01*
Y237D01*
X1862Y239D01*
X1862Y240D01*
X1863Y242D01*
X1864Y243D01*
X1867Y245D01*
X1870Y246D01*
X1873Y247D01*
X1875Y247D01*
X1876D01*
X1877Y248D01*
X1879D01*
X1882Y247D01*
D02*
G37*
G36*
X3366Y211D02*
X3367Y211D01*
X3369Y210D01*
X3370Y210D01*
X3371Y210D01*
X3371Y209D01*
X3371Y209D01*
X3372Y209D01*
X3372Y209D01*
X3372D01*
X3373Y208D01*
X3374Y207D01*
X3375Y206D01*
X3375Y205D01*
X3376Y205D01*
X3376Y204D01*
X3376Y204D01*
X3376Y204D01*
X3377Y204D01*
Y203D01*
X3377Y202D01*
X3378Y201D01*
X3378Y199D01*
X3378Y198D01*
X3378Y197D01*
Y196D01*
X3378Y196D01*
Y196D01*
Y195D01*
Y195D01*
Y195D01*
X3378Y194D01*
X3378Y193D01*
X3378Y192D01*
X3378Y190D01*
X3377Y189D01*
X3377Y189D01*
X3377Y188D01*
X3376Y187D01*
X3376Y186D01*
X3376Y186D01*
X3375Y185D01*
X3375Y185D01*
X3375Y184D01*
X3375Y184D01*
X3374Y184D01*
X3374Y184D01*
X3374Y183D01*
X3373Y182D01*
X3372Y182D01*
X3371Y181D01*
X3370Y181D01*
X3369Y180D01*
X3368Y180D01*
X3367Y180D01*
X3366Y180D01*
X3366Y179D01*
X3365Y179D01*
X3365Y179D01*
X3364D01*
X3363Y179D01*
X3362Y180D01*
X3361Y180D01*
X3360Y180D01*
X3359Y180D01*
X3358Y181D01*
X3357Y181D01*
X3356Y182D01*
X3355Y182D01*
X3355Y182D01*
X3354Y183D01*
X3354Y183D01*
X3354Y183D01*
X3353Y184D01*
X3353Y184D01*
X3353Y184D01*
X3353Y185D01*
X3352Y186D01*
X3351Y187D01*
X3351Y187D01*
X3350Y188D01*
X3350Y189D01*
X3350Y191D01*
X3350Y192D01*
X3349Y193D01*
X3349Y193D01*
X3349Y194D01*
X3349Y194D01*
Y195D01*
Y195D01*
Y195D01*
X3349Y196D01*
X3349Y198D01*
X3350Y199D01*
X3350Y200D01*
X3350Y201D01*
X3350Y202D01*
X3351Y203D01*
X3351Y203D01*
X3352Y204D01*
X3352Y205D01*
X3352Y205D01*
X3353Y206D01*
X3353Y206D01*
X3353Y206D01*
X3353Y206D01*
X3353Y206D01*
X3354Y207D01*
X3355Y208D01*
X3356Y209D01*
X3356Y209D01*
X3357Y210D01*
X3358Y210D01*
X3359Y210D01*
X3360Y210D01*
X3361Y211D01*
X3362Y211D01*
X3362Y211D01*
X3363Y211D01*
X3363Y211D01*
X3364D01*
X3366Y211D01*
D02*
G37*
G36*
X139Y787D02*
X141Y786D01*
X142D01*
X147Y784D01*
X152Y781D01*
X156Y778D01*
X160Y775D01*
X163Y772D01*
X165Y769D01*
X167Y766D01*
X169Y763D01*
X171Y757D01*
X172Y752D01*
Y750D01*
X173Y749D01*
Y748D01*
Y748D01*
Y741D01*
X172Y736D01*
X176Y732D01*
X180Y729D01*
X183Y726D01*
X186Y723D01*
X188Y720D01*
X190Y718D01*
X193Y716D01*
X195Y714D01*
X196Y713D01*
X196Y712D01*
Y711D01*
X192Y707D01*
X190Y704D01*
X187Y702D01*
X186Y700D01*
X185Y699D01*
X184Y699D01*
X184Y699D01*
X169Y679D01*
X164Y683D01*
X160Y687D01*
X156Y691D01*
X153Y694D01*
X151Y696D01*
X149Y699D01*
X145Y702D01*
X143Y704D01*
X142Y705D01*
X142Y705D01*
X140D01*
X137Y705D01*
X134Y705D01*
X130D01*
X127Y705D01*
X125Y705D01*
X123D01*
X118Y708D01*
X113Y710D01*
X108Y713D01*
X105Y716D01*
X102Y719D01*
X99Y722D01*
X97Y726D01*
X95Y729D01*
X92Y735D01*
X91Y740D01*
Y741D01*
X91Y743D01*
Y744D01*
Y744D01*
Y749D01*
X92Y755D01*
X92D01*
X99Y749D01*
X104Y744D01*
X109Y740D01*
X112Y736D01*
X115Y734D01*
X116Y733D01*
X117Y732D01*
X117Y732D01*
X147Y760D01*
X143Y764D01*
X139Y768D01*
X136Y771D01*
X133Y774D01*
X131Y777D01*
X129Y779D01*
X126Y781D01*
X124Y783D01*
X123Y784D01*
X123Y785D01*
X123Y786D01*
X124Y787D01*
X125Y787D01*
X136D01*
X139Y787D01*
D02*
G37*
G36*
X432D02*
X432Y786D01*
X432Y786D01*
Y785D01*
X409Y760D01*
X414Y755D01*
X418Y751D01*
X422Y747D01*
X425Y744D01*
X428Y741D01*
X430Y738D01*
X432Y737D01*
X434Y735D01*
X436Y733D01*
X438Y732D01*
X438Y732D01*
X443Y736D01*
X446Y739D01*
X449Y742D01*
X452Y745D01*
X455Y748D01*
X457Y750D01*
X459Y752D01*
X461Y754D01*
X462Y756D01*
X463Y756D01*
X463Y756D01*
X464Y755D01*
X465Y752D01*
X465Y750D01*
Y749D01*
Y748D01*
Y745D01*
X465Y741D01*
Y740D01*
X464Y738D01*
Y738D01*
Y737D01*
X462Y732D01*
X459Y726D01*
X456Y722D01*
X453Y718D01*
X450Y715D01*
X446Y713D01*
X443Y711D01*
X440Y709D01*
X434Y706D01*
X429Y705D01*
X428D01*
X426Y705D01*
X425D01*
X415Y705D01*
X410Y701D01*
X406Y697D01*
X402Y693D01*
X399Y690D01*
X396Y687D01*
X394Y685D01*
X392Y683D01*
X391Y681D01*
X389Y679D01*
X387Y678D01*
X387Y678D01*
X382Y685D01*
X377Y691D01*
X372Y697D01*
X368Y701D01*
X364Y706D01*
X361Y709D01*
X360Y711D01*
X359Y711D01*
X363Y716D01*
X367Y720D01*
X370Y723D01*
X373Y726D01*
X375Y728D01*
X377Y730D01*
X380Y733D01*
X382Y735D01*
X383Y736D01*
X384Y736D01*
X383Y740D01*
X382Y742D01*
Y744D01*
Y745D01*
X383Y748D01*
Y750D01*
Y751D01*
X383Y752D01*
Y754D01*
Y754D01*
X385Y760D01*
X388Y765D01*
X391Y769D01*
X394Y773D01*
X397Y776D01*
X401Y779D01*
X404Y781D01*
X407Y783D01*
X413Y785D01*
X418Y787D01*
X420D01*
X421Y787D01*
X431D01*
X432Y787D01*
D02*
G37*
G36*
X2370Y180D02*
X2361D01*
Y221D01*
X2370D01*
Y180D01*
D02*
G37*
G36*
X1835Y247D02*
X1837Y247D01*
X1840Y245D01*
X1842Y244D01*
X1843Y244D01*
X1843Y243D01*
X1844Y243D01*
Y244D01*
X1844Y245D01*
Y246D01*
X1844Y247D01*
X1844Y247D01*
X1851D01*
X1851Y247D01*
X1852Y247D01*
X1852Y246D01*
Y246D01*
Y206D01*
X1852Y206D01*
X1851Y205D01*
X1851Y205D01*
X1845D01*
X1844Y205D01*
X1844Y206D01*
Y206D01*
Y206D01*
Y231D01*
X1843Y233D01*
X1842Y235D01*
X1841Y237D01*
X1839Y238D01*
X1838Y239D01*
X1836Y239D01*
X1835Y239D01*
X1835D01*
X1833Y239D01*
X1832Y238D01*
X1830Y237D01*
X1830Y237D01*
X1830D01*
X1824Y244D01*
X1825Y245D01*
X1826Y246D01*
X1829Y247D01*
X1830Y247D01*
X1831Y248D01*
X1834D01*
X1835Y247D01*
D02*
G37*
G36*
X1809D02*
X1810Y247D01*
X1811D01*
X1813Y246D01*
X1815Y245D01*
X1817Y244D01*
X1819Y242D01*
X1821Y239D01*
X1822Y235D01*
X1823Y232D01*
X1824Y229D01*
X1824Y228D01*
Y227D01*
Y226D01*
Y226D01*
X1824Y224D01*
X1824Y223D01*
Y223D01*
Y223D01*
X1823Y220D01*
X1822Y217D01*
X1821Y215D01*
X1820Y213D01*
X1819Y211D01*
X1818Y209D01*
X1816Y208D01*
X1815Y207D01*
X1812Y206D01*
X1809Y205D01*
X1808Y205D01*
X1802D01*
X1800Y205D01*
X1798Y206D01*
X1796Y207D01*
X1794Y208D01*
X1792Y209D01*
X1791Y210D01*
X1791Y211D01*
X1790Y211D01*
X1792Y213D01*
X1794Y215D01*
X1795Y216D01*
X1796Y217D01*
X1796D01*
X1798Y215D01*
X1799Y214D01*
X1801Y214D01*
X1802Y213D01*
X1803Y213D01*
X1804Y213D01*
X1807D01*
X1809Y213D01*
X1811Y214D01*
X1813Y216D01*
X1814Y217D01*
X1814Y219D01*
X1815Y220D01*
X1815Y221D01*
Y222D01*
Y223D01*
X1790D01*
X1790Y223D01*
X1789Y223D01*
Y224D01*
Y224D01*
Y231D01*
X1790Y233D01*
X1790Y236D01*
X1791Y238D01*
X1792Y240D01*
X1795Y243D01*
X1798Y245D01*
X1801Y246D01*
X1803Y247D01*
X1805Y247D01*
X1805Y248D01*
X1808D01*
X1809Y247D01*
D02*
G37*
G36*
X2004D02*
X2006Y247D01*
X2008Y246D01*
X2010Y245D01*
X2011Y244D01*
X2012Y244D01*
X2013Y243D01*
X2013Y243D01*
Y244D01*
X2013Y245D01*
Y246D01*
X2013Y247D01*
X2014Y247D01*
X2020D01*
X2021Y247D01*
X2021Y247D01*
X2021Y246D01*
Y246D01*
Y206D01*
X2021Y206D01*
X2021Y205D01*
X2021Y205D01*
X2014D01*
X2013Y205D01*
X2013Y206D01*
Y206D01*
Y206D01*
Y229D01*
X2013Y233D01*
X2012Y235D01*
X2010Y237D01*
X2009Y238D01*
X2007Y239D01*
X2006Y239D01*
X2005Y239D01*
X2004D01*
X2003Y239D01*
X2001Y238D01*
X2000Y237D01*
X1999Y237D01*
X1999D01*
X1999Y237D01*
X1998Y238D01*
X1997Y239D01*
X1996Y241D01*
X1995Y242D01*
X1994Y243D01*
X1994Y244D01*
X1993Y244D01*
Y245D01*
X1997Y247D01*
X1999Y247D01*
X2000Y248D01*
X2001D01*
X2004Y247D01*
D02*
G37*
G36*
X1968Y264D02*
X1968Y264D01*
X1968Y263D01*
Y263D01*
Y243D01*
X1970Y244D01*
X1972Y246D01*
X1974Y246D01*
X1975Y247D01*
X1976Y247D01*
X1977Y248D01*
X1978D01*
X1981Y247D01*
X1983Y247D01*
X1985Y246D01*
X1987Y245D01*
X1988Y244D01*
X1989Y243D01*
X1991Y240D01*
X1992Y237D01*
X1993Y234D01*
X1993Y233D01*
Y233D01*
Y232D01*
Y232D01*
Y219D01*
X1992Y217D01*
X1992Y215D01*
X1991Y213D01*
X1990Y211D01*
X1988Y209D01*
X1986Y207D01*
X1984Y206D01*
X1982Y205D01*
X1981Y205D01*
X1976D01*
X1975Y205D01*
X1973Y206D01*
X1971Y207D01*
X1970Y208D01*
X1969Y209D01*
X1968Y209D01*
X1968Y209D01*
Y208D01*
X1968Y207D01*
Y206D01*
X1968Y206D01*
X1967Y205D01*
X1960D01*
X1960Y205D01*
X1959Y206D01*
Y206D01*
Y206D01*
Y263D01*
X1959Y264D01*
X1960Y264D01*
X1960Y264D01*
X1967D01*
X1968Y264D01*
D02*
G37*
G36*
X2650Y207D02*
X2650Y208D01*
X2651Y208D01*
X2652Y209D01*
X2652Y209D01*
X2653Y210D01*
X2653Y210D01*
X2655Y211D01*
X2656Y211D01*
X2656Y211D01*
X2657Y211D01*
X2657Y211D01*
X2657D01*
X2658Y211D01*
X2659Y211D01*
X2660Y211D01*
X2661Y210D01*
X2662Y210D01*
X2664Y209D01*
X2664Y208D01*
X2665Y208D01*
X2665Y208D01*
X2665Y207D01*
X2665Y207D01*
X2666Y207D01*
X2666Y207D01*
X2666Y207D01*
X2666Y206D01*
X2667Y205D01*
X2667Y203D01*
X2668Y201D01*
X2668Y199D01*
X2668Y198D01*
X2669Y197D01*
X2669Y197D01*
Y196D01*
X2669Y196D01*
Y195D01*
Y195D01*
Y195D01*
X2669Y193D01*
X2669Y192D01*
X2668Y191D01*
X2668Y190D01*
X2668Y189D01*
X2668Y188D01*
X2668Y187D01*
X2667Y186D01*
X2667Y186D01*
X2667Y185D01*
X2666Y185D01*
X2666Y184D01*
X2666Y184D01*
X2666Y184D01*
X2666Y183D01*
Y183D01*
X2665Y183D01*
X2665Y182D01*
X2664Y182D01*
X2663Y181D01*
X2663Y181D01*
X2662Y180D01*
X2661Y180D01*
X2660Y180D01*
X2659Y179D01*
X2659Y179D01*
X2658Y179D01*
X2658D01*
X2657Y179D01*
X2656Y180D01*
X2655Y180D01*
X2654Y180D01*
X2653Y181D01*
X2652Y182D01*
X2651Y183D01*
X2651Y183D01*
X2650Y183D01*
X2650Y184D01*
X2650Y184D01*
X2650Y184D01*
X2649Y185D01*
X2649Y185D01*
Y180D01*
X2641D01*
Y221D01*
X2650D01*
Y207D01*
D02*
G37*
G36*
X2918Y211D02*
X2920Y211D01*
X2921Y210D01*
X2922Y210D01*
X2923Y210D01*
X2924Y209D01*
X2924Y209D01*
X2924Y209D01*
X2925Y209D01*
X2925D01*
X2926Y208D01*
X2927Y207D01*
X2927Y206D01*
X2928Y205D01*
X2929Y205D01*
X2929Y204D01*
X2929Y204D01*
X2929Y204D01*
X2929Y204D01*
Y203D01*
X2930Y202D01*
X2930Y201D01*
X2931Y199D01*
X2931Y198D01*
X2931Y197D01*
Y196D01*
X2931Y196D01*
Y196D01*
Y195D01*
Y195D01*
Y195D01*
X2931Y194D01*
X2931Y193D01*
X2931Y192D01*
X2931Y190D01*
X2930Y189D01*
X2930Y189D01*
X2930Y188D01*
X2929Y187D01*
X2929Y186D01*
X2928Y186D01*
X2928Y185D01*
X2928Y185D01*
X2928Y184D01*
X2927Y184D01*
X2927Y184D01*
X2927Y184D01*
X2926Y183D01*
X2926Y182D01*
X2925Y182D01*
X2924Y181D01*
X2923Y181D01*
X2922Y180D01*
X2921Y180D01*
X2920Y180D01*
X2919Y180D01*
X2918Y179D01*
X2918Y179D01*
X2918Y179D01*
X2917D01*
X2916Y179D01*
X2914Y180D01*
X2913Y180D01*
X2912Y180D01*
X2911Y180D01*
X2911Y181D01*
X2910Y181D01*
X2909Y182D01*
X2908Y182D01*
X2908Y182D01*
X2907Y183D01*
X2907Y183D01*
X2906Y183D01*
X2906Y184D01*
X2906Y184D01*
X2906Y184D01*
X2905Y185D01*
X2905Y186D01*
X2904Y187D01*
X2904Y187D01*
X2903Y188D01*
X2903Y189D01*
X2903Y191D01*
X2902Y192D01*
X2902Y193D01*
X2902Y193D01*
X2902Y194D01*
X2902Y194D01*
Y195D01*
Y195D01*
Y195D01*
X2902Y196D01*
X2902Y198D01*
X2902Y199D01*
X2903Y200D01*
X2903Y201D01*
X2903Y202D01*
X2904Y203D01*
X2904Y203D01*
X2904Y204D01*
X2905Y205D01*
X2905Y205D01*
X2905Y206D01*
X2906Y206D01*
X2906Y206D01*
X2906Y206D01*
X2906Y206D01*
X2907Y207D01*
X2908Y208D01*
X2908Y209D01*
X2909Y209D01*
X2910Y210D01*
X2911Y210D01*
X2912Y210D01*
X2913Y210D01*
X2914Y211D01*
X2914Y211D01*
X2915Y211D01*
X2916Y211D01*
X2916Y211D01*
X2917D01*
X2918Y211D01*
D02*
G37*
G36*
X1884Y313D02*
X1884Y313D01*
X1885Y312D01*
Y312D01*
Y287D01*
X1884Y284D01*
X1884Y282D01*
X1883Y278D01*
X1881Y276D01*
X1878Y274D01*
X1876Y272D01*
X1874Y271D01*
X1872Y271D01*
X1872Y271D01*
X1870D01*
X1867Y271D01*
X1865Y272D01*
X1863Y272D01*
X1862Y273D01*
X1861Y274D01*
X1860Y275D01*
X1860Y275D01*
Y276D01*
X1859D01*
Y274D01*
X1859Y273D01*
Y272D01*
X1859Y272D01*
X1859Y271D01*
X1852D01*
X1851Y272D01*
X1851Y272D01*
X1851Y272D01*
Y273D01*
Y312D01*
X1851Y313D01*
X1851Y313D01*
X1852Y313D01*
X1858D01*
X1859Y313D01*
X1859Y313D01*
X1859Y312D01*
Y312D01*
Y288D01*
X1860Y285D01*
X1861Y283D01*
X1862Y282D01*
X1863Y281D01*
X1864Y280D01*
X1866Y280D01*
X1867Y279D01*
X1868D01*
X1870Y280D01*
X1872Y281D01*
X1873Y282D01*
X1874Y284D01*
X1875Y285D01*
X1876Y287D01*
X1876Y288D01*
Y288D01*
Y312D01*
X1876Y313D01*
X1876Y313D01*
X1877Y313D01*
X1884D01*
X1884Y313D01*
D02*
G37*
G36*
X2502Y211D02*
X2503Y211D01*
X2505Y210D01*
X2506Y210D01*
X2507Y210D01*
X2507Y209D01*
X2508Y209D01*
X2508Y209D01*
X2508Y209D01*
X2508D01*
X2509Y208D01*
X2510Y207D01*
X2511Y206D01*
X2512Y205D01*
X2512Y205D01*
X2513Y204D01*
X2513Y204D01*
X2513Y204D01*
X2513Y204D01*
Y203D01*
X2513Y202D01*
X2514Y201D01*
X2514Y199D01*
X2514Y198D01*
X2515Y197D01*
Y196D01*
X2515Y196D01*
Y196D01*
Y195D01*
Y195D01*
Y195D01*
X2515Y194D01*
X2514Y193D01*
X2514Y192D01*
X2514Y190D01*
X2514Y189D01*
X2513Y189D01*
X2513Y188D01*
X2513Y187D01*
X2512Y186D01*
X2512Y186D01*
X2512Y185D01*
X2511Y185D01*
X2511Y184D01*
X2511Y184D01*
X2511Y184D01*
X2511Y184D01*
X2510Y183D01*
X2509Y182D01*
X2508Y182D01*
X2507Y181D01*
X2507Y181D01*
X2506Y180D01*
X2504Y180D01*
X2503Y180D01*
X2503Y180D01*
X2502Y179D01*
X2501Y179D01*
X2501Y179D01*
X2500D01*
X2499Y179D01*
X2498Y180D01*
X2497Y180D01*
X2496Y180D01*
X2495Y180D01*
X2494Y181D01*
X2493Y181D01*
X2492Y182D01*
X2492Y182D01*
X2491Y182D01*
X2491Y183D01*
X2490Y183D01*
X2490Y183D01*
X2490Y184D01*
X2490Y184D01*
X2490Y184D01*
X2489Y185D01*
X2488Y186D01*
X2488Y187D01*
X2487Y187D01*
X2487Y188D01*
X2486Y189D01*
X2486Y191D01*
X2486Y192D01*
X2486Y193D01*
X2486Y193D01*
X2486Y194D01*
X2485Y194D01*
Y195D01*
Y195D01*
Y195D01*
X2486Y196D01*
X2486Y198D01*
X2486Y199D01*
X2486Y200D01*
X2486Y201D01*
X2487Y202D01*
X2487Y203D01*
X2487Y203D01*
X2488Y204D01*
X2488Y205D01*
X2489Y205D01*
X2489Y206D01*
X2489Y206D01*
X2489Y206D01*
X2489Y206D01*
X2489Y206D01*
X2490Y207D01*
X2491Y208D01*
X2492Y209D01*
X2493Y209D01*
X2494Y210D01*
X2495Y210D01*
X2495Y210D01*
X2496Y210D01*
X2497Y211D01*
X2498Y211D01*
X2499Y211D01*
X2499Y211D01*
X2500Y211D01*
X2500D01*
X2502Y211D01*
D02*
G37*
G36*
X1965Y626D02*
X1966Y625D01*
X1966Y623D01*
X1967Y620D01*
X1968Y617D01*
X1968Y614D01*
X1970Y606D01*
X1971Y598D01*
X1972Y594D01*
X1973Y591D01*
X1973Y589D01*
X1974Y586D01*
X1974Y585D01*
Y585D01*
X1976Y584D01*
X1978Y583D01*
X1982Y580D01*
X1987Y578D01*
X1992Y576D01*
X1997Y575D01*
X1999Y574D01*
X2001Y573D01*
X2002Y573D01*
X2003Y572D01*
X2004Y572D01*
X2004D01*
X2039Y596D01*
X2040Y596D01*
X2041Y595D01*
X2043Y593D01*
X2045Y591D01*
X2047Y589D01*
X2049Y586D01*
X2055Y581D01*
X2060Y576D01*
X2063Y573D01*
X2065Y571D01*
X2067Y569D01*
X2068Y567D01*
X2069Y566D01*
X2069Y566D01*
Y565D01*
X2047Y531D01*
Y530D01*
X2047Y529D01*
X2047Y528D01*
X2048Y527D01*
X2049Y525D01*
X2049Y522D01*
X2050Y520D01*
X2053Y515D01*
X2055Y510D01*
X2056Y507D01*
X2057Y505D01*
X2058Y503D01*
X2058Y502D01*
X2059Y501D01*
X2059Y501D01*
X2059Y501D01*
X2060Y500D01*
X2062Y500D01*
X2064Y499D01*
X2067Y498D01*
X2070Y498D01*
X2076Y497D01*
X2083Y495D01*
X2086Y495D01*
X2089Y494D01*
X2091Y494D01*
X2093Y494D01*
X2094Y493D01*
X2094D01*
X2096Y493D01*
X2098Y493D01*
X2099Y492D01*
X2100Y491D01*
X2101Y490D01*
X2101Y489D01*
Y488D01*
Y488D01*
Y452D01*
X2100Y450D01*
X2100Y449D01*
X2098Y449D01*
X2096Y448D01*
X2093Y448D01*
X2090Y447D01*
X2087Y447D01*
X2080Y445D01*
X2073Y444D01*
X2070Y443D01*
X2067Y443D01*
X2065Y442D01*
X2063Y442D01*
X2062Y442D01*
X2061D01*
X2061Y442D01*
X2060Y440D01*
X2059Y439D01*
X2058Y437D01*
X2057Y434D01*
X2056Y432D01*
X2054Y426D01*
X2051Y420D01*
X2050Y417D01*
X2049Y415D01*
X2049Y413D01*
X2048Y411D01*
X2048Y410D01*
Y410D01*
Y408D01*
X2051Y403D01*
X2055Y398D01*
X2058Y394D01*
X2060Y390D01*
X2062Y387D01*
X2064Y384D01*
X2065Y382D01*
X2067Y380D01*
X2068Y379D01*
X2068Y378D01*
X2069Y377D01*
X2069Y376D01*
X2069Y376D01*
Y375D01*
Y375D01*
X2065Y371D01*
X2062Y367D01*
X2059Y364D01*
X2056Y361D01*
X2053Y358D01*
X2051Y356D01*
X2049Y354D01*
X2047Y352D01*
X2045Y350D01*
X2044Y349D01*
X2042Y347D01*
X2041Y346D01*
X2040Y346D01*
X2040D01*
X2039Y346D01*
X2038Y347D01*
X2036Y348D01*
X2034Y349D01*
X2031Y351D01*
X2029Y353D01*
X2023Y357D01*
X2017Y361D01*
X2014Y362D01*
X2012Y364D01*
X2010Y365D01*
X2008Y366D01*
X2007Y367D01*
X2007Y367D01*
X2005Y366D01*
X2002Y365D01*
X1997Y363D01*
X1995Y362D01*
X1993Y361D01*
X1992Y360D01*
X1991Y360D01*
X1991D01*
X1990Y360D01*
X1990Y361D01*
X1989Y362D01*
X1989Y363D01*
X1988Y364D01*
X1987Y366D01*
X1985Y371D01*
X1983Y376D01*
X1980Y382D01*
X1978Y388D01*
X1975Y394D01*
X1973Y401D01*
X1970Y407D01*
X1968Y412D01*
X1966Y418D01*
X1964Y422D01*
X1963Y424D01*
X1963Y425D01*
X1962Y426D01*
X1962Y427D01*
X1962Y428D01*
Y428D01*
Y429D01*
X1966Y432D01*
X1970Y436D01*
X1974Y439D01*
X1977Y442D01*
X1980Y446D01*
X1982Y449D01*
X1983Y452D01*
X1985Y456D01*
X1986Y458D01*
X1987Y461D01*
X1987Y464D01*
X1988Y466D01*
X1988Y467D01*
X1988Y469D01*
Y469D01*
Y470D01*
X1988Y475D01*
X1987Y477D01*
X1987Y479D01*
X1987Y481D01*
X1986Y483D01*
X1986Y484D01*
Y484D01*
X1983Y489D01*
X1980Y494D01*
X1977Y498D01*
X1974Y501D01*
X1971Y504D01*
X1967Y507D01*
X1964Y509D01*
X1960Y510D01*
X1957Y512D01*
X1954Y513D01*
X1952Y513D01*
X1949Y514D01*
X1948Y514D01*
X1946Y514D01*
X1944D01*
X1943Y514D01*
X1941Y514D01*
X1939D01*
X1937Y513D01*
X1936Y513D01*
X1935Y513D01*
X1934D01*
X1929Y510D01*
X1923Y508D01*
X1919Y505D01*
X1915Y501D01*
X1912Y498D01*
X1909Y494D01*
X1907Y491D01*
X1905Y487D01*
X1904Y484D01*
X1903Y481D01*
X1902Y478D01*
X1902Y475D01*
X1901Y473D01*
X1901Y472D01*
Y471D01*
Y470D01*
Y470D01*
X1901Y465D01*
X1902Y461D01*
X1904Y457D01*
X1905Y453D01*
X1907Y449D01*
X1909Y446D01*
X1912Y443D01*
X1914Y440D01*
X1917Y438D01*
X1919Y435D01*
X1921Y434D01*
X1923Y432D01*
X1925Y431D01*
X1926Y430D01*
X1927Y429D01*
X1927Y429D01*
Y429D01*
X1927Y428D01*
X1927Y427D01*
X1926Y425D01*
X1925Y423D01*
X1925Y422D01*
X1923Y417D01*
X1921Y412D01*
X1918Y406D01*
X1916Y400D01*
X1913Y393D01*
X1910Y387D01*
X1908Y381D01*
X1905Y375D01*
X1903Y370D01*
X1901Y366D01*
X1901Y364D01*
X1900Y362D01*
X1900Y361D01*
X1899Y360D01*
X1899Y360D01*
Y360D01*
X1898D01*
X1898Y360D01*
X1896Y361D01*
X1893Y362D01*
X1890Y364D01*
X1888Y365D01*
X1885Y366D01*
X1884Y367D01*
X1884Y367D01*
X1883Y367D01*
X1883D01*
X1883Y367D01*
X1881Y366D01*
X1880Y365D01*
X1877Y364D01*
X1875Y362D01*
X1872Y361D01*
X1866Y357D01*
X1860Y353D01*
X1858Y351D01*
X1855Y349D01*
X1853Y348D01*
X1852Y347D01*
X1851Y346D01*
X1850Y346D01*
X1849D01*
X1844Y351D01*
X1839Y355D01*
X1835Y359D01*
X1832Y363D01*
X1829Y365D01*
X1827Y368D01*
X1825Y370D01*
X1823Y372D01*
X1822Y373D01*
X1821Y374D01*
X1820Y375D01*
X1820Y375D01*
X1819Y376D01*
Y376D01*
X1823Y382D01*
X1827Y387D01*
X1830Y391D01*
X1832Y395D01*
X1834Y398D01*
X1836Y401D01*
X1837Y403D01*
X1839Y405D01*
X1840Y406D01*
X1840Y407D01*
X1841Y408D01*
X1841Y409D01*
X1841Y409D01*
Y410D01*
X1841Y410D01*
X1841Y411D01*
X1840Y413D01*
X1839Y415D01*
X1839Y417D01*
X1838Y420D01*
X1835Y426D01*
X1833Y431D01*
X1832Y434D01*
X1831Y436D01*
X1830Y438D01*
X1830Y439D01*
X1830Y440D01*
X1829Y441D01*
X1829Y441D01*
X1827Y441D01*
X1826Y442D01*
X1824Y442D01*
X1821Y443D01*
X1817Y444D01*
X1813Y445D01*
X1811Y445D01*
X1809Y445D01*
X1808Y446D01*
X1807D01*
X1806Y446D01*
X1806D01*
X1803Y446D01*
X1800Y447D01*
X1798Y447D01*
X1796Y448D01*
X1794Y448D01*
X1793Y448D01*
X1791Y449D01*
X1790Y449D01*
X1789Y450D01*
X1788Y450D01*
X1788Y451D01*
Y489D01*
Y490D01*
X1788Y491D01*
X1789Y491D01*
X1789Y491D01*
X1789Y492D01*
X1791Y492D01*
X1793Y493D01*
X1795Y493D01*
X1798Y494D01*
X1801Y495D01*
X1809Y496D01*
X1816Y497D01*
X1819Y498D01*
X1822Y498D01*
X1825Y499D01*
X1827Y499D01*
X1828Y499D01*
X1828D01*
X1829Y500D01*
X1830Y501D01*
X1831Y502D01*
X1832Y504D01*
X1833Y506D01*
X1834Y509D01*
X1836Y515D01*
X1839Y520D01*
X1840Y523D01*
X1841Y525D01*
X1841Y527D01*
X1842Y529D01*
X1842Y530D01*
X1843Y530D01*
Y531D01*
X1839Y537D01*
X1835Y542D01*
X1832Y546D01*
X1829Y550D01*
X1827Y554D01*
X1825Y556D01*
X1824Y559D01*
X1823Y561D01*
X1822Y562D01*
X1821Y563D01*
X1821Y564D01*
X1820Y565D01*
X1820Y565D01*
Y566D01*
Y566D01*
X1824Y570D01*
X1827Y574D01*
X1831Y577D01*
X1833Y580D01*
X1836Y583D01*
X1838Y585D01*
X1841Y587D01*
X1842Y589D01*
X1844Y591D01*
X1845Y592D01*
X1847Y594D01*
X1849Y595D01*
X1849Y595D01*
X1849D01*
X1850Y595D01*
X1851Y594D01*
X1853Y593D01*
X1856Y592D01*
X1858Y590D01*
X1861Y588D01*
X1868Y584D01*
X1874Y579D01*
X1877Y577D01*
X1879Y576D01*
X1882Y574D01*
X1883Y573D01*
X1884Y572D01*
X1885Y572D01*
X1885Y572D01*
X1887Y573D01*
X1888Y573D01*
X1890Y574D01*
X1893Y575D01*
X1895Y576D01*
X1900Y578D01*
X1906Y580D01*
X1908Y581D01*
X1910Y582D01*
X1912Y583D01*
X1913Y583D01*
X1914Y584D01*
X1914D01*
X1915Y585D01*
X1915Y586D01*
X1916Y588D01*
X1916Y590D01*
X1917Y593D01*
X1917Y595D01*
X1918Y601D01*
X1919Y606D01*
X1920Y609D01*
X1920Y611D01*
X1921Y613D01*
X1921Y614D01*
X1921Y615D01*
Y615D01*
Y617D01*
X1921Y619D01*
X1922Y622D01*
X1923Y624D01*
X1923Y625D01*
X1924Y626D01*
X1925Y627D01*
X1926Y627D01*
X1965D01*
X1965Y626D01*
D02*
G37*
G36*
X3066Y211D02*
X3066Y211D01*
X3067Y211D01*
X3068Y210D01*
X3069Y210D01*
X3070Y209D01*
X3070Y209D01*
X3071Y209D01*
X3071Y208D01*
X3071Y208D01*
X3072Y207D01*
X3072Y206D01*
X3072Y206D01*
X3073Y206D01*
Y210D01*
X3081D01*
Y170D01*
X3072D01*
Y183D01*
X3072Y183D01*
X3071Y182D01*
X3071Y181D01*
X3070Y181D01*
X3069Y181D01*
X3069Y180D01*
X3068Y180D01*
X3066Y180D01*
X3066Y179D01*
X3066Y179D01*
X3065Y179D01*
X3065D01*
X3064Y179D01*
X3063Y180D01*
X3062Y180D01*
X3061Y180D01*
X3060Y181D01*
X3059Y181D01*
X3058Y182D01*
X3057Y182D01*
X3057Y183D01*
X3057Y183D01*
X3057Y183D01*
X3057Y183D01*
X3056Y183D01*
X3056Y184D01*
X3055Y185D01*
X3055Y186D01*
X3055Y187D01*
X3054Y189D01*
X3054Y191D01*
X3053Y192D01*
X3053Y193D01*
X3053Y194D01*
Y194D01*
X3053Y195D01*
Y195D01*
Y195D01*
Y196D01*
X3053Y197D01*
X3053Y198D01*
X3053Y199D01*
X3054Y201D01*
X3054Y202D01*
X3054Y202D01*
X3054Y203D01*
X3055Y204D01*
X3055Y205D01*
X3055Y205D01*
X3056Y206D01*
X3056Y206D01*
X3056Y207D01*
X3056Y207D01*
X3056Y207D01*
X3056Y207D01*
X3057Y208D01*
X3058Y208D01*
X3058Y209D01*
X3059Y209D01*
X3060Y210D01*
X3060Y210D01*
X3062Y211D01*
X3063Y211D01*
X3063Y211D01*
X3064Y211D01*
X3064Y211D01*
X3064D01*
X3066Y211D01*
D02*
G37*
G36*
X2392D02*
X2393Y211D01*
X2395Y210D01*
X2396Y210D01*
X2397Y210D01*
X2397Y209D01*
X2398Y209D01*
X2398Y209D01*
X2398Y209D01*
X2398D01*
X2399Y208D01*
X2400Y207D01*
X2401Y206D01*
X2402Y205D01*
X2402Y205D01*
X2403Y204D01*
X2403Y204D01*
X2403Y204D01*
X2403Y204D01*
Y203D01*
X2403Y202D01*
X2404Y201D01*
X2404Y199D01*
X2404Y198D01*
X2405Y197D01*
Y196D01*
X2405Y196D01*
Y196D01*
Y195D01*
Y195D01*
Y195D01*
X2405Y194D01*
X2404Y193D01*
X2404Y192D01*
X2404Y190D01*
X2404Y189D01*
X2403Y189D01*
X2403Y188D01*
X2403Y187D01*
X2402Y186D01*
X2402Y186D01*
X2402Y185D01*
X2401Y185D01*
X2401Y184D01*
X2401Y184D01*
X2401Y184D01*
X2401Y184D01*
X2400Y183D01*
X2399Y182D01*
X2398Y182D01*
X2397Y181D01*
X2397Y181D01*
X2396Y180D01*
X2394Y180D01*
X2393Y180D01*
X2393Y180D01*
X2392Y179D01*
X2391Y179D01*
X2391Y179D01*
X2390D01*
X2389Y179D01*
X2388Y180D01*
X2387Y180D01*
X2386Y180D01*
X2385Y180D01*
X2384Y181D01*
X2383Y181D01*
X2382Y182D01*
X2382Y182D01*
X2381Y182D01*
X2381Y183D01*
X2380Y183D01*
X2380Y183D01*
X2380Y184D01*
X2380Y184D01*
X2380Y184D01*
X2379Y185D01*
X2378Y186D01*
X2378Y187D01*
X2377Y187D01*
X2377Y188D01*
X2376Y189D01*
X2376Y191D01*
X2376Y192D01*
X2376Y193D01*
X2376Y193D01*
X2376Y194D01*
X2376Y194D01*
Y195D01*
Y195D01*
Y195D01*
X2376Y196D01*
X2376Y198D01*
X2376Y199D01*
X2376Y200D01*
X2376Y201D01*
X2377Y202D01*
X2377Y203D01*
X2377Y203D01*
X2378Y204D01*
X2378Y205D01*
X2379Y205D01*
X2379Y206D01*
X2379Y206D01*
X2379Y206D01*
X2379Y206D01*
X2379Y206D01*
X2380Y207D01*
X2381Y208D01*
X2382Y209D01*
X2383Y209D01*
X2384Y210D01*
X2385Y210D01*
X2385Y210D01*
X2386Y210D01*
X2387Y211D01*
X2388Y211D01*
X2389Y211D01*
X2389Y211D01*
X2390Y211D01*
X2390D01*
X2392Y211D01*
D02*
G37*
G36*
X1799Y313D02*
X1801Y313D01*
X1802Y313D01*
X1802Y313D01*
X1805Y312D01*
X1806Y310D01*
X1808Y309D01*
X1809Y308D01*
X1812Y304D01*
X1813Y301D01*
X1814Y298D01*
X1814Y295D01*
X1815Y294D01*
Y293D01*
Y293D01*
Y293D01*
X1814Y290D01*
X1814Y287D01*
X1814Y286D01*
Y285D01*
X1814Y284D01*
Y284D01*
X1813Y282D01*
X1812Y280D01*
X1810Y278D01*
X1809Y276D01*
X1806Y274D01*
X1803Y273D01*
X1801Y272D01*
X1799Y271D01*
X1797Y271D01*
X1795D01*
X1792Y271D01*
X1789Y272D01*
X1787Y273D01*
X1785Y274D01*
X1783Y276D01*
X1782Y277D01*
X1781Y278D01*
X1781Y278D01*
Y278D01*
X1781Y279D01*
X1782Y280D01*
X1783Y280D01*
X1784Y281D01*
X1785Y282D01*
X1786Y283D01*
X1786Y283D01*
X1787Y284D01*
X1788Y282D01*
X1790Y281D01*
X1791Y280D01*
X1792Y280D01*
X1793Y280D01*
X1794Y279D01*
X1795D01*
X1797Y280D01*
X1798Y280D01*
X1801Y281D01*
X1803Y284D01*
X1805Y286D01*
X1806Y288D01*
X1806Y291D01*
X1806Y292D01*
Y292D01*
Y293D01*
X1806Y295D01*
X1806Y297D01*
X1805Y298D01*
X1804Y300D01*
X1803Y302D01*
X1801Y304D01*
X1799Y304D01*
X1797Y305D01*
X1796Y305D01*
X1796D01*
X1794Y305D01*
X1792Y304D01*
X1789Y303D01*
X1788Y302D01*
X1787Y302D01*
X1787Y301D01*
X1787Y301D01*
X1785Y302D01*
X1784Y303D01*
X1783Y304D01*
X1782Y305D01*
X1781Y306D01*
X1781Y306D01*
Y307D01*
X1783Y309D01*
X1785Y311D01*
X1788Y312D01*
X1790Y313D01*
X1791Y313D01*
X1793Y314D01*
X1797D01*
X1799Y313D01*
D02*
G37*
G36*
X2131D02*
X2133Y313D01*
X2134Y313D01*
X2135Y313D01*
X2138Y311D01*
X2141Y308D01*
X2143Y305D01*
X2144Y302D01*
X2145Y300D01*
X2145Y298D01*
X2145Y296D01*
Y296D01*
Y296D01*
Y289D01*
Y287D01*
X2145Y285D01*
X2145Y284D01*
Y283D01*
Y283D01*
X2144Y281D01*
X2143Y279D01*
X2141Y277D01*
X2140Y276D01*
X2138Y274D01*
X2135Y272D01*
X2133Y272D01*
X2131Y271D01*
X2129Y271D01*
X2126D01*
X2124Y271D01*
X2123Y271D01*
X2121Y272D01*
X2121Y272D01*
X2121D01*
X2119Y273D01*
X2117Y274D01*
X2115Y277D01*
X2113Y280D01*
X2112Y284D01*
X2111Y287D01*
X2111Y290D01*
X2110Y291D01*
Y291D01*
Y292D01*
Y292D01*
Y294D01*
X2111Y297D01*
X2111Y300D01*
X2112Y302D01*
X2113Y304D01*
X2114Y306D01*
X2115Y308D01*
X2118Y310D01*
X2121Y312D01*
X2123Y313D01*
X2124Y313D01*
X2125D01*
X2125Y314D01*
X2129D01*
X2131Y313D01*
D02*
G37*
G36*
X1952Y313D02*
X1954Y313D01*
X1956Y312D01*
X1958Y311D01*
X1959Y310D01*
X1960Y309D01*
X1962Y307D01*
X1963Y305D01*
X1964Y304D01*
X1964Y303D01*
Y302D01*
Y300D01*
X1964Y298D01*
X1963Y296D01*
X1962Y294D01*
X1960Y293D01*
X1959Y291D01*
X1958Y291D01*
X1957Y290D01*
X1957Y290D01*
X1954Y290D01*
X1951Y289D01*
X1949Y289D01*
X1947Y288D01*
X1945Y288D01*
X1944Y288D01*
X1943Y287D01*
X1942Y287D01*
X1941Y286D01*
X1940Y286D01*
X1940Y286D01*
Y283D01*
X1941Y281D01*
X1942Y280D01*
X1943Y280D01*
X1944Y279D01*
X1945Y279D01*
X1946Y279D01*
X1947D01*
X1950Y279D01*
X1953Y280D01*
X1955Y281D01*
X1957Y282D01*
X1959Y282D01*
X1960Y283D01*
X1960Y284D01*
X1961Y284D01*
X1963Y282D01*
X1964Y281D01*
X1965Y280D01*
X1966Y279D01*
X1966Y279D01*
X1966Y279D01*
Y278D01*
X1963Y276D01*
X1961Y274D01*
X1958Y273D01*
X1955Y272D01*
X1953Y271D01*
X1951Y271D01*
X1950Y271D01*
X1946D01*
X1944Y271D01*
X1941Y272D01*
X1939Y273D01*
X1937Y274D01*
X1936Y275D01*
X1934Y276D01*
X1933Y278D01*
X1931Y280D01*
X1931Y282D01*
X1931Y283D01*
Y283D01*
Y284D01*
X1931Y287D01*
X1932Y289D01*
X1933Y291D01*
X1935Y293D01*
X1936Y294D01*
X1937Y295D01*
X1938Y295D01*
X1939Y296D01*
X1942Y296D01*
X1944Y296D01*
X1946Y296D01*
X1948Y297D01*
X1950Y297D01*
X1951Y298D01*
X1953Y298D01*
X1954Y299D01*
X1955Y299D01*
X1955Y300D01*
Y300D01*
X1955Y302D01*
X1954Y303D01*
X1953Y304D01*
X1952Y305D01*
X1951Y305D01*
X1950Y306D01*
X1949D01*
X1946Y305D01*
X1944Y305D01*
X1942Y305D01*
X1941Y304D01*
X1939Y303D01*
X1938Y303D01*
X1938Y302D01*
X1937Y302D01*
X1937D01*
X1935Y304D01*
X1934Y305D01*
X1933Y306D01*
X1933Y307D01*
X1932Y308D01*
Y309D01*
X1935Y310D01*
X1938Y312D01*
X1940Y312D01*
X1942Y313D01*
X1944Y313D01*
X1946Y314D01*
X1950D01*
X1952Y313D01*
D02*
G37*
G36*
X1912Y313D02*
X1915Y313D01*
X1916Y313D01*
X1916Y312D01*
X1917Y312D01*
X1917D01*
X1920Y310D01*
X1922Y307D01*
X1924Y304D01*
X1925Y300D01*
X1926Y297D01*
X1926Y295D01*
X1926Y294D01*
Y293D01*
Y292D01*
Y292D01*
X1926Y289D01*
X1926Y287D01*
Y286D01*
Y285D01*
Y285D01*
Y285D01*
X1925Y282D01*
X1924Y280D01*
X1923Y278D01*
X1922Y277D01*
X1919Y274D01*
X1917Y273D01*
X1915Y272D01*
X1913Y271D01*
X1912Y271D01*
X1908D01*
X1905Y271D01*
X1903Y272D01*
X1901Y273D01*
X1899Y274D01*
X1896Y277D01*
X1894Y280D01*
X1893Y283D01*
X1892Y286D01*
X1892Y287D01*
X1892Y288D01*
Y289D01*
Y289D01*
Y296D01*
X1892Y299D01*
X1893Y302D01*
X1894Y304D01*
X1895Y306D01*
X1896Y308D01*
X1897Y309D01*
X1899Y310D01*
X1900Y311D01*
X1903Y313D01*
X1906Y313D01*
X1906Y314D01*
X1910D01*
X1912Y313D01*
D02*
G37*
G36*
X1825D02*
X1827Y313D01*
X1828Y312D01*
X1830Y312D01*
X1831Y311D01*
X1832Y310D01*
X1833Y310D01*
X1833Y309D01*
Y311D01*
X1833Y312D01*
Y312D01*
X1834Y313D01*
X1834Y313D01*
X1841D01*
X1841Y313D01*
X1842Y313D01*
X1842Y312D01*
Y312D01*
Y273D01*
X1842Y272D01*
X1841Y272D01*
X1841Y271D01*
X1834D01*
X1834Y272D01*
X1833Y272D01*
Y272D01*
Y273D01*
Y297D01*
X1833Y300D01*
X1832Y302D01*
X1831Y303D01*
X1829Y304D01*
X1828Y305D01*
X1826Y305D01*
X1825Y305D01*
X1825D01*
X1823Y305D01*
X1822Y304D01*
X1821Y304D01*
X1820Y304D01*
X1819D01*
X1814Y310D01*
X1815Y311D01*
X1816Y312D01*
X1817Y313D01*
X1818Y313D01*
X1819Y313D01*
X1820Y314D01*
X1823D01*
X1825Y313D01*
D02*
G37*
G36*
X2053Y313D02*
X2055Y312D01*
X2057Y310D01*
X2059Y309D01*
X2061Y305D01*
X2063Y301D01*
X2064Y298D01*
X2064Y295D01*
X2065Y294D01*
Y293D01*
Y292D01*
Y292D01*
Y291D01*
X2064Y289D01*
X2064Y286D01*
X2064Y285D01*
Y284D01*
X2064Y283D01*
Y283D01*
X2063Y281D01*
X2062Y279D01*
X2060Y277D01*
X2059Y276D01*
X2056Y274D01*
X2054Y272D01*
X2051Y272D01*
X2049Y271D01*
X2048Y271D01*
X2045D01*
X2042Y271D01*
X2039Y272D01*
X2037Y273D01*
X2035Y274D01*
X2033Y275D01*
X2032Y276D01*
X2032Y277D01*
X2031Y277D01*
Y278D01*
X2032Y278D01*
X2032Y279D01*
X2034Y281D01*
X2036Y282D01*
X2036Y282D01*
X2037Y283D01*
X2037D01*
X2039Y281D01*
X2040Y280D01*
X2042Y280D01*
X2043Y279D01*
X2044Y279D01*
X2045Y279D01*
X2046D01*
X2049Y279D01*
X2051Y280D01*
X2053Y282D01*
X2054Y284D01*
X2055Y286D01*
X2056Y287D01*
X2056Y288D01*
Y289D01*
X2031D01*
X2030Y289D01*
X2030Y289D01*
Y290D01*
Y290D01*
Y295D01*
Y297D01*
X2030Y299D01*
X2030Y300D01*
Y300D01*
X2031Y302D01*
X2032Y304D01*
X2033Y306D01*
X2034Y308D01*
X2037Y310D01*
X2040Y312D01*
X2042Y313D01*
X2045Y313D01*
X2046Y314D01*
X2051D01*
X2053Y313D01*
D02*
G37*
G36*
X1766D02*
X1768Y312D01*
X1770Y311D01*
X1772Y309D01*
X1773Y308D01*
X1774Y306D01*
X1776Y303D01*
X1777Y300D01*
X1778Y297D01*
X1778Y296D01*
Y295D01*
Y294D01*
Y294D01*
Y290D01*
Y288D01*
X1778Y286D01*
X1778Y285D01*
Y285D01*
Y285D01*
X1777Y282D01*
X1776Y280D01*
X1775Y278D01*
X1773Y277D01*
X1771Y274D01*
X1768Y273D01*
X1766Y272D01*
X1763Y271D01*
X1762Y271D01*
X1759D01*
X1756Y271D01*
X1753Y272D01*
X1751Y273D01*
X1749Y274D01*
X1747Y275D01*
X1746Y276D01*
X1745Y277D01*
X1745Y277D01*
Y278D01*
X1745Y278D01*
X1746Y279D01*
X1748Y281D01*
X1749Y281D01*
X1750Y282D01*
X1750Y282D01*
X1750Y283D01*
X1751D01*
X1753Y281D01*
X1754Y280D01*
X1756Y280D01*
X1757Y279D01*
X1758Y279D01*
X1759Y279D01*
X1760D01*
X1763Y279D01*
X1765Y280D01*
X1767Y282D01*
X1768Y284D01*
X1769Y285D01*
X1770Y287D01*
X1770Y288D01*
Y288D01*
Y289D01*
X1746D01*
X1745Y289D01*
X1745Y289D01*
X1744Y290D01*
Y290D01*
Y302D01*
X1745Y304D01*
X1746Y306D01*
X1749Y309D01*
X1751Y311D01*
X1754Y312D01*
X1756Y313D01*
X1758Y313D01*
X1759Y314D01*
X1763D01*
X1766Y313D01*
D02*
G37*
G36*
X2007Y313D02*
X2008Y313D01*
X2011Y311D01*
X2013Y310D01*
X2014Y310D01*
X2014Y309D01*
X2014Y309D01*
Y310D01*
X2015Y311D01*
X2015Y312D01*
Y313D01*
X2015Y313D01*
X2022D01*
X2022Y313D01*
X2023Y313D01*
X2023Y312D01*
Y312D01*
Y273D01*
X2023Y272D01*
X2022Y272D01*
X2022Y271D01*
X2016D01*
X2015Y272D01*
X2015Y272D01*
X2014Y272D01*
Y273D01*
Y294D01*
Y296D01*
X2014Y297D01*
X2013Y300D01*
X2012Y302D01*
X2010Y304D01*
X2009Y305D01*
X2007Y305D01*
X2006Y305D01*
X2006D01*
X2003Y305D01*
X2001Y304D01*
X2000Y303D01*
X1999Y301D01*
X1999Y300D01*
X1998Y299D01*
Y299D01*
Y298D01*
Y273D01*
X1998Y272D01*
X1998Y272D01*
X1997Y271D01*
X1990D01*
X1990Y272D01*
X1989Y272D01*
Y272D01*
Y273D01*
Y298D01*
Y300D01*
X1989Y301D01*
X1990Y303D01*
Y303D01*
X1991Y307D01*
X1993Y309D01*
X1996Y311D01*
X1998Y312D01*
X2000Y313D01*
X2002Y313D01*
X2003Y314D01*
X2005D01*
X2007Y313D01*
D02*
G37*
G36*
X2231Y143D02*
X2222D01*
Y152D01*
X2231D01*
Y143D01*
D02*
G37*
G36*
X3455Y110D02*
X3446D01*
Y127D01*
Y128D01*
X3446Y129D01*
X3446Y129D01*
X3446Y130D01*
X3446Y131D01*
X3445Y132D01*
X3445Y132D01*
X3445Y132D01*
X3445Y133D01*
X3445Y133D01*
X3444Y133D01*
X3443Y133D01*
X3443Y134D01*
X3442Y134D01*
X3442Y134D01*
X3442Y134D01*
X3441D01*
X3440Y134D01*
X3440Y134D01*
X3440Y134D01*
X3439Y133D01*
X3439Y133D01*
X3439Y133D01*
X3439Y133D01*
X3438Y132D01*
X3438Y132D01*
X3438Y132D01*
X3438Y131D01*
Y131D01*
X3438Y131D01*
X3438Y130D01*
X3438Y129D01*
Y128D01*
Y128D01*
Y127D01*
Y127D01*
Y127D01*
Y110D01*
X3429D01*
Y130D01*
X3429Y131D01*
X3429Y133D01*
X3429Y134D01*
X3429Y135D01*
X3429Y135D01*
X3430Y136D01*
X3430Y136D01*
X3430Y136D01*
X3430Y137D01*
X3431Y138D01*
X3431Y138D01*
X3432Y139D01*
X3432Y139D01*
X3432Y139D01*
X3433Y140D01*
X3433Y140D01*
X3434Y140D01*
X3435Y140D01*
X3435Y141D01*
X3436Y141D01*
X3437Y141D01*
X3438Y141D01*
X3438D01*
X3439Y141D01*
X3440Y141D01*
X3441Y141D01*
X3442Y140D01*
X3443Y140D01*
X3443Y140D01*
X3444Y139D01*
X3444Y139D01*
X3445Y138D01*
X3445Y138D01*
X3446Y137D01*
X3446Y137D01*
X3446Y137D01*
X3446Y136D01*
X3446Y136D01*
Y151D01*
X3455D01*
Y110D01*
D02*
G37*
G36*
X3234D02*
X3225D01*
Y127D01*
Y128D01*
X3225Y129D01*
X3225Y129D01*
X3225Y130D01*
X3225Y131D01*
X3224Y132D01*
X3224Y132D01*
X3224Y132D01*
X3223Y133D01*
X3223Y133D01*
X3223Y133D01*
X3222Y133D01*
X3222Y134D01*
X3221Y134D01*
X3221Y134D01*
X3220Y134D01*
X3220D01*
X3219Y134D01*
X3218Y134D01*
X3218Y134D01*
X3218Y133D01*
X3218Y133D01*
X3218Y133D01*
X3217Y133D01*
X3217Y132D01*
X3217Y132D01*
X3217Y132D01*
X3217Y131D01*
Y131D01*
X3217Y131D01*
X3217Y130D01*
X3217Y129D01*
Y128D01*
Y128D01*
Y127D01*
Y127D01*
Y127D01*
Y110D01*
X3208D01*
Y130D01*
X3208Y131D01*
X3208Y133D01*
X3208Y134D01*
X3208Y135D01*
X3208Y135D01*
X3208Y136D01*
X3208Y136D01*
X3208Y136D01*
X3209Y137D01*
X3209Y138D01*
X3210Y138D01*
X3210Y139D01*
X3211Y139D01*
X3211Y139D01*
X3211Y140D01*
X3212Y140D01*
X3212Y140D01*
X3213Y140D01*
X3214Y141D01*
X3215Y141D01*
X3216Y141D01*
X3216Y141D01*
X3217D01*
X3218Y141D01*
X3219Y141D01*
X3220Y141D01*
X3220Y140D01*
X3221Y140D01*
X3222Y140D01*
X3223Y139D01*
X3223Y139D01*
X3224Y138D01*
X3224Y138D01*
X3224Y137D01*
X3225Y137D01*
X3225Y137D01*
X3225Y136D01*
X3225Y136D01*
Y151D01*
X3234D01*
Y110D01*
D02*
G37*
G36*
X2788Y143D02*
X2779D01*
Y152D01*
X2788D01*
Y143D01*
D02*
G37*
G36*
X285Y492D02*
X291Y492D01*
X297Y491D01*
X302Y490D01*
X306Y490D01*
X309Y489D01*
X313Y489D01*
X315Y488D01*
X317Y488D01*
X318Y487D01*
X320Y486D01*
X321Y486D01*
Y486D01*
Y466D01*
X320Y465D01*
X318Y464D01*
X316Y463D01*
X313Y463D01*
X310Y462D01*
X307Y461D01*
X299Y460D01*
X291Y459D01*
X287Y459D01*
X284D01*
X282Y459D01*
X278D01*
X271Y459D01*
X264Y459D01*
X259Y460D01*
X254Y460D01*
X250Y461D01*
X246Y461D01*
X243Y462D01*
X241Y463D01*
X239Y463D01*
X237Y464D01*
X235Y464D01*
X235Y465D01*
X234Y465D01*
Y470D01*
Y475D01*
X235Y480D01*
X235Y482D01*
Y484D01*
X235Y485D01*
Y486D01*
X236Y486D01*
X238Y487D01*
X240Y488D01*
X243Y489D01*
X246Y489D01*
X250Y490D01*
X258Y491D01*
X265Y492D01*
X268Y492D01*
X274D01*
X276Y492D01*
X278D01*
X285Y492D01*
D02*
G37*
G36*
X396Y500D02*
X400Y497D01*
X402Y494D01*
X405Y491D01*
X407Y489D01*
X409Y487D01*
X412Y484D01*
X414Y483D01*
X414Y482D01*
X415Y481D01*
X416Y482D01*
X417Y482D01*
X420Y482D01*
X423Y483D01*
X424D01*
X433Y481D01*
X439Y479D01*
X444Y476D01*
X448Y473D01*
X451Y470D01*
X455Y467D01*
X457Y464D01*
X459Y461D01*
X461Y457D01*
X463Y451D01*
X465Y447D01*
Y445D01*
X465Y443D01*
Y442D01*
Y442D01*
X465Y438D01*
X464Y435D01*
X464Y433D01*
X463Y432D01*
X438Y456D01*
X433Y451D01*
X429Y447D01*
X425Y443D01*
X422Y440D01*
X418Y437D01*
X416Y434D01*
X414Y432D01*
X413Y431D01*
X410Y429D01*
X409Y427D01*
X409Y427D01*
X432Y402D01*
Y401D01*
X429D01*
X427Y400D01*
X425Y400D01*
X424D01*
X420Y400D01*
X417Y401D01*
X415Y401D01*
X413Y402D01*
X411Y402D01*
X410Y403D01*
X409Y403D01*
X409D01*
X404Y406D01*
X400Y408D01*
X397Y412D01*
X393Y414D01*
X391Y418D01*
X389Y421D01*
X385Y427D01*
X384Y432D01*
X383Y437D01*
X382Y439D01*
Y440D01*
Y441D01*
Y441D01*
X383Y444D01*
X383Y447D01*
Y449D01*
Y449D01*
Y450D01*
X358Y476D01*
X358Y477D01*
X360Y478D01*
X361Y480D01*
X364Y482D01*
X369Y486D01*
X376Y491D01*
X382Y496D01*
X387Y500D01*
X389Y502D01*
X391Y503D01*
X392Y504D01*
X392Y504D01*
X396Y500D01*
D02*
G37*
G36*
X2958Y143D02*
X2949D01*
Y152D01*
X2958D01*
Y143D01*
D02*
G37*
G36*
X2566Y152D02*
X2567Y151D01*
X2569Y151D01*
X2570Y151D01*
X2571Y150D01*
X2572Y150D01*
X2573Y149D01*
X2574Y149D01*
X2575Y148D01*
X2575Y148D01*
X2576Y147D01*
X2576Y147D01*
X2577Y146D01*
X2577Y146D01*
X2577Y146D01*
X2577Y146D01*
X2578Y144D01*
X2578Y143D01*
X2579Y142D01*
X2579Y141D01*
X2580Y139D01*
X2580Y138D01*
X2580Y137D01*
X2581Y135D01*
X2581Y134D01*
X2581Y133D01*
X2581Y132D01*
X2581Y132D01*
X2581Y131D01*
Y130D01*
Y130D01*
Y130D01*
X2581Y128D01*
X2581Y127D01*
X2581Y125D01*
X2581Y124D01*
X2580Y123D01*
X2580Y123D01*
X2580Y122D01*
X2580Y122D01*
X2580Y121D01*
X2580Y121D01*
X2580Y121D01*
Y121D01*
X2579Y119D01*
X2579Y118D01*
X2578Y116D01*
X2577Y115D01*
X2576Y114D01*
X2576Y114D01*
X2575Y113D01*
X2575Y113D01*
X2575Y113D01*
X2575Y113D01*
X2575Y113D01*
X2574Y112D01*
X2573Y112D01*
X2572Y111D01*
X2571Y111D01*
X2570Y110D01*
X2568Y110D01*
X2567Y110D01*
X2567Y110D01*
X2566Y109D01*
X2565Y109D01*
X2565Y109D01*
X2564D01*
X2563Y109D01*
X2562Y110D01*
X2561Y110D01*
X2560Y110D01*
X2559Y110D01*
X2558Y111D01*
X2557Y111D01*
X2556Y111D01*
X2556Y112D01*
X2555Y112D01*
X2555Y113D01*
X2554Y113D01*
X2554Y113D01*
X2554Y113D01*
X2554Y113D01*
X2554Y113D01*
X2553Y114D01*
X2552Y115D01*
X2552Y116D01*
X2551Y117D01*
X2551Y118D01*
X2550Y118D01*
X2550Y120D01*
X2550Y121D01*
X2550Y121D01*
X2550Y122D01*
X2549Y122D01*
X2549Y123D01*
Y123D01*
Y123D01*
Y123D01*
X2549Y124D01*
X2550Y125D01*
X2550Y126D01*
X2550Y127D01*
X2551Y128D01*
X2551Y130D01*
X2552Y130D01*
X2552Y131D01*
X2552Y131D01*
X2553Y131D01*
X2553Y132D01*
X2553Y132D01*
X2553Y132D01*
X2553Y132D01*
X2554Y133D01*
X2555Y133D01*
X2555Y134D01*
X2556Y134D01*
X2557Y135D01*
X2558Y135D01*
X2559Y135D01*
X2560Y135D01*
X2560Y136D01*
X2561Y136D01*
X2561Y136D01*
X2562Y136D01*
X2562D01*
X2564Y136D01*
X2565Y136D01*
X2566Y135D01*
X2567Y135D01*
X2567Y135D01*
X2568Y134D01*
X2569Y134D01*
X2569Y133D01*
X2570Y133D01*
X2570Y133D01*
X2571Y132D01*
X2571Y132D01*
X2571Y132D01*
X2572Y131D01*
X2572Y131D01*
X2572Y131D01*
Y132D01*
X2572Y134D01*
X2571Y135D01*
X2571Y136D01*
X2571Y137D01*
X2571Y137D01*
X2571Y138D01*
X2571Y139D01*
X2570Y140D01*
X2569Y141D01*
X2569Y142D01*
X2568Y143D01*
X2567Y144D01*
X2567Y144D01*
X2566Y144D01*
X2566Y145D01*
X2565Y145D01*
X2565Y145D01*
X2564D01*
X2564Y145D01*
X2563Y145D01*
X2562Y144D01*
X2561Y144D01*
X2561Y143D01*
X2560Y143D01*
X2560Y142D01*
X2560Y142D01*
X2559Y141D01*
X2559Y140D01*
X2559Y139D01*
X2558Y139D01*
X2558Y139D01*
X2558Y139D01*
Y139D01*
X2550Y141D01*
X2550Y142D01*
X2550Y142D01*
X2551Y144D01*
X2552Y145D01*
X2553Y146D01*
X2553Y147D01*
X2554Y148D01*
X2554Y148D01*
X2554Y148D01*
X2555Y148D01*
X2555Y148D01*
X2555Y149D01*
X2556Y150D01*
X2557Y150D01*
X2558Y150D01*
X2559Y151D01*
X2561Y151D01*
X2562Y151D01*
X2562Y152D01*
X2563Y152D01*
X2563D01*
X2564Y152D01*
X2564D01*
X2566Y152D01*
D02*
G37*
G36*
X3189Y141D02*
X3190Y141D01*
X3192Y140D01*
X3193Y140D01*
X3194Y140D01*
X3195Y140D01*
X3195Y139D01*
X3195Y139D01*
X3196Y139D01*
X3196Y139D01*
X3196Y139D01*
X3196D01*
X3197Y138D01*
X3198Y138D01*
X3198Y137D01*
X3199Y137D01*
X3199Y136D01*
X3200Y134D01*
X3201Y133D01*
X3201Y133D01*
X3201Y132D01*
X3201Y132D01*
X3201Y132D01*
X3201Y132D01*
Y132D01*
X3193Y131D01*
X3193Y132D01*
X3192Y132D01*
X3192Y133D01*
X3192Y133D01*
X3191Y134D01*
X3191Y134D01*
X3190Y135D01*
X3189Y135D01*
X3188Y135D01*
X3188Y135D01*
X3188D01*
X3187Y135D01*
X3186Y135D01*
X3185Y135D01*
X3185Y134D01*
X3185Y134D01*
X3184Y134D01*
X3184Y133D01*
X3184Y133D01*
X3183Y132D01*
X3183Y131D01*
X3183Y131D01*
Y131D01*
Y131D01*
Y131D01*
Y129D01*
X3185Y129D01*
X3186Y129D01*
X3188Y129D01*
X3189Y128D01*
X3190Y128D01*
X3191Y128D01*
X3192Y128D01*
X3193Y128D01*
X3193Y127D01*
X3194Y127D01*
X3194Y127D01*
X3195Y127D01*
X3195Y127D01*
X3195Y127D01*
X3195Y127D01*
X3196D01*
X3197Y126D01*
X3198Y126D01*
X3199Y125D01*
X3199Y125D01*
X3200Y124D01*
X3200Y124D01*
X3200Y123D01*
X3200Y123D01*
X3201Y122D01*
X3201Y121D01*
X3202Y120D01*
X3202Y120D01*
X3202Y119D01*
X3202Y118D01*
Y118D01*
Y118D01*
Y118D01*
X3202Y116D01*
X3202Y115D01*
X3201Y114D01*
X3201Y113D01*
X3200Y113D01*
X3200Y112D01*
X3199Y112D01*
X3199Y112D01*
X3198Y111D01*
X3197Y110D01*
X3196Y110D01*
X3195Y110D01*
X3194Y109D01*
X3194Y109D01*
X3193D01*
X3193Y109D01*
X3192D01*
X3191Y109D01*
X3190Y110D01*
X3190Y110D01*
X3189Y110D01*
X3188Y110D01*
X3188Y110D01*
X3187Y110D01*
X3187Y110D01*
X3186Y111D01*
X3186Y111D01*
X3185Y112D01*
X3184Y113D01*
X3184Y114D01*
X3183Y114D01*
X3183Y115D01*
X3183Y115D01*
Y114D01*
X3183Y113D01*
X3183Y112D01*
X3182Y111D01*
X3182Y111D01*
X3182Y110D01*
X3182Y110D01*
Y110D01*
X3174D01*
X3174Y111D01*
X3174Y112D01*
X3174Y113D01*
X3174Y113D01*
X3174Y114D01*
Y115D01*
Y115D01*
Y115D01*
Y116D01*
Y116D01*
Y129D01*
Y131D01*
X3174Y132D01*
X3174Y133D01*
X3174Y134D01*
X3174Y134D01*
X3175Y135D01*
X3175Y135D01*
Y135D01*
X3175Y136D01*
X3175Y136D01*
X3176Y137D01*
X3176Y137D01*
X3176Y138D01*
X3176Y138D01*
X3177Y138D01*
X3177Y138D01*
X3177Y139D01*
X3178Y139D01*
X3179Y139D01*
X3179Y140D01*
X3180Y140D01*
X3181Y140D01*
X3181Y140D01*
X3181D01*
X3182Y141D01*
X3183Y141D01*
X3184Y141D01*
X3185Y141D01*
X3186D01*
X3186Y141D01*
X3187D01*
X3189Y141D01*
D02*
G37*
G36*
X3090D02*
X3092Y141D01*
X3094Y140D01*
X3095Y140D01*
X3096Y140D01*
X3096Y140D01*
X3097Y139D01*
X3097Y139D01*
X3097Y139D01*
X3097Y139D01*
X3098Y139D01*
X3098D01*
X3098Y138D01*
X3099Y138D01*
X3100Y137D01*
X3100Y137D01*
X3101Y136D01*
X3102Y134D01*
X3102Y133D01*
X3102Y133D01*
X3102Y132D01*
X3102Y132D01*
X3102Y132D01*
X3103Y132D01*
Y132D01*
X3094Y131D01*
X3094Y132D01*
X3094Y132D01*
X3094Y133D01*
X3093Y133D01*
X3093Y134D01*
X3092Y134D01*
X3091Y135D01*
X3091Y135D01*
X3090Y135D01*
X3090Y135D01*
X3089D01*
X3088Y135D01*
X3088Y135D01*
X3087Y135D01*
X3086Y134D01*
X3086Y134D01*
X3086Y134D01*
X3085Y133D01*
X3085Y133D01*
X3085Y132D01*
X3085Y131D01*
X3085Y131D01*
Y131D01*
Y131D01*
Y131D01*
Y129D01*
X3086Y129D01*
X3088Y129D01*
X3089Y129D01*
X3090Y128D01*
X3091Y128D01*
X3093Y128D01*
X3093Y128D01*
X3094Y128D01*
X3095Y127D01*
X3095Y127D01*
X3096Y127D01*
X3096Y127D01*
X3097Y127D01*
X3097Y127D01*
X3097Y127D01*
X3097D01*
X3098Y126D01*
X3099Y126D01*
X3100Y125D01*
X3101Y125D01*
X3101Y124D01*
X3102Y124D01*
X3102Y123D01*
X3102Y123D01*
X3102Y122D01*
X3103Y121D01*
X3103Y120D01*
X3103Y120D01*
X3103Y119D01*
X3103Y118D01*
Y118D01*
Y118D01*
Y118D01*
X3103Y116D01*
X3103Y115D01*
X3103Y114D01*
X3102Y113D01*
X3102Y113D01*
X3101Y112D01*
X3101Y112D01*
X3101Y112D01*
X3100Y111D01*
X3099Y110D01*
X3097Y110D01*
X3096Y110D01*
X3095Y109D01*
X3095Y109D01*
X3095D01*
X3094Y109D01*
X3094D01*
X3093Y109D01*
X3092Y110D01*
X3091Y110D01*
X3090Y110D01*
X3090Y110D01*
X3089Y110D01*
X3089Y110D01*
X3089Y110D01*
X3088Y111D01*
X3087Y111D01*
X3086Y112D01*
X3086Y113D01*
X3085Y114D01*
X3085Y114D01*
X3084Y115D01*
X3084Y115D01*
Y114D01*
X3084Y113D01*
X3084Y112D01*
X3084Y111D01*
X3084Y111D01*
X3084Y110D01*
X3084Y110D01*
Y110D01*
X3075D01*
X3075Y111D01*
X3075Y112D01*
X3075Y113D01*
X3076Y113D01*
X3076Y114D01*
Y115D01*
Y115D01*
Y115D01*
Y116D01*
Y116D01*
Y129D01*
Y131D01*
X3076Y132D01*
X3076Y133D01*
X3076Y134D01*
X3076Y134D01*
X3076Y135D01*
X3076Y135D01*
Y135D01*
X3076Y136D01*
X3077Y136D01*
X3077Y137D01*
X3077Y137D01*
X3078Y138D01*
X3078Y138D01*
X3078Y138D01*
X3078Y138D01*
X3079Y139D01*
X3080Y139D01*
X3080Y139D01*
X3081Y140D01*
X3082Y140D01*
X3082Y140D01*
X3082Y140D01*
X3083D01*
X3084Y141D01*
X3085Y141D01*
X3086Y141D01*
X3086Y141D01*
X3087D01*
X3088Y141D01*
X3088D01*
X3090Y141D01*
D02*
G37*
G36*
X3316Y131D02*
X3307D01*
Y140D01*
X3316D01*
Y131D01*
D02*
G37*
G36*
X2492Y110D02*
X2483D01*
Y127D01*
Y128D01*
X2483Y129D01*
X2483Y129D01*
X2483Y130D01*
X2483Y131D01*
X2482Y132D01*
X2482Y132D01*
X2482Y132D01*
X2482Y133D01*
X2481Y133D01*
X2481Y133D01*
X2480Y133D01*
X2480Y134D01*
X2479Y134D01*
X2479Y134D01*
X2478Y134D01*
X2478D01*
X2477Y134D01*
X2477Y134D01*
X2476Y134D01*
X2476Y133D01*
X2476Y133D01*
X2476Y133D01*
X2475Y133D01*
X2475Y132D01*
X2475Y132D01*
X2475Y132D01*
X2475Y131D01*
Y131D01*
X2475Y131D01*
X2475Y130D01*
X2475Y129D01*
Y128D01*
Y128D01*
Y127D01*
Y127D01*
Y127D01*
Y110D01*
X2466D01*
Y130D01*
X2466Y131D01*
X2466Y133D01*
X2466Y134D01*
X2466Y135D01*
X2466Y135D01*
X2466Y136D01*
X2466Y136D01*
X2466Y136D01*
X2467Y137D01*
X2467Y138D01*
X2468Y138D01*
X2468Y139D01*
X2469Y139D01*
X2469Y139D01*
X2469Y140D01*
X2470Y140D01*
X2470Y140D01*
X2471Y140D01*
X2472Y141D01*
X2473Y141D01*
X2474Y141D01*
X2474Y141D01*
X2475D01*
X2476Y141D01*
X2477Y141D01*
X2478Y141D01*
X2479Y140D01*
X2479Y140D01*
X2480Y140D01*
X2481Y139D01*
X2481Y139D01*
X2482Y138D01*
X2482Y138D01*
X2482Y137D01*
X2483Y137D01*
X2483Y137D01*
X2483Y136D01*
X2483Y136D01*
Y151D01*
X2492D01*
Y110D01*
D02*
G37*
G36*
X2639Y152D02*
X2640Y152D01*
X2642Y151D01*
X2643Y151D01*
X2644Y150D01*
X2646Y150D01*
X2648Y149D01*
X2649Y147D01*
X2650Y146D01*
X2651Y145D01*
X2652Y144D01*
X2652Y142D01*
X2653Y141D01*
X2653Y140D01*
X2654Y139D01*
X2654Y139D01*
X2654Y138D01*
Y138D01*
X2654Y138D01*
Y138D01*
X2646Y136D01*
X2645Y138D01*
X2645Y139D01*
X2645Y140D01*
X2644Y141D01*
X2644Y142D01*
X2643Y142D01*
X2642Y143D01*
X2642Y143D01*
X2641Y143D01*
X2641Y144D01*
X2640Y144D01*
X2640Y144D01*
X2639Y144D01*
X2639Y144D01*
X2639D01*
X2638Y144D01*
X2637Y144D01*
X2636Y144D01*
X2636Y143D01*
X2635Y143D01*
X2635Y143D01*
X2635Y143D01*
X2634Y143D01*
X2634Y142D01*
X2634Y141D01*
X2633Y141D01*
X2633Y140D01*
X2633Y139D01*
X2633Y139D01*
Y139D01*
Y139D01*
X2633Y138D01*
X2633Y137D01*
X2633Y137D01*
X2633Y136D01*
X2634Y135D01*
X2635Y134D01*
X2636Y133D01*
X2636Y132D01*
X2636Y132D01*
X2637Y132D01*
X2637Y132D01*
X2637Y131D01*
X2638Y131D01*
X2638Y130D01*
X2639Y129D01*
X2640Y128D01*
X2642Y127D01*
X2644Y125D01*
X2645Y124D01*
X2646Y124D01*
X2647Y123D01*
X2648Y123D01*
X2648Y122D01*
X2649Y122D01*
X2649Y122D01*
X2649Y122D01*
X2650Y121D01*
X2651Y120D01*
X2652Y119D01*
X2653Y119D01*
X2653Y118D01*
X2654Y118D01*
X2654Y118D01*
X2654Y118D01*
Y110D01*
X2623D01*
X2622Y118D01*
X2642D01*
X2640Y119D01*
X2638Y120D01*
X2637Y122D01*
X2635Y123D01*
X2634Y124D01*
X2633Y124D01*
X2632Y125D01*
X2631Y126D01*
X2630Y127D01*
X2629Y127D01*
X2628Y128D01*
X2628Y128D01*
X2628Y128D01*
X2627Y129D01*
X2627Y129D01*
X2627Y129D01*
X2626Y130D01*
X2626Y131D01*
X2625Y131D01*
X2625Y132D01*
X2624Y133D01*
X2624Y134D01*
X2624Y135D01*
X2623Y136D01*
X2623Y137D01*
X2623Y137D01*
X2623Y138D01*
X2623Y138D01*
Y139D01*
Y139D01*
Y139D01*
X2623Y140D01*
X2623Y141D01*
X2623Y142D01*
X2624Y142D01*
X2624Y144D01*
X2625Y145D01*
X2625Y146D01*
X2626Y146D01*
X2626Y147D01*
X2626Y147D01*
X2627Y147D01*
X2627Y148D01*
X2627Y148D01*
X2627Y148D01*
X2628Y149D01*
X2629Y149D01*
X2629Y150D01*
X2630Y150D01*
X2631Y150D01*
X2632Y151D01*
X2634Y151D01*
X2635Y151D01*
X2636Y152D01*
X2636Y152D01*
X2637Y152D01*
X2637Y152D01*
X2638D01*
X2639Y152D01*
D02*
G37*
G36*
X3343Y180D02*
X3333D01*
Y195D01*
X3325D01*
X3324Y195D01*
X3323Y195D01*
X3322Y196D01*
X3321Y196D01*
X3320Y196D01*
X3320Y196D01*
X3320D01*
X3319Y196D01*
X3319Y196D01*
X3318Y197D01*
X3317Y197D01*
X3317Y197D01*
X3316Y198D01*
X3316Y198D01*
X3316Y198D01*
X3315Y199D01*
X3314Y199D01*
X3314Y200D01*
X3313Y201D01*
X3313Y202D01*
X3313Y202D01*
X3313Y202D01*
X3312Y203D01*
X3312Y204D01*
X3312Y205D01*
X3312Y206D01*
X3311Y207D01*
X3311Y207D01*
X3311Y208D01*
Y208D01*
Y208D01*
Y209D01*
X3311Y210D01*
X3312Y211D01*
X3312Y213D01*
X3312Y214D01*
X3313Y215D01*
X3313Y215D01*
X3313Y216D01*
X3313Y216D01*
X3313Y216D01*
Y216D01*
X3314Y217D01*
X3315Y218D01*
X3316Y218D01*
X3317Y219D01*
X3318Y219D01*
X3318Y220D01*
X3319Y220D01*
X3319Y220D01*
X3319D01*
X3320Y220D01*
X3321Y221D01*
X3323Y221D01*
X3324Y221D01*
X3325Y221D01*
X3326D01*
X3326Y221D01*
X3343D01*
Y180D01*
D02*
G37*
G36*
X170Y499D02*
X174Y496D01*
X178Y492D01*
X182Y490D01*
X185Y487D01*
X188Y485D01*
X190Y483D01*
X192Y481D01*
X195Y479D01*
X196Y477D01*
X197Y476D01*
X197Y476D01*
X193Y472D01*
X190Y468D01*
X186Y464D01*
X183Y462D01*
X181Y459D01*
X179Y457D01*
X176Y454D01*
X174Y452D01*
X172Y451D01*
X172Y451D01*
X173Y447D01*
Y440D01*
Y437D01*
X172Y435D01*
X172Y433D01*
Y432D01*
Y432D01*
X170Y426D01*
X167Y421D01*
X164Y418D01*
X161Y414D01*
X158Y411D01*
X155Y408D01*
X152Y406D01*
X149Y405D01*
X143Y402D01*
X139Y401D01*
X137D01*
X135Y401D01*
X125D01*
X123Y402D01*
X127Y407D01*
X130Y410D01*
X133Y414D01*
X136Y416D01*
X139Y419D01*
X141Y421D01*
X143Y423D01*
X145Y425D01*
X147Y426D01*
X147Y427D01*
X117Y457D01*
X92Y433D01*
X92D01*
X91Y441D01*
Y443D01*
X91Y446D01*
X92Y449D01*
X92Y451D01*
Y453D01*
X92Y453D01*
Y454D01*
X95Y459D01*
X98Y463D01*
X100Y467D01*
X104Y470D01*
X107Y473D01*
X110Y476D01*
X113Y478D01*
X116Y479D01*
X122Y481D01*
X127Y482D01*
X129Y483D01*
X131D01*
X135Y482D01*
X139D01*
X140Y482D01*
X142D01*
X145Y486D01*
X149Y489D01*
X151Y492D01*
X153Y494D01*
X157Y498D01*
X160Y500D01*
X161Y502D01*
X162Y503D01*
X163Y503D01*
X164D01*
X170Y499D01*
D02*
G37*
G36*
X290Y734D02*
X297Y733D01*
X303Y732D01*
X309Y730D01*
X314Y729D01*
X318Y728D01*
X320Y727D01*
X321Y727D01*
X321Y726D01*
X322D01*
X329Y723D01*
X335Y719D01*
X342Y715D01*
X348Y711D01*
X353Y707D01*
X358Y702D01*
X367Y691D01*
X374Y681D01*
X381Y670D01*
X386Y659D01*
X390Y648D01*
X393Y638D01*
X396Y629D01*
X397Y619D01*
X399Y612D01*
X399Y605D01*
Y603D01*
X400Y601D01*
Y599D01*
Y597D01*
Y597D01*
Y596D01*
X399Y583D01*
X399Y569D01*
X398Y555D01*
X397Y543D01*
X396Y537D01*
X395Y531D01*
X395Y526D01*
X395Y522D01*
X394Y519D01*
Y516D01*
X394Y514D01*
Y514D01*
X393Y513D01*
X392Y512D01*
X391Y511D01*
X389Y509D01*
X383Y504D01*
X377Y500D01*
X371Y495D01*
X365Y491D01*
X363Y490D01*
X362Y488D01*
X361Y488D01*
X360Y487D01*
X360Y486D01*
X359Y485D01*
X357Y484D01*
X355Y483D01*
X352Y482D01*
X349Y481D01*
X343Y480D01*
X336Y478D01*
X334Y478D01*
X331Y478D01*
X329D01*
X327Y477D01*
X326D01*
Y490D01*
X324Y491D01*
X323Y492D01*
X320Y493D01*
X317Y494D01*
X313Y494D01*
X309Y495D01*
X301Y496D01*
X292Y497D01*
X288Y497D01*
X285Y498D01*
X282D01*
X280Y498D01*
X278D01*
X268Y498D01*
X258Y497D01*
X250Y496D01*
X243Y494D01*
X237Y493D01*
X235Y492D01*
X233Y492D01*
X231Y491D01*
X229Y491D01*
X229Y490D01*
X229D01*
Y479D01*
X228Y477D01*
X218Y478D01*
X214Y479D01*
X210Y480D01*
X207Y480D01*
X204Y481D01*
X203Y481D01*
X202D01*
X164Y511D01*
X163Y511D01*
X163Y511D01*
X162Y513D01*
X162Y514D01*
X161Y518D01*
X160Y523D01*
X160Y529D01*
X159Y535D01*
X158Y543D01*
X158Y550D01*
X157Y557D01*
Y564D01*
X157Y571D01*
X156Y576D01*
Y582D01*
X156Y586D01*
Y587D01*
Y588D01*
Y588D01*
Y589D01*
Y601D01*
X156Y610D01*
X157Y618D01*
X158Y627D01*
X160Y634D01*
X162Y642D01*
X164Y648D01*
X166Y655D01*
X168Y661D01*
X170Y666D01*
X172Y671D01*
X174Y675D01*
X176Y678D01*
X178Y681D01*
X178Y683D01*
X179Y684D01*
X180Y685D01*
X188Y693D01*
X195Y701D01*
X203Y708D01*
X211Y713D01*
X219Y718D01*
X227Y722D01*
X234Y725D01*
X241Y728D01*
X247Y730D01*
X253Y731D01*
X258Y732D01*
X263Y733D01*
X266Y734D01*
X269Y734D01*
X284D01*
X290Y734D01*
D02*
G37*
G36*
X2849Y211D02*
X2850Y211D01*
X2851Y211D01*
X2851Y210D01*
X2852Y210D01*
X2852Y209D01*
X2853Y208D01*
X2854Y207D01*
X2854Y206D01*
X2854Y206D01*
X2855Y205D01*
X2855Y205D01*
X2855Y205D01*
Y210D01*
X2863D01*
Y180D01*
X2854D01*
Y192D01*
X2854Y194D01*
X2854Y195D01*
X2854Y196D01*
X2854Y197D01*
X2854Y197D01*
X2853Y198D01*
X2853Y198D01*
X2853Y198D01*
X2853Y199D01*
X2853Y200D01*
X2852Y200D01*
X2852Y201D01*
X2851Y201D01*
X2851Y201D01*
X2851Y201D01*
X2851Y201D01*
X2850Y202D01*
X2850Y202D01*
X2849Y202D01*
X2848Y202D01*
X2848Y202D01*
X2847Y202D01*
X2847D01*
Y211D01*
X2847Y211D01*
X2848Y211D01*
X2848D01*
X2849Y211D01*
D02*
G37*
G36*
X2675D02*
X2675Y211D01*
X2676Y211D01*
X2677Y210D01*
X2677Y210D01*
X2678Y209D01*
X2679Y208D01*
X2679Y207D01*
X2680Y206D01*
X2680Y206D01*
X2680Y205D01*
X2680Y205D01*
X2680Y205D01*
Y210D01*
X2689D01*
Y180D01*
X2680D01*
Y192D01*
X2680Y194D01*
X2680Y195D01*
X2680Y196D01*
X2679Y197D01*
X2679Y197D01*
X2679Y198D01*
X2679Y198D01*
X2679Y198D01*
X2679Y199D01*
X2678Y200D01*
X2678Y200D01*
X2677Y201D01*
X2677Y201D01*
X2677Y201D01*
X2677Y201D01*
X2676Y201D01*
X2676Y202D01*
X2675Y202D01*
X2674Y202D01*
X2674Y202D01*
X2673Y202D01*
X2673Y202D01*
X2672D01*
Y211D01*
X2673Y211D01*
X2673Y211D01*
X2674D01*
X2675Y211D01*
D02*
G37*
G36*
X2410D02*
X2411Y211D01*
X2412Y211D01*
X2413Y210D01*
X2413Y210D01*
X2414Y209D01*
X2415Y208D01*
X2415Y207D01*
X2415Y206D01*
X2416Y206D01*
X2416Y205D01*
X2416Y205D01*
X2416Y205D01*
Y210D01*
X2424D01*
Y180D01*
X2416D01*
Y192D01*
X2416Y194D01*
X2415Y195D01*
X2415Y196D01*
X2415Y197D01*
X2415Y197D01*
X2415Y198D01*
X2415Y198D01*
X2415Y198D01*
X2414Y199D01*
X2414Y200D01*
X2413Y200D01*
X2413Y201D01*
X2413Y201D01*
X2413Y201D01*
X2412Y201D01*
X2412Y201D01*
X2412Y202D01*
X2411Y202D01*
X2410Y202D01*
X2409Y202D01*
X2409Y202D01*
X2408Y202D01*
X2408D01*
Y211D01*
X2409Y211D01*
X2409Y211D01*
X2410D01*
X2410Y211D01*
D02*
G37*
G36*
X2464Y211D02*
X2465Y211D01*
X2465Y211D01*
X2466Y211D01*
X2467Y210D01*
X2467Y210D01*
X2467Y210D01*
X2467Y210D01*
X2468Y209D01*
X2469Y209D01*
X2470Y208D01*
X2470Y207D01*
X2471Y207D01*
X2471Y206D01*
X2471Y206D01*
X2471Y205D01*
X2471Y205D01*
Y210D01*
X2480D01*
Y180D01*
X2471D01*
Y197D01*
X2471Y198D01*
X2471Y199D01*
X2470Y200D01*
X2470Y201D01*
X2470Y202D01*
X2469Y202D01*
X2469Y203D01*
X2469Y203D01*
X2468Y203D01*
X2468Y204D01*
X2467Y204D01*
X2467Y204D01*
X2466Y204D01*
X2466D01*
X2466Y204D01*
X2465Y204D01*
X2465Y204D01*
X2464Y204D01*
X2464Y203D01*
X2464Y203D01*
X2464Y203D01*
X2464Y203D01*
X2463Y203D01*
X2463Y202D01*
X2463Y202D01*
X2463Y201D01*
X2463Y201D01*
Y201D01*
X2463Y201D01*
X2463Y200D01*
X2462Y199D01*
X2462Y199D01*
Y198D01*
Y198D01*
Y197D01*
Y197D01*
Y197D01*
Y180D01*
X2453D01*
Y200D01*
Y201D01*
X2454Y202D01*
X2454Y203D01*
X2454Y204D01*
X2454Y205D01*
X2454Y205D01*
X2455Y206D01*
X2455Y207D01*
X2455Y207D01*
X2455Y208D01*
X2455Y208D01*
X2456Y208D01*
X2456Y208D01*
X2456Y209D01*
X2456Y209D01*
X2457Y209D01*
X2458Y210D01*
X2459Y210D01*
X2461Y211D01*
X2462Y211D01*
X2462Y211D01*
X2462D01*
X2463Y211D01*
X2463D01*
X2464Y211D01*
D02*
G37*
G36*
X2585D02*
X2586Y211D01*
X2586Y211D01*
X2587Y211D01*
X2588Y210D01*
X2588Y210D01*
X2588Y210D01*
X2588Y210D01*
X2589Y209D01*
X2590Y209D01*
X2591Y208D01*
X2591Y207D01*
X2592Y207D01*
X2592Y206D01*
X2592Y206D01*
X2592Y205D01*
X2592Y205D01*
Y210D01*
X2601D01*
Y180D01*
X2592D01*
Y197D01*
X2592Y198D01*
X2592Y199D01*
X2591Y200D01*
X2591Y201D01*
X2591Y202D01*
X2590Y202D01*
X2590Y203D01*
X2589Y203D01*
X2589Y203D01*
X2589Y204D01*
X2588Y204D01*
X2588Y204D01*
X2587Y204D01*
X2587D01*
X2587Y204D01*
X2586Y204D01*
X2586Y204D01*
X2585Y204D01*
X2585Y203D01*
X2585Y203D01*
X2585Y203D01*
X2585Y203D01*
X2584Y203D01*
X2584Y202D01*
X2584Y202D01*
X2584Y201D01*
X2584Y201D01*
Y201D01*
X2584Y201D01*
X2583Y200D01*
X2583Y199D01*
X2583Y199D01*
Y198D01*
Y198D01*
Y197D01*
Y197D01*
Y197D01*
Y180D01*
X2574D01*
Y200D01*
Y201D01*
X2574Y202D01*
X2575Y203D01*
X2575Y204D01*
X2575Y205D01*
X2575Y205D01*
X2575Y206D01*
X2576Y207D01*
X2576Y207D01*
X2576Y208D01*
X2576Y208D01*
X2577Y208D01*
X2577Y208D01*
X2577Y209D01*
X2577Y209D01*
X2578Y209D01*
X2579Y210D01*
X2580Y210D01*
X2581Y211D01*
X2582Y211D01*
X2583Y211D01*
X2583D01*
X2584Y211D01*
X2584D01*
X2585Y211D01*
D02*
G37*
G36*
X2999D02*
X2999Y211D01*
X3000Y211D01*
X3001Y211D01*
X3001Y210D01*
X3002Y210D01*
X3002Y210D01*
X3002Y210D01*
X3003Y209D01*
X3003Y209D01*
X3004Y208D01*
X3005Y207D01*
X3005Y207D01*
X3006Y206D01*
X3006Y206D01*
X3006Y205D01*
X3006Y205D01*
Y210D01*
X3014D01*
Y180D01*
X3005D01*
Y197D01*
X3005Y198D01*
X3005Y199D01*
X3005Y200D01*
X3005Y201D01*
X3004Y202D01*
X3004Y202D01*
X3004Y203D01*
X3003Y203D01*
X3003Y203D01*
X3002Y204D01*
X3001Y204D01*
X3001Y204D01*
X3001Y204D01*
X3001D01*
X3000Y204D01*
X3000Y204D01*
X2999Y204D01*
X2999Y204D01*
X2999Y203D01*
X2999Y203D01*
X2999Y203D01*
X2998Y203D01*
X2998Y203D01*
X2998Y202D01*
X2997Y202D01*
X2997Y201D01*
X2997Y201D01*
Y201D01*
X2997Y201D01*
X2997Y200D01*
X2997Y199D01*
X2997Y199D01*
Y198D01*
Y198D01*
Y197D01*
Y197D01*
Y197D01*
Y180D01*
X2988D01*
Y200D01*
Y201D01*
X2988Y202D01*
X2988Y203D01*
X2988Y204D01*
X2989Y205D01*
X2989Y205D01*
X2989Y206D01*
X2989Y207D01*
X2990Y207D01*
X2990Y208D01*
X2990Y208D01*
X2990Y208D01*
X2990Y208D01*
X2991Y209D01*
X2991Y209D01*
X2992Y209D01*
X2993Y210D01*
X2994Y210D01*
X2995Y211D01*
X2996Y211D01*
X2997Y211D01*
X2997D01*
X2997Y211D01*
X2998D01*
X2999Y211D01*
D02*
G37*
G36*
X3213Y180D02*
X3204D01*
Y210D01*
X3213D01*
Y180D01*
D02*
G37*
%LPC*%
G36*
X3104Y214D02*
X3104D01*
X3103Y214D01*
X3103Y214D01*
X3102Y214D01*
X3102Y213D01*
X3101Y213D01*
X3100Y212D01*
X3099Y211D01*
X3098Y210D01*
X3098Y208D01*
X3098Y207D01*
X3097Y206D01*
X3097Y205D01*
X3097Y204D01*
X3097Y203D01*
X3097Y202D01*
X3097Y201D01*
Y201D01*
Y201D01*
Y201D01*
Y200D01*
Y199D01*
X3097Y198D01*
X3097Y197D01*
X3097Y196D01*
X3097Y195D01*
X3097Y194D01*
X3098Y193D01*
X3098Y192D01*
X3099Y190D01*
X3100Y190D01*
X3100Y189D01*
X3101Y188D01*
X3102Y188D01*
X3102Y188D01*
X3103Y187D01*
X3103Y187D01*
X3104Y187D01*
X3104D01*
X3105Y187D01*
X3105Y187D01*
X3106Y188D01*
X3107Y188D01*
X3108Y188D01*
X3108Y189D01*
X3109Y190D01*
X3110Y191D01*
X3110Y193D01*
X3111Y194D01*
X3111Y195D01*
X3111Y196D01*
X3111Y197D01*
X3111Y198D01*
X3112Y199D01*
X3112Y200D01*
Y200D01*
Y200D01*
Y200D01*
Y201D01*
Y202D01*
X3112Y203D01*
X3111Y204D01*
X3111Y205D01*
X3111Y206D01*
X3111Y207D01*
X3110Y208D01*
X3110Y210D01*
X3109Y211D01*
X3109Y211D01*
X3108Y212D01*
X3107Y213D01*
X3106Y213D01*
X3106Y214D01*
X3105Y214D01*
X3105Y214D01*
X3104Y214D01*
D02*
G37*
G36*
X2705Y195D02*
X2705D01*
Y192D01*
X2705Y191D01*
X2705Y190D01*
X2705Y189D01*
X2706Y188D01*
X2706Y188D01*
X2706Y187D01*
X2706Y187D01*
X2707Y187D01*
X2707Y186D01*
X2708Y186D01*
X2709Y185D01*
X2709Y185D01*
X2710Y185D01*
X2710Y185D01*
X2710Y185D01*
X2711D01*
X2711Y185D01*
X2712Y185D01*
X2712Y185D01*
X2713Y186D01*
X2713Y186D01*
X2713Y186D01*
X2713Y186D01*
X2713Y186D01*
X2714Y186D01*
X2714Y187D01*
X2714Y187D01*
X2714Y188D01*
X2714Y188D01*
X2714Y189D01*
Y189D01*
Y189D01*
X2714Y190D01*
X2714Y190D01*
X2713Y191D01*
X2713Y192D01*
X2712Y192D01*
X2711Y193D01*
X2710Y193D01*
X2708Y194D01*
X2707Y194D01*
X2706Y194D01*
X2706Y194D01*
X2705Y195D01*
X2705Y195D01*
D02*
G37*
G36*
X2390Y205D02*
X2390D01*
X2389Y205D01*
X2388Y205D01*
X2388Y204D01*
X2387Y204D01*
X2387Y204D01*
X2387Y203D01*
X2386Y203D01*
X2386Y203D01*
X2386Y203D01*
X2386Y202D01*
X2385Y201D01*
X2385Y200D01*
X2385Y198D01*
X2385Y197D01*
Y196D01*
X2385Y196D01*
Y195D01*
Y195D01*
Y195D01*
Y195D01*
Y194D01*
X2385Y193D01*
X2385Y192D01*
X2385Y191D01*
X2385Y191D01*
X2385Y190D01*
X2386Y189D01*
X2386Y189D01*
X2386Y188D01*
X2386Y188D01*
X2386Y188D01*
X2386Y187D01*
X2386Y187D01*
X2387Y187D01*
X2388Y186D01*
X2388Y186D01*
X2389Y186D01*
X2389Y185D01*
X2390Y185D01*
X2390Y185D01*
X2390D01*
X2391Y185D01*
X2392Y186D01*
X2392Y186D01*
X2393Y186D01*
X2393Y187D01*
X2394Y187D01*
X2394Y187D01*
X2394Y188D01*
X2394Y188D01*
X2394Y189D01*
X2395Y190D01*
X2395Y191D01*
X2395Y192D01*
X2395Y193D01*
Y194D01*
X2395Y194D01*
Y195D01*
Y195D01*
Y195D01*
Y195D01*
Y196D01*
X2395Y197D01*
X2395Y198D01*
X2395Y199D01*
X2395Y200D01*
X2395Y200D01*
X2395Y201D01*
X2395Y201D01*
X2394Y202D01*
X2394Y202D01*
X2394Y203D01*
X2394Y203D01*
X2394Y203D01*
X2393Y204D01*
X2393Y204D01*
X2392Y205D01*
X2391Y205D01*
X2391Y205D01*
X2390Y205D01*
D02*
G37*
G36*
X2500D02*
X2500D01*
X2499Y205D01*
X2498Y205D01*
X2498Y204D01*
X2497Y204D01*
X2497Y204D01*
X2496Y203D01*
X2496Y203D01*
X2496Y203D01*
X2496Y203D01*
X2496Y202D01*
X2495Y201D01*
X2495Y200D01*
X2495Y198D01*
X2495Y197D01*
Y196D01*
X2495Y196D01*
Y195D01*
Y195D01*
Y195D01*
Y195D01*
Y194D01*
X2495Y193D01*
X2495Y192D01*
X2495Y191D01*
X2495Y191D01*
X2495Y190D01*
X2496Y189D01*
X2496Y189D01*
X2496Y188D01*
X2496Y188D01*
X2496Y188D01*
X2496Y187D01*
X2496Y187D01*
X2497Y187D01*
X2498Y186D01*
X2498Y186D01*
X2499Y186D01*
X2499Y185D01*
X2500Y185D01*
X2500Y185D01*
X2500D01*
X2501Y185D01*
X2502Y186D01*
X2502Y186D01*
X2503Y186D01*
X2503Y187D01*
X2504Y187D01*
X2504Y187D01*
X2504Y188D01*
X2504Y188D01*
X2504Y189D01*
X2505Y190D01*
X2505Y191D01*
X2505Y192D01*
X2505Y193D01*
Y194D01*
X2505Y194D01*
Y195D01*
Y195D01*
Y195D01*
Y195D01*
Y196D01*
X2505Y197D01*
X2505Y198D01*
X2505Y199D01*
X2505Y200D01*
X2505Y200D01*
X2505Y201D01*
X2504Y201D01*
X2504Y202D01*
X2504Y202D01*
X2504Y203D01*
X2504Y203D01*
X2504Y203D01*
X2503Y204D01*
X2503Y204D01*
X2502Y205D01*
X2501Y205D01*
X2501Y205D01*
X2500Y205D01*
D02*
G37*
G36*
X3068Y205D02*
X3067D01*
X3066Y205D01*
X3066Y204D01*
X3065Y204D01*
X3064Y203D01*
X3064Y203D01*
X3064Y202D01*
X3063Y201D01*
X3063Y200D01*
X3063Y199D01*
X3063Y198D01*
X3063Y197D01*
X3062Y197D01*
Y196D01*
Y196D01*
Y196D01*
Y195D01*
X3063Y194D01*
X3063Y193D01*
X3063Y192D01*
X3063Y191D01*
X3063Y190D01*
X3063Y190D01*
X3063Y189D01*
X3063Y189D01*
X3063Y188D01*
X3064Y188D01*
X3064Y188D01*
X3064Y188D01*
X3064Y188D01*
X3064Y187D01*
X3065Y186D01*
X3066Y186D01*
X3066Y186D01*
X3067Y186D01*
X3067Y186D01*
X3067D01*
X3068Y186D01*
X3068Y186D01*
X3069Y186D01*
X3069Y186D01*
X3070Y186D01*
X3070Y186D01*
X3070Y187D01*
X3070Y187D01*
X3070Y187D01*
X3071Y187D01*
X3071Y188D01*
X3071Y188D01*
X3071Y188D01*
X3072Y189D01*
X3072Y189D01*
Y189D01*
X3072Y189D01*
X3072Y190D01*
X3072Y191D01*
Y192D01*
X3072Y192D01*
Y193D01*
Y193D01*
Y193D01*
Y193D01*
Y198D01*
X3072Y199D01*
X3072Y200D01*
X3072Y201D01*
X3071Y202D01*
X3071Y202D01*
X3071Y203D01*
X3071Y203D01*
X3071Y203D01*
X3070Y204D01*
X3069Y204D01*
X3069Y204D01*
X3068Y205D01*
X3068Y205D01*
X3068Y205D01*
D02*
G37*
G36*
X2654D02*
X2654D01*
X2653Y205D01*
X2653Y204D01*
X2652Y204D01*
X2652Y204D01*
X2651Y203D01*
X2651Y203D01*
X2650Y201D01*
X2650Y200D01*
X2650Y199D01*
X2650Y199D01*
X2650Y198D01*
Y198D01*
Y198D01*
Y198D01*
Y192D01*
X2650Y191D01*
X2650Y190D01*
X2650Y189D01*
X2651Y188D01*
X2651Y188D01*
X2651Y188D01*
X2651Y187D01*
X2651Y187D01*
X2652Y187D01*
X2652Y186D01*
X2653Y186D01*
X2653Y186D01*
X2654Y186D01*
X2654Y186D01*
X2655D01*
X2655Y186D01*
X2656Y186D01*
X2657Y187D01*
X2657Y187D01*
X2658Y188D01*
X2658Y189D01*
X2659Y189D01*
X2659Y190D01*
X2659Y192D01*
X2659Y193D01*
X2659Y193D01*
Y194D01*
X2659Y194D01*
Y195D01*
Y195D01*
X2659Y196D01*
X2659Y198D01*
X2659Y199D01*
X2659Y201D01*
X2658Y202D01*
X2658Y202D01*
X2657Y203D01*
X2657Y204D01*
X2656Y204D01*
X2656Y204D01*
X2655Y204D01*
X2655Y205D01*
X2655Y205D01*
X2654Y205D01*
D02*
G37*
G36*
X2917Y205D02*
X2917D01*
X2916Y205D01*
X2915Y205D01*
X2914Y204D01*
X2914Y204D01*
X2913Y204D01*
X2913Y203D01*
X2913Y203D01*
X2913Y203D01*
X2913Y203D01*
X2912Y202D01*
X2912Y201D01*
X2912Y200D01*
X2912Y198D01*
X2912Y197D01*
Y196D01*
X2911Y196D01*
Y195D01*
Y195D01*
Y195D01*
Y195D01*
Y194D01*
X2912Y193D01*
X2912Y192D01*
X2912Y191D01*
X2912Y191D01*
X2912Y190D01*
X2912Y189D01*
X2912Y189D01*
X2912Y188D01*
X2912Y188D01*
X2913Y188D01*
X2913Y187D01*
X2913Y187D01*
X2913Y187D01*
X2914Y186D01*
X2915Y186D01*
X2915Y186D01*
X2916Y185D01*
X2916Y185D01*
X2916Y185D01*
X2917D01*
X2918Y185D01*
X2918Y186D01*
X2919Y186D01*
X2920Y186D01*
X2920Y187D01*
X2920Y187D01*
X2920Y187D01*
X2920Y188D01*
X2921Y188D01*
X2921Y189D01*
X2921Y190D01*
X2921Y191D01*
X2922Y192D01*
X2922Y193D01*
Y194D01*
X2922Y194D01*
Y195D01*
Y195D01*
Y195D01*
Y195D01*
Y196D01*
X2922Y197D01*
X2922Y198D01*
X2921Y199D01*
X2921Y200D01*
X2921Y200D01*
X2921Y201D01*
X2921Y201D01*
X2921Y202D01*
X2921Y202D01*
X2921Y203D01*
X2920Y203D01*
X2920Y203D01*
X2920Y204D01*
X2919Y204D01*
X2919Y205D01*
X2918Y205D01*
X2917Y205D01*
X2917Y205D01*
D02*
G37*
G36*
X3364D02*
X3364D01*
X3363Y205D01*
X3362Y205D01*
X3361Y204D01*
X3361Y204D01*
X3360Y204D01*
X3360Y203D01*
X3360Y203D01*
X3360Y203D01*
X3360Y203D01*
X3360Y202D01*
X3359Y201D01*
X3359Y200D01*
X3359Y198D01*
X3359Y197D01*
Y196D01*
X3359Y196D01*
Y195D01*
Y195D01*
Y195D01*
Y195D01*
Y194D01*
X3359Y193D01*
X3359Y192D01*
X3359Y191D01*
X3359Y191D01*
X3359Y190D01*
X3359Y189D01*
X3359Y189D01*
X3360Y188D01*
X3360Y188D01*
X3360Y188D01*
X3360Y187D01*
X3360Y187D01*
X3361Y187D01*
X3361Y186D01*
X3362Y186D01*
X3362Y186D01*
X3363Y185D01*
X3363Y185D01*
X3364Y185D01*
X3364D01*
X3365Y185D01*
X3366Y186D01*
X3366Y186D01*
X3367Y186D01*
X3367Y187D01*
X3367Y187D01*
X3368Y187D01*
X3368Y188D01*
X3368Y188D01*
X3368Y189D01*
X3368Y190D01*
X3369Y191D01*
X3369Y192D01*
X3369Y193D01*
Y194D01*
X3369Y194D01*
Y195D01*
Y195D01*
Y195D01*
Y195D01*
Y196D01*
X3369Y197D01*
X3369Y198D01*
X3369Y199D01*
X3369Y200D01*
X3368Y200D01*
X3368Y201D01*
X3368Y201D01*
X3368Y202D01*
X3368Y202D01*
X3368Y203D01*
X3368Y203D01*
X3368Y203D01*
X3367Y204D01*
X3366Y204D01*
X3366Y205D01*
X3365Y205D01*
X3365Y205D01*
X3364Y205D01*
D02*
G37*
G36*
X295Y486D02*
X292D01*
Y468D01*
X293Y467D01*
X293Y466D01*
X293Y466D01*
X294D01*
X295Y467D01*
X296Y468D01*
X297Y468D01*
Y481D01*
X295Y486D01*
D02*
G37*
G36*
X279D02*
X276D01*
Y466D01*
X279D01*
Y486D01*
D02*
G37*
G36*
X1882Y223D02*
X1870D01*
Y219D01*
X1870Y217D01*
X1871Y215D01*
X1872Y214D01*
X1873Y214D01*
X1874Y213D01*
X1875Y213D01*
X1881D01*
X1883Y213D01*
X1884Y214D01*
X1885Y214D01*
X1886Y215D01*
X1887Y216D01*
X1887Y217D01*
Y217D01*
Y218D01*
Y218D01*
X1887Y220D01*
X1886Y221D01*
X1885Y222D01*
X1884Y222D01*
X1883Y223D01*
X1882Y223D01*
D02*
G37*
G36*
X279Y710D02*
X276D01*
X270Y709D01*
X263Y709D01*
X256Y707D01*
X250Y706D01*
X245Y705D01*
X240Y703D01*
X239Y703D01*
X238Y703D01*
X237Y702D01*
X237D01*
X225Y695D01*
X215Y687D01*
X207Y679D01*
X199Y671D01*
X193Y662D01*
X188Y653D01*
X184Y644D01*
X180Y636D01*
X178Y628D01*
X176Y620D01*
X174Y614D01*
X173Y608D01*
X172Y603D01*
X172Y599D01*
Y597D01*
Y597D01*
Y596D01*
Y595D01*
X172Y586D01*
X173Y576D01*
X174Y567D01*
X176Y559D01*
X177Y552D01*
X178Y549D01*
X178Y547D01*
X179Y545D01*
X179Y543D01*
X180Y542D01*
Y542D01*
X180Y541D01*
X181Y540D01*
X182Y539D01*
X184Y537D01*
X188Y533D01*
X192Y530D01*
X197Y526D01*
X201Y523D01*
X203Y521D01*
X204Y521D01*
X205Y520D01*
X205Y520D01*
X219Y516D01*
X232Y513D01*
X244Y511D01*
X249Y510D01*
X254Y509D01*
X259Y509D01*
X264Y508D01*
X267Y508D01*
X270D01*
X273Y507D01*
X276D01*
X286Y508D01*
X295Y509D01*
X304Y509D01*
X312Y511D01*
X319Y512D01*
X322Y512D01*
X324Y513D01*
X326Y513D01*
X328D01*
X329Y514D01*
X329D01*
X332Y514D01*
X335Y515D01*
X342Y517D01*
X348Y521D01*
X355Y525D01*
X360Y528D01*
X365Y532D01*
X366Y533D01*
X367Y534D01*
X368Y535D01*
X369Y535D01*
X371Y536D01*
X372Y538D01*
X374Y541D01*
X375Y545D01*
X377Y550D01*
X378Y554D01*
X380Y565D01*
X381Y576D01*
X382Y581D01*
X382Y585D01*
X383Y589D01*
Y591D01*
X383Y593D01*
Y594D01*
X383Y601D01*
X382Y609D01*
X381Y615D01*
X379Y621D01*
X378Y626D01*
X377Y630D01*
X377Y631D01*
X377Y632D01*
X376Y633D01*
Y633D01*
X373Y640D01*
X369Y647D01*
X366Y653D01*
X362Y658D01*
X354Y669D01*
X346Y677D01*
X338Y685D01*
X330Y691D01*
X322Y696D01*
X314Y700D01*
X306Y703D01*
X299Y706D01*
X293Y707D01*
X287Y709D01*
X283Y709D01*
X279Y710D01*
D02*
G37*
G36*
X2758Y135D02*
X2758D01*
X2757Y135D01*
X2757Y135D01*
X2756Y135D01*
X2755Y134D01*
X2755Y134D01*
X2754Y133D01*
X2754Y133D01*
X2754Y132D01*
X2753Y131D01*
X2753Y130D01*
X2753Y130D01*
X2753Y129D01*
X2753Y129D01*
Y129D01*
Y129D01*
X2764D01*
X2764Y130D01*
X2763Y131D01*
X2763Y132D01*
X2763Y132D01*
X2762Y133D01*
X2762Y134D01*
X2761Y134D01*
X2761Y134D01*
X2760Y135D01*
X2760Y135D01*
X2759Y135D01*
X2759D01*
X2758Y135D01*
D02*
G37*
G36*
X2527Y144D02*
X2528Y143D01*
X2528Y142D01*
Y141D01*
Y141D01*
Y141D01*
Y141D01*
Y141D01*
Y127D01*
X2539D01*
X2527Y144D01*
D02*
G37*
G36*
X264Y486D02*
X262D01*
X261Y485D01*
X260Y485D01*
Y484D01*
Y484D01*
Y468D01*
X261Y467D01*
X261Y466D01*
X262Y466D01*
X264D01*
X264Y470D01*
Y481D01*
X264Y486D01*
D02*
G37*
G36*
X2603Y145D02*
X2602D01*
X2601Y145D01*
X2601Y145D01*
X2600Y144D01*
X2599Y144D01*
X2599Y144D01*
X2598Y143D01*
X2598Y143D01*
X2598Y143D01*
X2597Y142D01*
X2597Y141D01*
X2597Y141D01*
X2596Y140D01*
X2596Y140D01*
X2596Y139D01*
Y139D01*
Y139D01*
X2596Y138D01*
X2596Y137D01*
X2597Y136D01*
X2597Y136D01*
X2597Y135D01*
X2598Y135D01*
X2598Y134D01*
X2598Y134D01*
X2599Y134D01*
X2599Y133D01*
X2600Y133D01*
X2601Y133D01*
X2602Y133D01*
X2602Y132D01*
X2602D01*
X2603Y132D01*
X2604Y133D01*
X2605Y133D01*
X2606Y133D01*
X2606Y134D01*
X2607Y134D01*
X2607Y134D01*
X2607Y134D01*
X2607Y135D01*
X2608Y136D01*
X2608Y136D01*
X2608Y137D01*
X2608Y138D01*
X2608Y138D01*
Y138D01*
Y139D01*
X2608Y139D01*
X2608Y140D01*
X2608Y141D01*
X2608Y142D01*
X2607Y142D01*
X2607Y143D01*
X2607Y143D01*
X2607Y143D01*
X2606Y144D01*
X2605Y144D01*
X2605Y144D01*
X2604Y145D01*
X2603Y145D01*
X2603Y145D01*
D02*
G37*
G36*
X2128Y305D02*
X2128D01*
X2125Y305D01*
X2123Y304D01*
X2122Y302D01*
X2121Y301D01*
X2120Y299D01*
X2120Y298D01*
X2119Y297D01*
Y296D01*
Y289D01*
X2120Y286D01*
X2121Y284D01*
X2122Y282D01*
X2124Y281D01*
X2125Y280D01*
X2127Y280D01*
X2128Y279D01*
X2128D01*
X2129Y280D01*
X2131Y280D01*
X2133Y281D01*
X2135Y283D01*
X2136Y286D01*
X2136Y288D01*
X2137Y290D01*
X2137Y292D01*
Y292D01*
Y292D01*
Y294D01*
X2136Y296D01*
X2136Y298D01*
X2135Y300D01*
X2134Y302D01*
X2132Y304D01*
X2131Y304D01*
X2129Y305D01*
X2128Y305D01*
D02*
G37*
G36*
X2087D02*
X2087D01*
X2084Y305D01*
X2082Y304D01*
X2081Y302D01*
X2080Y300D01*
X2079Y298D01*
X2079Y297D01*
Y296D01*
Y295D01*
Y289D01*
X2079Y286D01*
X2080Y284D01*
X2081Y282D01*
X2083Y281D01*
X2084Y280D01*
X2085Y280D01*
X2086Y279D01*
X2087D01*
X2089Y280D01*
X2090Y280D01*
X2092Y281D01*
X2093Y283D01*
X2094Y285D01*
X2095Y288D01*
X2095Y290D01*
X2095Y291D01*
Y291D01*
Y291D01*
Y294D01*
X2095Y296D01*
X2094Y298D01*
X2094Y299D01*
X2093Y302D01*
X2091Y303D01*
X2090Y304D01*
X2088Y305D01*
X2087Y305D01*
D02*
G37*
G36*
X2047Y306D02*
X2047D01*
X2045Y305D01*
X2043Y304D01*
X2041Y303D01*
X2040Y302D01*
X2039Y300D01*
X2039Y299D01*
X2039Y298D01*
Y297D01*
Y296D01*
X2056D01*
X2055Y299D01*
X2054Y302D01*
X2053Y303D01*
X2051Y304D01*
X2050Y305D01*
X2048Y305D01*
X2047Y306D01*
D02*
G37*
G36*
X1762D02*
X1762D01*
X1759Y305D01*
X1756Y304D01*
X1755Y303D01*
X1754Y301D01*
X1753Y300D01*
X1753Y298D01*
X1752Y297D01*
Y297D01*
Y296D01*
X1770D01*
X1770Y299D01*
X1769Y301D01*
X1767Y303D01*
X1766Y304D01*
X1764Y305D01*
X1763Y305D01*
X1762Y306D01*
D02*
G37*
G36*
X1976Y239D02*
X1975D01*
X1973Y239D01*
X1971Y238D01*
X1970Y236D01*
X1969Y234D01*
X1969Y232D01*
X1968Y230D01*
Y229D01*
Y229D01*
Y229D01*
Y225D01*
Y223D01*
X1968Y221D01*
X1969Y218D01*
X1970Y216D01*
X1972Y215D01*
X1973Y214D01*
X1974Y214D01*
X1975Y213D01*
X1977D01*
X1978Y214D01*
X1980Y214D01*
X1981Y215D01*
X1983Y217D01*
X1983Y219D01*
X1984Y221D01*
X1984Y223D01*
Y224D01*
Y225D01*
Y228D01*
Y230D01*
X1984Y232D01*
X1983Y234D01*
X1982Y237D01*
X1980Y238D01*
X1979Y239D01*
X1977Y239D01*
X1976Y239D01*
D02*
G37*
G36*
X2049Y223D02*
X2039D01*
Y218D01*
X2040Y216D01*
X2040Y215D01*
X2041Y214D01*
X2042Y213D01*
X2043Y213D01*
X2044Y213D01*
X2050D01*
X2052Y213D01*
X2053Y214D01*
X2055Y214D01*
X2055Y215D01*
X2056Y216D01*
X2056Y217D01*
Y217D01*
Y218D01*
Y218D01*
X2056Y220D01*
X2055Y221D01*
X2054Y222D01*
X2052Y222D01*
X2051Y223D01*
X2049Y223D01*
D02*
G37*
G36*
X1909Y305D02*
X1907D01*
X1906Y305D01*
X1904Y303D01*
X1902Y301D01*
X1901Y299D01*
X1901Y297D01*
X1900Y295D01*
X1900Y294D01*
Y294D01*
Y294D01*
Y291D01*
Y289D01*
X1900Y287D01*
X1901Y284D01*
X1903Y282D01*
X1904Y281D01*
X1906Y280D01*
X1907Y280D01*
X1908Y279D01*
X1909D01*
X1911Y280D01*
X1913Y281D01*
X1915Y282D01*
X1916Y284D01*
X1917Y286D01*
X1917Y287D01*
X1917Y288D01*
Y288D01*
Y296D01*
X1917Y299D01*
X1916Y301D01*
X1914Y303D01*
X1913Y304D01*
X1911Y305D01*
X1910Y305D01*
X1909Y305D01*
D02*
G37*
G36*
X1809Y239D02*
X1805D01*
X1803Y239D01*
X1801Y238D01*
X1800Y237D01*
X1799Y235D01*
X1798Y233D01*
X1798Y232D01*
X1798Y231D01*
Y230D01*
X1815D01*
Y231D01*
X1815Y233D01*
X1814Y235D01*
X1813Y237D01*
X1812Y238D01*
X1811Y238D01*
X1809Y239D01*
X1809Y239D01*
D02*
G37*
G36*
X2809Y135D02*
X2808D01*
X2807Y135D01*
X2807Y135D01*
X2806Y134D01*
X2805Y134D01*
X2805Y134D01*
X2805Y133D01*
X2805Y133D01*
X2804Y133D01*
X2804Y133D01*
X2804Y132D01*
X2804Y131D01*
X2804Y130D01*
X2803Y128D01*
X2803Y127D01*
Y126D01*
X2803Y126D01*
Y125D01*
Y125D01*
Y125D01*
Y125D01*
Y124D01*
X2803Y123D01*
X2803Y122D01*
X2803Y121D01*
X2804Y121D01*
X2804Y120D01*
X2804Y119D01*
X2804Y119D01*
X2804Y118D01*
X2804Y118D01*
X2804Y118D01*
X2805Y117D01*
X2805Y117D01*
X2805Y117D01*
X2806Y116D01*
X2806Y116D01*
X2807Y116D01*
X2808Y115D01*
X2808Y115D01*
X2808Y115D01*
X2808D01*
X2809Y115D01*
X2810Y116D01*
X2811Y116D01*
X2811Y116D01*
X2812Y117D01*
X2812Y117D01*
X2812Y117D01*
X2812Y118D01*
X2812Y118D01*
X2813Y119D01*
X2813Y120D01*
X2813Y121D01*
X2813Y122D01*
X2813Y123D01*
Y124D01*
X2813Y124D01*
Y125D01*
Y125D01*
Y125D01*
Y125D01*
Y126D01*
X2813Y127D01*
X2813Y128D01*
X2813Y129D01*
X2813Y130D01*
X2813Y130D01*
X2813Y131D01*
X2813Y131D01*
X2813Y132D01*
X2813Y132D01*
X2812Y133D01*
X2812Y133D01*
X2812Y133D01*
X2812Y134D01*
X2811Y134D01*
X2810Y135D01*
X2810Y135D01*
X2809Y135D01*
X2809Y135D01*
D02*
G37*
G36*
X2364D02*
X2363D01*
X2362Y135D01*
X2361Y135D01*
X2361Y134D01*
X2360Y134D01*
X2360Y134D01*
X2360Y133D01*
X2359Y133D01*
X2359Y133D01*
X2359Y133D01*
X2359Y132D01*
X2359Y131D01*
X2358Y130D01*
X2358Y128D01*
X2358Y127D01*
Y126D01*
X2358Y126D01*
Y125D01*
Y125D01*
Y125D01*
Y125D01*
Y124D01*
X2358Y123D01*
X2358Y122D01*
X2358Y121D01*
X2358Y121D01*
X2359Y120D01*
X2359Y119D01*
X2359Y119D01*
X2359Y118D01*
X2359Y118D01*
X2359Y118D01*
X2359Y117D01*
X2359Y117D01*
X2360Y117D01*
X2361Y116D01*
X2361Y116D01*
X2362Y116D01*
X2362Y115D01*
X2363Y115D01*
X2363Y115D01*
X2363D01*
X2364Y115D01*
X2365Y116D01*
X2366Y116D01*
X2366Y116D01*
X2367Y117D01*
X2367Y117D01*
X2367Y117D01*
X2367Y118D01*
X2367Y118D01*
X2367Y119D01*
X2368Y120D01*
X2368Y121D01*
X2368Y122D01*
X2368Y123D01*
Y124D01*
X2368Y124D01*
Y125D01*
Y125D01*
Y125D01*
Y125D01*
Y126D01*
X2368Y127D01*
X2368Y128D01*
X2368Y129D01*
X2368Y130D01*
X2368Y130D01*
X2368Y131D01*
X2368Y131D01*
X2368Y132D01*
X2367Y132D01*
X2367Y133D01*
X2367Y133D01*
X2367Y133D01*
X2366Y134D01*
X2366Y134D01*
X2365Y135D01*
X2365Y135D01*
X2364Y135D01*
X2364Y135D01*
D02*
G37*
G36*
X2797Y205D02*
X2797D01*
X2796Y205D01*
X2795Y205D01*
X2794Y205D01*
X2794Y204D01*
X2793Y204D01*
X2793Y203D01*
X2793Y203D01*
X2792Y202D01*
X2792Y201D01*
X2792Y200D01*
X2792Y200D01*
X2791Y199D01*
X2791Y199D01*
Y199D01*
Y199D01*
X2802D01*
X2802Y200D01*
X2802Y201D01*
X2802Y202D01*
X2801Y202D01*
X2801Y203D01*
X2800Y204D01*
X2800Y204D01*
X2799Y204D01*
X2799Y205D01*
X2798Y205D01*
X2797Y205D01*
X2797D01*
X2797Y205D01*
D02*
G37*
G36*
X3034D02*
X3034D01*
X3033Y205D01*
X3033Y205D01*
X3032Y205D01*
X3031Y204D01*
X3031Y204D01*
X3030Y203D01*
X3030Y203D01*
X3030Y202D01*
X3029Y201D01*
X3029Y200D01*
X3029Y200D01*
X3029Y199D01*
X3029Y199D01*
Y199D01*
Y199D01*
X3040D01*
X3040Y200D01*
X3039Y201D01*
X3039Y202D01*
X3039Y202D01*
X3038Y203D01*
X3038Y204D01*
X3037Y204D01*
X3037Y204D01*
X3036Y205D01*
X3036Y205D01*
X3035Y205D01*
X3035D01*
X3034Y205D01*
D02*
G37*
G36*
X3018Y125D02*
X3018D01*
Y122D01*
X3018Y121D01*
X3018Y120D01*
X3018Y119D01*
X3019Y118D01*
X3019Y118D01*
X3019Y117D01*
X3019Y117D01*
X3019Y117D01*
X3020Y116D01*
X3021Y116D01*
X3021Y115D01*
X3022Y115D01*
X3023Y115D01*
X3023Y115D01*
X3023Y115D01*
X3023D01*
X3024Y115D01*
X3025Y115D01*
X3025Y115D01*
X3026Y116D01*
X3026Y116D01*
X3026Y116D01*
X3026Y116D01*
X3026Y116D01*
X3027Y116D01*
X3027Y117D01*
X3027Y117D01*
X3027Y118D01*
X3027Y118D01*
X3027Y119D01*
Y119D01*
Y119D01*
X3027Y120D01*
X3027Y120D01*
X3026Y121D01*
X3026Y122D01*
X3025Y122D01*
X3024Y123D01*
X3023Y123D01*
X3021Y124D01*
X3020Y124D01*
X3019Y124D01*
X3019Y124D01*
X3018Y125D01*
X3018Y125D01*
D02*
G37*
G36*
X3334Y214D02*
X3327D01*
X3326Y214D01*
X3325Y213D01*
X3325Y213D01*
X3324Y213D01*
X3323Y213D01*
X3323Y212D01*
X3323Y212D01*
X3323Y212D01*
X3322Y212D01*
X3322Y211D01*
X3321Y210D01*
X3321Y210D01*
X3321Y209D01*
X3321Y209D01*
Y208D01*
Y208D01*
X3321Y207D01*
X3321Y207D01*
X3321Y206D01*
X3322Y205D01*
X3322Y205D01*
X3322Y205D01*
X3322Y204D01*
X3322Y204D01*
X3323Y204D01*
X3324Y203D01*
X3325Y203D01*
X3325Y203D01*
X3326Y203D01*
X3327Y203D01*
X3334D01*
Y214D01*
D02*
G37*
G36*
X3183Y125D02*
X3183D01*
Y122D01*
X3183Y121D01*
X3183Y120D01*
X3184Y119D01*
X3184Y118D01*
X3184Y118D01*
X3184Y117D01*
X3185Y117D01*
X3185Y117D01*
X3185Y116D01*
X3186Y116D01*
X3187Y115D01*
X3187Y115D01*
X3188Y115D01*
X3188Y115D01*
X3189Y115D01*
X3189D01*
X3189Y115D01*
X3190Y115D01*
X3190Y115D01*
X3191Y116D01*
X3191Y116D01*
X3191Y116D01*
X3191Y116D01*
X3192Y116D01*
X3192Y116D01*
X3192Y117D01*
X3192Y117D01*
X3192Y118D01*
X3192Y118D01*
X3192Y119D01*
Y119D01*
Y119D01*
X3192Y120D01*
X3192Y120D01*
X3192Y121D01*
X3191Y122D01*
X3190Y122D01*
X3190Y123D01*
X3188Y123D01*
X3186Y124D01*
X3185Y124D01*
X3185Y124D01*
X3184Y124D01*
X3183Y125D01*
X3183Y125D01*
D02*
G37*
G36*
X3085D02*
X3085D01*
Y122D01*
X3085Y121D01*
X3085Y120D01*
X3085Y119D01*
X3085Y118D01*
X3086Y118D01*
X3086Y117D01*
X3086Y117D01*
X3086Y117D01*
X3087Y116D01*
X3088Y116D01*
X3088Y115D01*
X3089Y115D01*
X3089Y115D01*
X3090Y115D01*
X3090Y115D01*
X3090D01*
X3091Y115D01*
X3091Y115D01*
X3092Y115D01*
X3092Y116D01*
X3093Y116D01*
X3093Y116D01*
X3093Y116D01*
X3093Y116D01*
X3093Y116D01*
X3094Y117D01*
X3094Y117D01*
X3094Y118D01*
X3094Y118D01*
X3094Y119D01*
Y119D01*
Y119D01*
X3094Y120D01*
X3094Y120D01*
X3093Y121D01*
X3093Y122D01*
X3092Y122D01*
X3091Y123D01*
X3089Y123D01*
X3088Y124D01*
X3087Y124D01*
X3086Y124D01*
X3085Y124D01*
X3085Y125D01*
X3085Y125D01*
D02*
G37*
G36*
X2621Y205D02*
X2620D01*
X2620Y205D01*
X2619Y205D01*
X2618Y205D01*
X2618Y204D01*
X2617Y204D01*
X2617Y203D01*
X2616Y203D01*
X2616Y202D01*
X2616Y201D01*
X2615Y200D01*
X2615Y200D01*
X2615Y199D01*
X2615Y199D01*
Y199D01*
Y199D01*
X2626D01*
X2626Y200D01*
X2626Y201D01*
X2625Y202D01*
X2625Y202D01*
X2624Y203D01*
X2624Y204D01*
X2624Y204D01*
X2623Y204D01*
X2622Y205D01*
X2622Y205D01*
X2621Y205D01*
X2621D01*
X2621Y205D01*
D02*
G37*
G36*
X2418Y135D02*
X2418D01*
X2417Y135D01*
X2416Y134D01*
X2416Y134D01*
X2415Y134D01*
X2415Y133D01*
X2415Y133D01*
X2414Y131D01*
X2414Y130D01*
X2414Y129D01*
X2414Y129D01*
X2413Y128D01*
Y128D01*
Y128D01*
Y128D01*
Y122D01*
X2414Y121D01*
X2414Y120D01*
X2414Y119D01*
X2414Y118D01*
X2414Y118D01*
X2415Y118D01*
X2415Y117D01*
X2415Y117D01*
X2415Y117D01*
X2416Y116D01*
X2417Y116D01*
X2417Y116D01*
X2418Y116D01*
X2418Y116D01*
X2418D01*
X2419Y116D01*
X2420Y116D01*
X2420Y117D01*
X2421Y117D01*
X2422Y118D01*
X2422Y119D01*
X2422Y119D01*
X2422Y120D01*
X2423Y122D01*
X2423Y123D01*
X2423Y123D01*
Y124D01*
X2423Y124D01*
Y125D01*
Y125D01*
X2423Y126D01*
X2423Y128D01*
X2423Y129D01*
X2422Y131D01*
X2422Y132D01*
X2421Y132D01*
X2421Y133D01*
X2420Y134D01*
X2420Y134D01*
X2419Y134D01*
X2419Y134D01*
X2419Y135D01*
X2418Y135D01*
X2418Y135D01*
D02*
G37*
G36*
X3365D02*
X3365D01*
X3364Y135D01*
X3363Y134D01*
X3362Y134D01*
X3362Y133D01*
X3361Y133D01*
X3361Y132D01*
X3361Y131D01*
X3360Y130D01*
X3360Y129D01*
X3360Y128D01*
X3360Y127D01*
X3360Y127D01*
Y126D01*
Y126D01*
Y126D01*
Y125D01*
X3360Y124D01*
X3360Y123D01*
X3360Y122D01*
X3360Y121D01*
X3360Y120D01*
X3360Y120D01*
X3360Y119D01*
X3361Y119D01*
X3361Y118D01*
X3361Y118D01*
X3361Y118D01*
X3361Y118D01*
X3361Y118D01*
X3362Y117D01*
X3362Y116D01*
X3363Y116D01*
X3363Y116D01*
X3364Y116D01*
X3364Y116D01*
X3365D01*
X3365Y116D01*
X3366Y116D01*
X3366Y116D01*
X3366Y116D01*
X3367Y116D01*
X3367Y116D01*
X3367Y117D01*
X3367Y117D01*
X3368Y117D01*
X3368Y117D01*
X3368Y118D01*
X3369Y118D01*
X3369Y118D01*
X3369Y119D01*
X3369Y119D01*
Y119D01*
X3369Y119D01*
X3369Y120D01*
X3369Y121D01*
Y122D01*
X3369Y122D01*
Y123D01*
Y123D01*
Y123D01*
Y123D01*
Y128D01*
X3369Y129D01*
X3369Y130D01*
X3369Y131D01*
X3369Y132D01*
X3368Y132D01*
X3368Y133D01*
X3368Y133D01*
X3368Y133D01*
X3367Y134D01*
X3367Y134D01*
X3366Y134D01*
X3366Y135D01*
X3365Y135D01*
X3365Y135D01*
D02*
G37*
G36*
X2565Y129D02*
X2565D01*
X2564Y129D01*
X2563Y129D01*
X2563Y129D01*
X2562Y128D01*
X2562Y128D01*
X2561Y128D01*
X2561Y128D01*
X2561Y127D01*
X2560Y127D01*
X2560Y126D01*
X2559Y125D01*
X2559Y125D01*
X2559Y124D01*
X2559Y123D01*
Y123D01*
Y123D01*
Y123D01*
X2559Y122D01*
X2559Y121D01*
X2559Y120D01*
X2560Y119D01*
X2560Y119D01*
X2560Y118D01*
X2561Y118D01*
X2561Y118D01*
X2561Y117D01*
X2562Y117D01*
X2563Y117D01*
X2564Y116D01*
X2564Y116D01*
X2565Y116D01*
X2565D01*
X2566Y116D01*
X2567Y116D01*
X2568Y117D01*
X2568Y117D01*
X2569Y117D01*
X2569Y118D01*
X2569Y118D01*
X2569Y118D01*
X2570Y119D01*
X2570Y120D01*
X2571Y120D01*
X2571Y121D01*
X2571Y122D01*
X2571Y122D01*
Y123D01*
Y123D01*
X2571Y124D01*
X2571Y125D01*
X2571Y125D01*
X2570Y126D01*
X2570Y127D01*
X2570Y127D01*
X2569Y127D01*
X2569Y127D01*
X2569Y128D01*
X2568Y128D01*
X2567Y129D01*
X2566Y129D01*
X2566Y129D01*
X2565Y129D01*
D02*
G37*
G36*
X3056Y135D02*
X3055D01*
X3055Y135D01*
X3054Y134D01*
X3053Y134D01*
X3053Y134D01*
X3052Y133D01*
X3052Y133D01*
X3051Y131D01*
X3051Y130D01*
X3051Y129D01*
X3051Y129D01*
X3051Y128D01*
Y128D01*
Y128D01*
Y128D01*
Y122D01*
X3051Y121D01*
X3051Y120D01*
X3051Y119D01*
X3052Y118D01*
X3052Y118D01*
X3052Y118D01*
X3052Y117D01*
X3052Y117D01*
X3053Y117D01*
X3053Y116D01*
X3054Y116D01*
X3055Y116D01*
X3055Y116D01*
X3055Y116D01*
X3056D01*
X3057Y116D01*
X3057Y116D01*
X3058Y117D01*
X3058Y117D01*
X3059Y118D01*
X3059Y119D01*
X3060Y119D01*
X3060Y120D01*
X3060Y122D01*
X3060Y123D01*
X3060Y123D01*
Y124D01*
X3061Y124D01*
Y125D01*
Y125D01*
X3060Y126D01*
X3060Y128D01*
X3060Y129D01*
X3060Y131D01*
X3059Y132D01*
X3059Y132D01*
X3058Y133D01*
X3058Y134D01*
X3058Y134D01*
X3057Y134D01*
X3057Y134D01*
X3056Y135D01*
X3056Y135D01*
X3056Y135D01*
D02*
G37*
G36*
X2929Y135D02*
X2929D01*
X2928Y135D01*
X2927Y135D01*
X2927Y134D01*
X2926Y134D01*
X2926Y134D01*
X2925Y133D01*
X2925Y133D01*
X2925Y133D01*
X2925Y133D01*
X2925Y132D01*
X2924Y131D01*
X2924Y130D01*
X2924Y128D01*
X2924Y127D01*
Y126D01*
X2924Y126D01*
Y125D01*
Y125D01*
Y125D01*
Y125D01*
Y124D01*
X2924Y123D01*
X2924Y122D01*
X2924Y121D01*
X2924Y121D01*
X2924Y120D01*
X2924Y119D01*
X2925Y119D01*
X2925Y118D01*
X2925Y118D01*
X2925Y118D01*
X2925Y117D01*
X2925Y117D01*
X2926Y117D01*
X2926Y116D01*
X2927Y116D01*
X2928Y116D01*
X2928Y115D01*
X2929Y115D01*
X2929Y115D01*
X2929D01*
X2930Y115D01*
X2931Y116D01*
X2931Y116D01*
X2932Y116D01*
X2932Y117D01*
X2933Y117D01*
X2933Y117D01*
X2933Y118D01*
X2933Y118D01*
X2933Y119D01*
X2934Y120D01*
X2934Y121D01*
X2934Y122D01*
X2934Y123D01*
Y124D01*
X2934Y124D01*
Y125D01*
Y125D01*
Y125D01*
Y125D01*
Y126D01*
X2934Y127D01*
X2934Y128D01*
X2934Y129D01*
X2934Y130D01*
X2934Y130D01*
X2934Y131D01*
X2933Y131D01*
X2933Y132D01*
X2933Y132D01*
X2933Y133D01*
X2933Y133D01*
X2933Y133D01*
X2932Y134D01*
X2932Y134D01*
X2931Y135D01*
X2930Y135D01*
X2930Y135D01*
X2929Y135D01*
D02*
G37*
G36*
X2330Y135D02*
X2329D01*
X2329Y135D01*
X2328Y134D01*
X2327Y134D01*
X2327Y133D01*
X2326Y133D01*
X2326Y132D01*
X2326Y131D01*
X2325Y130D01*
X2325Y129D01*
X2325Y128D01*
X2325Y127D01*
X2325Y127D01*
Y126D01*
Y126D01*
Y126D01*
Y125D01*
X2325Y124D01*
X2325Y123D01*
X2325Y122D01*
X2325Y121D01*
X2325Y120D01*
X2325Y120D01*
X2325Y119D01*
X2326Y119D01*
X2326Y118D01*
X2326Y118D01*
X2326Y118D01*
X2326Y118D01*
X2326Y118D01*
X2327Y117D01*
X2327Y116D01*
X2328Y116D01*
X2328Y116D01*
X2329Y116D01*
X2329Y116D01*
X2329D01*
X2330Y116D01*
X2331Y116D01*
X2331Y116D01*
X2331Y116D01*
X2332Y116D01*
X2332Y116D01*
X2332Y117D01*
X2332Y117D01*
X2333Y117D01*
X2333Y117D01*
X2333Y118D01*
X2334Y118D01*
X2334Y118D01*
X2334Y119D01*
X2334Y119D01*
Y119D01*
X2334Y119D01*
X2334Y120D01*
X2334Y121D01*
Y122D01*
X2334Y122D01*
Y123D01*
Y123D01*
Y123D01*
Y123D01*
Y128D01*
X2334Y129D01*
X2334Y130D01*
X2334Y131D01*
X2334Y132D01*
X2333Y132D01*
X2333Y133D01*
X2333Y133D01*
X2333Y133D01*
X2332Y134D01*
X2332Y134D01*
X2331Y134D01*
X2331Y135D01*
X2330Y135D01*
X2330Y135D01*
D02*
G37*
G36*
X2863D02*
X2862D01*
X2861Y135D01*
X2861Y134D01*
X2860Y134D01*
X2860Y133D01*
X2859Y133D01*
X2859Y132D01*
X2858Y131D01*
X2858Y130D01*
X2858Y129D01*
X2858Y128D01*
X2858Y127D01*
X2858Y127D01*
Y126D01*
Y126D01*
Y126D01*
Y125D01*
X2858Y124D01*
X2858Y123D01*
X2858Y122D01*
X2858Y121D01*
X2858Y120D01*
X2858Y120D01*
X2858Y119D01*
X2858Y119D01*
X2859Y118D01*
X2859Y118D01*
X2859Y118D01*
X2859Y118D01*
X2859Y118D01*
X2860Y117D01*
X2860Y116D01*
X2861Y116D01*
X2861Y116D01*
X2862Y116D01*
X2862Y116D01*
X2862D01*
X2863Y116D01*
X2863Y116D01*
X2864Y116D01*
X2864Y116D01*
X2865Y116D01*
X2865Y116D01*
X2865Y117D01*
X2865Y117D01*
X2866Y117D01*
X2866Y117D01*
X2866Y118D01*
X2866Y118D01*
X2867Y118D01*
X2867Y119D01*
X2867Y119D01*
Y119D01*
X2867Y119D01*
X2867Y120D01*
X2867Y121D01*
Y122D01*
X2867Y122D01*
Y123D01*
Y123D01*
Y123D01*
Y123D01*
Y128D01*
X2867Y129D01*
X2867Y130D01*
X2867Y131D01*
X2866Y132D01*
X2866Y132D01*
X2866Y133D01*
X2866Y133D01*
X2866Y133D01*
X2865Y134D01*
X2865Y134D01*
X2864Y134D01*
X2863Y135D01*
X2863Y135D01*
X2863Y135D01*
D02*
G37*
%LPD*%
G36*
X286Y687D02*
X292Y686D01*
X298Y685D01*
X303Y683D01*
X307Y681D01*
X311Y680D01*
X313Y679D01*
X313Y679D01*
X320Y673D01*
X327Y668D01*
X332Y662D01*
X337Y656D01*
X341Y649D01*
X344Y643D01*
X347Y637D01*
X349Y631D01*
X351Y626D01*
X352Y621D01*
X353Y616D01*
X354Y612D01*
X354Y609D01*
X354Y607D01*
Y605D01*
Y605D01*
Y602D01*
X354Y595D01*
X353Y588D01*
X351Y581D01*
X349Y574D01*
X347Y568D01*
X344Y562D01*
X341Y557D01*
X338Y553D01*
X335Y548D01*
X332Y545D01*
X329Y542D01*
X327Y539D01*
X325Y537D01*
X323Y535D01*
X322Y535D01*
X322Y534D01*
X323Y528D01*
Y526D01*
X323Y524D01*
X322Y522D01*
Y521D01*
X322Y521D01*
X322Y520D01*
X320Y519D01*
X319Y518D01*
X315Y517D01*
X311Y516D01*
X307Y515D01*
X303Y515D01*
X302D01*
X301Y515D01*
X300D01*
X298Y516D01*
X296Y517D01*
X295Y519D01*
X295Y521D01*
X294Y523D01*
X294Y524D01*
Y525D01*
Y526D01*
Y527D01*
X292D01*
Y525D01*
X291Y521D01*
X290Y518D01*
X289Y516D01*
X287Y515D01*
X285Y514D01*
X284Y513D01*
X283Y513D01*
X273D01*
X270Y513D01*
X268Y515D01*
X266Y517D01*
X265Y520D01*
X264Y522D01*
X263Y525D01*
X263Y526D01*
Y527D01*
X264Y527D01*
Y527D01*
X261D01*
X262Y527D01*
X262D01*
X262Y525D01*
X261Y522D01*
X259Y519D01*
X258Y517D01*
X258Y516D01*
X257Y515D01*
X257Y515D01*
X254Y515D01*
X253Y515D01*
X252Y516D01*
X248D01*
X245Y516D01*
X242Y517D01*
X240Y517D01*
X236Y519D01*
X234Y521D01*
X233Y522D01*
X232Y523D01*
X232Y525D01*
Y525D01*
X232Y528D01*
X233Y531D01*
X234Y533D01*
X234Y533D01*
Y533D01*
X229Y539D01*
X223Y545D01*
X219Y550D01*
X215Y556D01*
X212Y561D01*
X209Y567D01*
X207Y572D01*
X205Y577D01*
X204Y582D01*
X203Y586D01*
X202Y590D01*
X202Y593D01*
Y596D01*
X201Y598D01*
Y599D01*
Y600D01*
Y611D01*
X202Y614D01*
X202Y618D01*
X203Y622D01*
X204Y626D01*
X205Y630D01*
X206Y632D01*
X206Y634D01*
X207Y635D01*
X211Y644D01*
X216Y652D01*
X222Y660D01*
X227Y666D01*
X233Y671D01*
X239Y675D01*
X245Y678D01*
X250Y681D01*
X256Y683D01*
X260Y685D01*
X265Y686D01*
X269Y687D01*
X272Y687D01*
X274Y688D01*
X279D01*
X286Y687D01*
D02*
G37*
%LPC*%
G36*
X279Y581D02*
X277Y581D01*
X277Y580D01*
X275Y578D01*
X274Y575D01*
X272Y571D01*
X272Y568D01*
X271Y564D01*
X270Y562D01*
Y562D01*
Y561D01*
X271Y555D01*
X273D01*
X274Y558D01*
X274Y560D01*
X275Y562D01*
X276Y563D01*
X276Y564D01*
X277Y564D01*
X278D01*
X279Y564D01*
X280Y563D01*
X281Y562D01*
X281Y560D01*
X282Y558D01*
X283Y557D01*
X283Y556D01*
Y555D01*
X285D01*
Y557D01*
X285Y558D01*
X285Y559D01*
Y559D01*
X285Y565D01*
X283Y570D01*
X282Y573D01*
X281Y576D01*
X280Y578D01*
X279Y580D01*
X279Y581D01*
Y581D01*
D02*
G37*
G36*
X245Y625D02*
X244D01*
X241Y625D01*
X238Y624D01*
X236Y623D01*
X234Y621D01*
X230Y618D01*
X227Y614D01*
X225Y609D01*
X224Y606D01*
X223Y604D01*
Y603D01*
X223Y603D01*
Y602D01*
X223Y598D01*
X224Y595D01*
X225Y592D01*
X226Y589D01*
X228Y586D01*
X230Y583D01*
X233Y582D01*
X234Y581D01*
X236Y580D01*
X237D01*
X237Y584D01*
X238Y587D01*
X239Y589D01*
X239Y590D01*
Y590D01*
X244Y592D01*
X248Y594D01*
X251Y596D01*
X254Y597D01*
X257Y599D01*
X259Y601D01*
X262Y603D01*
X264Y606D01*
X265Y607D01*
X265Y609D01*
Y609D01*
Y610D01*
X262Y615D01*
X259Y619D01*
X256Y621D01*
X252Y623D01*
X249Y624D01*
X247Y625D01*
X245Y625D01*
D02*
G37*
G36*
X312D02*
X311D01*
X306Y624D01*
X302Y623D01*
X298Y621D01*
X295Y618D01*
X293Y615D01*
X292Y613D01*
X291Y611D01*
X291Y611D01*
X291Y607D01*
X292Y604D01*
X293Y602D01*
X294Y602D01*
Y601D01*
X317Y589D01*
X317Y586D01*
X318Y584D01*
X318Y583D01*
X319Y582D01*
X319Y581D01*
X320Y580D01*
X322D01*
X325Y583D01*
X328Y586D01*
X330Y589D01*
X331Y593D01*
X332Y597D01*
X332Y600D01*
Y602D01*
Y603D01*
Y606D01*
X331Y609D01*
X329Y613D01*
X326Y617D01*
X322Y621D01*
X319Y623D01*
X316Y624D01*
X314Y625D01*
X312Y625D01*
D02*
G37*
%LPD*%
M02*
