M48
;Layer_Color=9474304
;FILE_FORMAT=2:3
INCH,LZ
;TYPE=PLATED
T1F00S00C0.015
T2F00S00C0.035
T3F00S00C0.040
T4F00S00C0.118
%
T01
X0014Y00045
Y00105
X0009
X0006Y0017
X0014
X0022
Y00105
X00295
Y0017
X0037
Y00105
X0044
Y0017
X00445Y00255
Y0033
Y0038
X00515
Y0033
X00555Y0042
X006Y00415
X00605Y00485
X00555Y0052
X00675
X0065Y0056
X00865
X00875Y0043
Y0034
X0088Y0027
X00755
Y0034
X00675Y00345
X0061Y0027
X00705Y00195
Y0013
X00775Y00154
Y00186
X0094Y0018
X01005Y0017
Y0022
X0098Y0007
X00695Y0003
X0051Y0002
X0044
X0037
X00295
X00215
X0022Y00255
Y0033
X002Y0038
X00125
X0014Y0033
Y00255
X00055
Y0033
Y0038
Y00455
Y00525
X00125
Y00455
X002
X00295
Y0038
Y0033
Y00255
X0037
Y0033
Y0038
Y00455
X00445
X0042Y0052
X00425Y006
Y0068
Y0077
X00345
X0027
X002
X00115Y00785
X0008Y00745
X00055Y0068
Y006
X0013
X00135Y0068
X00625Y00795
X0086Y0081
X0087Y00765
X0097Y0043
X0094Y00385
X00755Y0043
X011Y0045
Y00398
X01135Y0043
X0113Y0034
X01135Y00295
X01195
X0118Y0026
X0119Y0017
X0115
X0108
Y0022
X01035Y00335
X0126Y003
X01335Y0029
X0142
X0147
X01445Y00365
X0148Y004
X0153Y00405
Y0034
X0156
X0162Y0031
X01625Y0025
X0162Y0019
Y0005
X0156
Y00105
X01495Y0014
X01585Y0001
X0167Y00067
X0171
X01825Y0011
X0191Y00105
X0184Y00225
X0183Y00275
X0182Y00345
X0178Y004
X0177Y0047
X0182Y0055
X01945
X01975Y0047
Y00325
X02201Y0044
X02176Y0047
X02165Y0051
X02265Y004
X02311Y0041
X02286Y00295
X02266Y00265
X02246Y00235
X02346Y0028
X02475Y00235
X0255
Y0016
X02475
Y00085
X0255
X02235Y00012
X01265Y0006
X0119
X01105
X01045Y00012
X01208Y00488
X01252
Y00532
X01208Y00532
X0135Y00375
X0145Y00443
X0149Y0045
X01535Y00575
X01475Y0076
X02625Y00235
X027
X02775
X0285
X02925
X03
X03075
X0315
Y0016
X03075
X03
X02925
X0285
X02775
X027
X02625
Y00085
X027
X0278
X0285
X02925
X03
X03075
X0315
X03445Y0009
X0345Y0017
X03575Y00035
X0365Y00285
X037Y0032
Y0039
Y0046
Y00525
Y0059
Y0066
X0367Y00725
X03625Y00775
X0358Y0081
X037Y00245
X03525Y00835
X0345
X03375
X03295
X0322
X03145
X03065
X0299
X02915
X02835
X0276
X02685
X02605
X0253
X02455
X02375
X023
X02225
X02145
X01475Y00825
X0051Y00835
X00425
X00345
X0027
X002Y0083
T02
X0051Y0009
Y0019
Y00455
Y00555
Y00655
Y00755
X01675Y0072
X01775
X01875
X01975
X02075
Y0082
X01975
X01875
X01775
X01675
T03
X02431Y00382
Y00482
Y00582
Y00682
X02756
Y00582
Y00482
Y00382
X03076
Y00482
Y00582
Y00682
X03401
Y00582
Y00482
Y00382
T04
X01Y007
X03575Y00165
M30
