G04 Layer_Physical_Order=2*
G04 Layer_Color=16711680*
%FSLAX23Y23*%
%MOIN*%
G70*
G01*
G75*
%ADD29C,0.030*%
%ADD30C,0.008*%
%ADD31C,0.010*%
%ADD34C,0.059*%
%ADD35R,0.059X0.059*%
%ADD36R,0.059X0.059*%
%ADD37O,0.120X0.060*%
%ADD38C,0.197*%
%ADD39C,0.025*%
G36*
X3530Y851D02*
X3559Y845D01*
X3587Y836D01*
X3614Y822D01*
X3639Y806D01*
X3661Y786D01*
X3681Y764D01*
X3697Y739D01*
X3711Y712D01*
X3720Y684D01*
X3726Y655D01*
X3728Y626D01*
X3728Y625D01*
Y225D01*
X3728Y224D01*
X3726Y195D01*
X3720Y166D01*
X3711Y138D01*
X3697Y111D01*
X3681Y86D01*
X3661Y64D01*
X3639Y44D01*
X3614Y28D01*
X3587Y14D01*
X3559Y5D01*
X3530Y-1D01*
X3501Y-3D01*
X3500Y-3D01*
X2257D01*
X2255Y2D01*
X2256Y3D01*
X2257Y12D01*
X2256Y21D01*
X2251Y28D01*
X2244Y33D01*
X2235Y34D01*
X1507D01*
Y125D01*
X1509Y126D01*
X1513Y132D01*
X1515Y140D01*
X1513Y148D01*
X1509Y154D01*
X1503Y158D01*
X1495Y160D01*
X1487Y158D01*
X1481Y154D01*
X1477Y148D01*
X1475Y140D01*
X1477Y132D01*
X1481Y126D01*
X1483Y125D01*
Y34D01*
X1045D01*
X1036Y33D01*
X1029Y28D01*
X1024Y21D01*
X1023Y12D01*
X1024Y3D01*
X1025Y2D01*
X1023Y-3D01*
X250D01*
X249Y-3D01*
X220Y-1D01*
X191Y5D01*
X163Y14D01*
X136Y28D01*
X111Y44D01*
X89Y64D01*
X69Y86D01*
X53Y111D01*
X39Y138D01*
X30Y166D01*
X24Y195D01*
X22Y224D01*
X22Y225D01*
Y345D01*
X552Y350D01*
X554Y345D01*
X504Y296D01*
X499Y289D01*
X498Y280D01*
Y227D01*
X473D01*
Y153D01*
X547D01*
Y227D01*
X542D01*
Y271D01*
X629Y358D01*
X876D01*
X918Y316D01*
Y180D01*
X919Y171D01*
X924Y164D01*
X931Y159D01*
X940Y158D01*
X949Y159D01*
X956Y164D01*
X961Y171D01*
X962Y180D01*
Y325D01*
X961Y334D01*
X956Y341D01*
X901Y396D01*
X894Y401D01*
X885Y402D01*
X620D01*
X611Y401D01*
X604Y396D01*
X574Y365D01*
X569Y367D01*
Y406D01*
X569Y406D01*
X573Y412D01*
X575Y420D01*
X573Y428D01*
X569Y434D01*
X569Y434D01*
Y506D01*
X569Y506D01*
X573Y512D01*
X575Y520D01*
X574Y526D01*
X576Y532D01*
X710Y535D01*
Y853D01*
X1649D01*
X1651Y848D01*
X1649Y846D01*
X1643Y838D01*
X1639Y830D01*
X1638Y820D01*
X1639Y810D01*
X1643Y802D01*
X1649Y794D01*
X1657Y788D01*
X1665Y784D01*
X1675Y783D01*
X1685Y784D01*
X1693Y788D01*
X1701Y794D01*
X1707Y802D01*
X1711Y810D01*
X1712Y820D01*
X1711Y830D01*
X1707Y838D01*
X1701Y846D01*
X1699Y848D01*
X1701Y853D01*
X1749D01*
X1751Y848D01*
X1749Y846D01*
X1743Y838D01*
X1739Y830D01*
X1738Y820D01*
X1739Y810D01*
X1743Y802D01*
X1749Y794D01*
X1757Y788D01*
X1765Y784D01*
X1775Y783D01*
X1785Y784D01*
X1793Y788D01*
X1801Y794D01*
X1807Y802D01*
X1811Y810D01*
X1812Y820D01*
X1811Y830D01*
X1807Y838D01*
X1801Y846D01*
X1799Y848D01*
X1801Y853D01*
X1849D01*
X1851Y848D01*
X1849Y846D01*
X1843Y838D01*
X1839Y830D01*
X1838Y820D01*
X1839Y810D01*
X1843Y802D01*
X1849Y794D01*
X1857Y788D01*
X1865Y784D01*
X1875Y783D01*
X1885Y784D01*
X1893Y788D01*
X1901Y794D01*
X1907Y802D01*
X1911Y810D01*
X1912Y820D01*
X1911Y830D01*
X1907Y838D01*
X1901Y846D01*
X1899Y848D01*
X1901Y853D01*
X1949D01*
X1951Y848D01*
X1949Y846D01*
X1943Y838D01*
X1939Y830D01*
X1938Y820D01*
X1939Y810D01*
X1943Y802D01*
X1949Y794D01*
X1957Y788D01*
X1965Y784D01*
X1975Y783D01*
X1985Y784D01*
X1993Y788D01*
X2001Y794D01*
X2007Y802D01*
X2011Y810D01*
X2012Y820D01*
X2011Y830D01*
X2007Y838D01*
X2001Y846D01*
X1999Y848D01*
X2001Y853D01*
X3500D01*
X3501Y853D01*
X3530Y851D01*
D02*
G37*
G36*
X250Y853D02*
X700D01*
Y640D01*
Y545D01*
X570D01*
Y535D01*
X570Y535D01*
X567Y530D01*
X567Y529D01*
X567Y528D01*
Y528D01*
X566Y527D01*
X567Y526D01*
Y525D01*
X568Y520D01*
X567Y515D01*
X563Y510D01*
X563Y510D01*
X563Y509D01*
X562Y509D01*
X562Y508D01*
X562Y507D01*
X562Y507D01*
X562Y506D01*
Y434D01*
X562Y433D01*
X562Y433D01*
X562Y432D01*
X562Y431D01*
X563Y431D01*
X563Y430D01*
X563Y430D01*
X567Y425D01*
X568Y420D01*
X567Y415D01*
X563Y410D01*
X563Y410D01*
X563Y409D01*
X562Y409D01*
X562Y408D01*
X562Y407D01*
X562Y407D01*
X562Y406D01*
Y367D01*
X562Y364D01*
X564Y362D01*
X564Y360D01*
X561Y355D01*
X556D01*
X555Y356D01*
X554Y356D01*
X554Y356D01*
X554Y356D01*
X553Y357D01*
X552Y357D01*
X552Y357D01*
X552Y357D01*
X326Y355D01*
X22D01*
Y625D01*
X22Y626D01*
X24Y655D01*
X30Y684D01*
X39Y712D01*
X53Y739D01*
X69Y764D01*
X89Y786D01*
X111Y806D01*
X136Y822D01*
X163Y836D01*
X191Y845D01*
X220Y851D01*
X249Y853D01*
X250Y853D01*
D02*
G37*
%LPC*%
G36*
X3431Y519D02*
X3371D01*
X3362Y518D01*
X3353Y514D01*
X3345Y508D01*
X3339Y500D01*
X3335Y491D01*
X3334Y482D01*
X3335Y472D01*
X3339Y463D01*
X3345Y455D01*
X3353Y449D01*
X3362Y446D01*
X3371Y444D01*
X3431D01*
X3441Y446D01*
X3450Y449D01*
X3458Y455D01*
X3464Y463D01*
X3468Y472D01*
X3469Y482D01*
X3468Y491D01*
X3464Y500D01*
X3458Y508D01*
X3450Y514D01*
X3441Y518D01*
X3431Y519D01*
D02*
G37*
G36*
X2786D02*
X2726D01*
X2717Y518D01*
X2708Y514D01*
X2700Y508D01*
X2694Y500D01*
X2690Y491D01*
X2689Y482D01*
X2690Y472D01*
X2694Y463D01*
X2700Y455D01*
X2708Y449D01*
X2717Y446D01*
X2726Y444D01*
X2786D01*
X2796Y446D01*
X2805Y449D01*
X2813Y455D01*
X2819Y463D01*
X2823Y472D01*
X2824Y482D01*
X2823Y491D01*
X2819Y500D01*
X2813Y508D01*
X2805Y514D01*
X2796Y518D01*
X2786Y519D01*
D02*
G37*
G36*
X3106D02*
X3046D01*
X3037Y518D01*
X3028Y514D01*
X3020Y508D01*
X3014Y500D01*
X3010Y491D01*
X3009Y482D01*
X3010Y472D01*
X3014Y463D01*
X3020Y455D01*
X3028Y449D01*
X3037Y446D01*
X3046Y444D01*
X3106D01*
X3116Y446D01*
X3125Y449D01*
X3133Y455D01*
X3139Y463D01*
X3143Y472D01*
X3144Y482D01*
X3143Y491D01*
X3139Y500D01*
X3133Y508D01*
X3125Y514D01*
X3116Y518D01*
X3106Y519D01*
D02*
G37*
G36*
X2786Y619D02*
X2726D01*
X2717Y618D01*
X2708Y614D01*
X2700Y608D01*
X2694Y600D01*
X2690Y591D01*
X2689Y582D01*
X2690Y572D01*
X2694Y563D01*
X2700Y555D01*
X2708Y549D01*
X2717Y546D01*
X2726Y544D01*
X2786D01*
X2796Y546D01*
X2805Y549D01*
X2813Y555D01*
X2819Y563D01*
X2823Y572D01*
X2824Y582D01*
X2823Y591D01*
X2819Y600D01*
X2813Y608D01*
X2805Y614D01*
X2796Y618D01*
X2786Y619D01*
D02*
G37*
G36*
X2461D02*
X2401D01*
X2392Y618D01*
X2383Y614D01*
X2375Y608D01*
X2369Y600D01*
X2365Y591D01*
X2364Y582D01*
X2365Y572D01*
X2369Y563D01*
X2375Y555D01*
X2383Y549D01*
X2392Y546D01*
X2401Y544D01*
X2461D01*
X2471Y546D01*
X2480Y549D01*
X2488Y555D01*
X2494Y563D01*
X2498Y572D01*
X2499Y582D01*
X2498Y591D01*
X2494Y600D01*
X2488Y608D01*
X2480Y614D01*
X2471Y618D01*
X2461Y619D01*
D02*
G37*
G36*
X510Y592D02*
X500Y591D01*
X492Y587D01*
X484Y581D01*
X478Y573D01*
X474Y565D01*
X473Y555D01*
X474Y545D01*
X478Y537D01*
X484Y529D01*
X492Y523D01*
X500Y519D01*
X510Y518D01*
X520Y519D01*
X528Y523D01*
X536Y529D01*
X542Y537D01*
X546Y545D01*
X547Y555D01*
X546Y565D01*
X542Y573D01*
X536Y581D01*
X528Y587D01*
X520Y591D01*
X510Y592D01*
D02*
G37*
G36*
X2176Y490D02*
X2169Y488D01*
X2162Y484D01*
X2158Y478D01*
X2157Y470D01*
X2158Y462D01*
X2162Y456D01*
X2165Y454D01*
Y430D01*
X2165Y430D01*
X2166Y426D01*
X2169Y422D01*
X2190Y400D01*
Y350D01*
X2190Y350D01*
X2191Y346D01*
X2194Y342D01*
X2220Y315D01*
Y250D01*
X2220Y250D01*
X2221Y246D01*
X2224Y242D01*
X2227Y238D01*
X2227Y235D01*
X2228Y227D01*
X2232Y221D01*
X2239Y217D01*
X2246Y215D01*
X2254Y217D01*
X2261Y221D01*
X2265Y227D01*
X2266Y235D01*
X2265Y240D01*
X2266Y244D01*
X2269Y246D01*
X2274Y247D01*
X2281Y251D01*
X2285Y257D01*
X2286Y265D01*
X2285Y270D01*
X2286Y274D01*
X2289Y276D01*
X2294Y277D01*
X2301Y281D01*
X2302Y283D01*
X2307Y284D01*
X2319Y272D01*
X2322Y270D01*
X2326Y269D01*
X2326Y269D01*
X2330D01*
X2332Y266D01*
X2339Y262D01*
X2346Y260D01*
X2354Y262D01*
X2361Y266D01*
X2365Y272D01*
X2366Y280D01*
X2365Y288D01*
X2361Y294D01*
X2354Y298D01*
X2346Y300D01*
X2339Y298D01*
X2332Y294D01*
X2329Y294D01*
X2323Y300D01*
Y394D01*
X2326Y396D01*
X2330Y402D01*
X2331Y410D01*
X2330Y418D01*
X2326Y424D01*
X2319Y428D01*
X2311Y430D01*
X2304Y428D01*
X2297Y424D01*
X2293Y418D01*
X2292Y410D01*
X2293Y402D01*
X2297Y396D01*
X2300Y394D01*
Y386D01*
X2295Y385D01*
X2294Y386D01*
X2294Y386D01*
X2284Y397D01*
X2284Y400D01*
X2283Y408D01*
X2279Y414D01*
X2272Y418D01*
X2265Y420D01*
X2257Y418D01*
X2250Y414D01*
X2246Y408D01*
X2245Y400D01*
X2246Y392D01*
X2250Y386D01*
X2257Y382D01*
X2265Y380D01*
X2268Y381D01*
X2275Y373D01*
Y311D01*
X2272Y309D01*
X2268Y303D01*
X2267Y295D01*
X2267Y292D01*
X2264Y287D01*
X2262Y287D01*
X2258Y291D01*
Y326D01*
X2258Y326D01*
X2257Y331D01*
X2254Y334D01*
X2228Y361D01*
Y425D01*
X2228Y425D01*
X2227Y429D01*
X2224Y433D01*
X2221Y437D01*
X2221Y440D01*
X2220Y448D01*
X2216Y454D01*
X2209Y458D01*
X2201Y460D01*
X2199Y459D01*
X2197Y460D01*
X2195Y464D01*
X2196Y470D01*
X2195Y478D01*
X2191Y484D01*
X2184Y488D01*
X2176Y490D01*
D02*
G37*
G36*
X1195Y315D02*
X1187Y313D01*
X1181Y309D01*
X1177Y303D01*
X1175Y295D01*
X1177Y287D01*
X1178Y285D01*
X1176Y279D01*
X1172Y278D01*
X1166Y274D01*
X1162Y268D01*
X1160Y260D01*
X1162Y252D01*
X1166Y246D01*
X1172Y242D01*
X1180Y240D01*
X1183Y241D01*
X1207Y217D01*
X1207Y217D01*
X1211Y215D01*
X1215Y214D01*
X1215Y214D01*
X1824D01*
X1826Y211D01*
X1832Y207D01*
X1840Y205D01*
X1848Y207D01*
X1854Y211D01*
X1858Y217D01*
X1860Y225D01*
X1858Y233D01*
X1854Y239D01*
X1848Y243D01*
X1840Y245D01*
X1832Y243D01*
X1826Y239D01*
X1824Y236D01*
X1645D01*
X1642Y241D01*
X1643Y242D01*
X1645Y250D01*
X1643Y258D01*
X1639Y264D01*
X1633Y268D01*
X1625Y270D01*
X1617Y268D01*
X1611Y264D01*
X1607Y258D01*
X1605Y251D01*
X1255D01*
X1214Y292D01*
X1215Y295D01*
X1213Y303D01*
X1209Y309D01*
X1203Y313D01*
X1195Y315D01*
D02*
G37*
G36*
X610Y290D02*
X602Y288D01*
X596Y284D01*
X592Y278D01*
X590Y270D01*
X592Y262D01*
X596Y256D01*
X602Y252D01*
X610Y250D01*
X612Y251D01*
X623Y240D01*
Y145D01*
X624Y140D01*
X626Y136D01*
X641Y121D01*
X645Y119D01*
X650Y118D01*
X687D01*
X690Y113D01*
X689Y111D01*
X666Y89D01*
X664Y85D01*
X663Y80D01*
Y50D01*
X664Y45D01*
X666Y41D01*
X673Y34D01*
X673Y30D01*
X674Y21D01*
X679Y14D01*
X686Y9D01*
X695Y8D01*
X940D01*
X949Y9D01*
X956Y14D01*
X996Y54D01*
X1001Y61D01*
X1002Y70D01*
X1001Y79D01*
X996Y86D01*
X989Y91D01*
X980Y92D01*
X971Y91D01*
X964Y86D01*
X931Y52D01*
X695D01*
X691Y52D01*
X687Y55D01*
Y75D01*
X706Y93D01*
X715D01*
X720Y94D01*
X724Y97D01*
X739Y112D01*
X741Y116D01*
X742Y120D01*
Y145D01*
X741Y150D01*
X739Y154D01*
X717Y175D01*
X718Y180D01*
X719Y181D01*
X723Y187D01*
X725Y195D01*
X723Y203D01*
X719Y209D01*
X713Y213D01*
X705Y215D01*
X697Y213D01*
X691Y209D01*
X687Y203D01*
X685Y195D01*
X687Y187D01*
X691Y181D01*
X693Y180D01*
Y170D01*
X694Y165D01*
X696Y161D01*
X703Y155D01*
X701Y149D01*
X697Y148D01*
X691Y144D01*
X690Y142D01*
X655D01*
X647Y150D01*
Y245D01*
X646Y250D01*
X644Y254D01*
X629Y268D01*
X630Y270D01*
X628Y278D01*
X624Y284D01*
X618Y288D01*
X610Y290D01*
D02*
G37*
G36*
X2461Y519D02*
X2401D01*
X2392Y518D01*
X2383Y514D01*
X2375Y508D01*
X2369Y500D01*
X2365Y491D01*
X2364Y482D01*
X2365Y472D01*
X2369Y463D01*
X2375Y455D01*
X2383Y449D01*
X2392Y446D01*
X2401Y444D01*
X2461D01*
X2471Y446D01*
X2480Y449D01*
X2488Y455D01*
X2494Y463D01*
X2498Y472D01*
X2499Y482D01*
X2498Y491D01*
X2494Y500D01*
X2488Y508D01*
X2480Y514D01*
X2471Y518D01*
X2461Y519D01*
D02*
G37*
G36*
X1780Y420D02*
X1772Y418D01*
X1766Y414D01*
X1762Y408D01*
X1760Y400D01*
X1761Y397D01*
X1755Y391D01*
X1505D01*
X1499Y397D01*
X1500Y400D01*
X1498Y408D01*
X1494Y414D01*
X1488Y418D01*
X1480Y420D01*
X1472Y418D01*
X1466Y414D01*
X1462Y408D01*
X1460Y400D01*
X1462Y392D01*
X1466Y386D01*
X1472Y382D01*
X1474Y381D01*
X1474Y376D01*
X1461D01*
X1459Y379D01*
X1453Y383D01*
X1445Y385D01*
X1437Y383D01*
X1431Y379D01*
X1427Y373D01*
X1425Y365D01*
X1427Y357D01*
X1431Y351D01*
X1437Y347D01*
X1445Y345D01*
X1453Y347D01*
X1459Y351D01*
X1461Y354D01*
X1735D01*
X1811Y278D01*
X1810Y275D01*
X1812Y267D01*
X1816Y261D01*
X1822Y257D01*
X1830Y255D01*
X1838Y257D01*
X1844Y261D01*
X1848Y267D01*
X1850Y275D01*
X1848Y283D01*
X1844Y289D01*
X1838Y293D01*
X1830Y295D01*
X1827Y294D01*
X1757Y364D01*
X1759Y369D01*
X1760D01*
X1760Y369D01*
X1764Y370D01*
X1768Y372D01*
X1777Y381D01*
X1780Y380D01*
X1788Y382D01*
X1794Y386D01*
X1798Y392D01*
X1800Y400D01*
X1798Y408D01*
X1794Y414D01*
X1788Y418D01*
X1780Y420D01*
D02*
G37*
G36*
X1100Y418D02*
X1092Y417D01*
X1086Y412D01*
X1082Y406D01*
X1080Y398D01*
X1082Y391D01*
X1086Y384D01*
X1092Y380D01*
X1100Y378D01*
X1108Y380D01*
X1114Y384D01*
X1115Y386D01*
X1127D01*
X1146Y366D01*
X1150Y364D01*
X1155Y363D01*
X1335D01*
X1336Y361D01*
X1342Y357D01*
X1350Y355D01*
X1358Y357D01*
X1364Y361D01*
X1368Y367D01*
X1370Y375D01*
X1368Y383D01*
X1364Y389D01*
X1358Y393D01*
X1350Y395D01*
X1342Y393D01*
X1336Y389D01*
X1335Y387D01*
X1160D01*
X1140Y407D01*
X1136Y410D01*
X1132Y411D01*
X1115D01*
X1114Y412D01*
X1108Y417D01*
X1100Y418D01*
D02*
G37*
G36*
X3106Y619D02*
X3046D01*
X3037Y618D01*
X3028Y614D01*
X3020Y608D01*
X3014Y600D01*
X3010Y591D01*
X3009Y582D01*
X3010Y572D01*
X3014Y563D01*
X3020Y555D01*
X3028Y549D01*
X3037Y546D01*
X3046Y544D01*
X3106D01*
X3116Y546D01*
X3125Y549D01*
X3133Y555D01*
X3139Y563D01*
X3143Y572D01*
X3144Y582D01*
X3143Y591D01*
X3139Y600D01*
X3133Y608D01*
X3125Y614D01*
X3116Y618D01*
X3106Y619D01*
D02*
G37*
G36*
X1975Y757D02*
X1965Y756D01*
X1957Y752D01*
X1949Y746D01*
X1943Y738D01*
X1939Y730D01*
X1938Y720D01*
X1939Y710D01*
X1943Y702D01*
X1949Y694D01*
X1957Y688D01*
X1965Y684D01*
X1975Y683D01*
X1985Y684D01*
X1993Y688D01*
X2001Y694D01*
X2007Y702D01*
X2011Y710D01*
X2012Y720D01*
X2011Y730D01*
X2007Y738D01*
X2001Y746D01*
X1993Y752D01*
X1985Y756D01*
X1975Y757D01*
D02*
G37*
G36*
X1875D02*
X1865Y756D01*
X1857Y752D01*
X1849Y746D01*
X1843Y738D01*
X1839Y730D01*
X1838Y720D01*
X1839Y710D01*
X1843Y702D01*
X1849Y694D01*
X1857Y688D01*
X1865Y684D01*
X1875Y683D01*
X1885Y684D01*
X1893Y688D01*
X1901Y694D01*
X1907Y702D01*
X1911Y710D01*
X1912Y720D01*
X1911Y730D01*
X1907Y738D01*
X1901Y746D01*
X1893Y752D01*
X1885Y756D01*
X1875Y757D01*
D02*
G37*
G36*
X1775D02*
X1765Y756D01*
X1757Y752D01*
X1749Y746D01*
X1743Y738D01*
X1739Y730D01*
X1738Y720D01*
X1739Y710D01*
X1743Y702D01*
X1749Y694D01*
X1757Y688D01*
X1765Y684D01*
X1775Y683D01*
X1785Y684D01*
X1793Y688D01*
X1801Y694D01*
X1807Y702D01*
X1811Y710D01*
X1812Y720D01*
X1811Y730D01*
X1807Y738D01*
X1801Y746D01*
X1793Y752D01*
X1785Y756D01*
X1775Y757D01*
D02*
G37*
G36*
X1280Y842D02*
X880D01*
X875Y841D01*
X871Y839D01*
X862Y829D01*
X860Y830D01*
X852Y828D01*
X846Y824D01*
X842Y818D01*
X840Y810D01*
X842Y802D01*
X846Y796D01*
X852Y792D01*
X860Y790D01*
X868Y792D01*
X874Y796D01*
X878Y802D01*
X880Y810D01*
X879Y812D01*
X885Y818D01*
X1275D01*
X1516Y577D01*
X1515Y575D01*
X1517Y567D01*
X1521Y561D01*
X1527Y557D01*
X1535Y555D01*
X1543Y557D01*
X1549Y561D01*
X1553Y567D01*
X1555Y575D01*
X1553Y583D01*
X1549Y589D01*
X1543Y593D01*
X1535Y595D01*
X1533Y594D01*
X1289Y839D01*
X1285Y841D01*
X1280Y842D01*
D02*
G37*
G36*
X547Y792D02*
X473D01*
Y718D01*
X547D01*
Y792D01*
D02*
G37*
G36*
X2075Y757D02*
X2065Y756D01*
X2057Y752D01*
X2049Y746D01*
X2043Y738D01*
X2039Y730D01*
X2038Y720D01*
X2039Y710D01*
X2043Y702D01*
X2049Y694D01*
X2057Y688D01*
X2065Y684D01*
X2075Y683D01*
X2085Y684D01*
X2093Y688D01*
X2101Y694D01*
X2107Y702D01*
X2111Y710D01*
X2112Y720D01*
X2111Y730D01*
X2107Y738D01*
X2101Y746D01*
X2093Y752D01*
X2085Y756D01*
X2075Y757D01*
D02*
G37*
G36*
X1675D02*
X1665Y756D01*
X1657Y752D01*
X1649Y746D01*
X1643Y738D01*
X1639Y730D01*
X1638Y720D01*
X1639Y710D01*
X1643Y702D01*
X1649Y694D01*
X1657Y688D01*
X1665Y684D01*
X1675Y683D01*
X1685Y684D01*
X1693Y688D01*
X1701Y694D01*
X1707Y702D01*
X1711Y710D01*
X1712Y720D01*
X1711Y730D01*
X1707Y738D01*
X1701Y746D01*
X1693Y752D01*
X1685Y756D01*
X1675Y757D01*
D02*
G37*
G36*
X2461Y719D02*
X2401D01*
X2392Y718D01*
X2383Y714D01*
X2375Y708D01*
X2369Y700D01*
X2365Y691D01*
X2364Y682D01*
X2365Y672D01*
X2369Y663D01*
X2375Y655D01*
X2383Y649D01*
X2392Y646D01*
X2401Y644D01*
X2461D01*
X2471Y646D01*
X2480Y649D01*
X2488Y655D01*
X2494Y663D01*
X2498Y672D01*
X2499Y682D01*
X2498Y691D01*
X2494Y700D01*
X2488Y708D01*
X2480Y714D01*
X2471Y718D01*
X2461Y719D01*
D02*
G37*
G36*
X510Y692D02*
X500Y691D01*
X492Y687D01*
X484Y681D01*
X478Y673D01*
X474Y665D01*
X473Y655D01*
X474Y645D01*
X478Y637D01*
X484Y629D01*
X492Y623D01*
X500Y619D01*
X510Y618D01*
X520Y619D01*
X528Y623D01*
X536Y629D01*
X542Y637D01*
X546Y645D01*
X547Y655D01*
X546Y665D01*
X542Y673D01*
X536Y681D01*
X528Y687D01*
X520Y691D01*
X510Y692D01*
D02*
G37*
G36*
X3431Y619D02*
X3371D01*
X3362Y618D01*
X3353Y614D01*
X3345Y608D01*
X3339Y600D01*
X3335Y591D01*
X3334Y582D01*
X3335Y572D01*
X3339Y563D01*
X3345Y555D01*
X3353Y549D01*
X3362Y546D01*
X3371Y544D01*
X3431D01*
X3441Y546D01*
X3450Y549D01*
X3458Y555D01*
X3464Y563D01*
X3468Y572D01*
X3469Y582D01*
X3468Y591D01*
X3464Y600D01*
X3458Y608D01*
X3450Y614D01*
X3441Y618D01*
X3431Y619D01*
D02*
G37*
G36*
Y719D02*
X3371D01*
X3362Y718D01*
X3353Y714D01*
X3345Y708D01*
X3339Y700D01*
X3335Y691D01*
X3334Y682D01*
X3335Y672D01*
X3339Y663D01*
X3345Y655D01*
X3353Y649D01*
X3362Y646D01*
X3371Y644D01*
X3431D01*
X3441Y646D01*
X3450Y649D01*
X3458Y655D01*
X3464Y663D01*
X3468Y672D01*
X3469Y682D01*
X3468Y691D01*
X3464Y700D01*
X3458Y708D01*
X3450Y714D01*
X3441Y718D01*
X3431Y719D01*
D02*
G37*
G36*
X3106D02*
X3046D01*
X3037Y718D01*
X3028Y714D01*
X3020Y708D01*
X3014Y700D01*
X3010Y691D01*
X3009Y682D01*
X3010Y672D01*
X3014Y663D01*
X3020Y655D01*
X3028Y649D01*
X3037Y646D01*
X3046Y644D01*
X3106D01*
X3116Y646D01*
X3125Y649D01*
X3133Y655D01*
X3139Y663D01*
X3143Y672D01*
X3144Y682D01*
X3143Y691D01*
X3139Y700D01*
X3133Y708D01*
X3125Y714D01*
X3116Y718D01*
X3106Y719D01*
D02*
G37*
G36*
X2786D02*
X2726D01*
X2717Y718D01*
X2708Y714D01*
X2700Y708D01*
X2694Y700D01*
X2690Y691D01*
X2689Y682D01*
X2690Y672D01*
X2694Y663D01*
X2700Y655D01*
X2708Y649D01*
X2717Y646D01*
X2726Y644D01*
X2786D01*
X2796Y646D01*
X2805Y649D01*
X2813Y655D01*
X2819Y663D01*
X2823Y672D01*
X2824Y682D01*
X2823Y691D01*
X2819Y700D01*
X2813Y708D01*
X2805Y714D01*
X2796Y718D01*
X2786Y719D01*
D02*
G37*
%LPD*%
D29*
X885Y380D02*
X940Y325D01*
Y180D02*
Y325D01*
X520Y190D02*
Y280D01*
X620Y380D01*
X885D01*
X1495Y12D02*
X2235D01*
X1045D02*
X1495D01*
X940Y30D02*
X980Y70D01*
X695Y30D02*
X940D01*
D30*
X1250Y240D02*
X1615D01*
X1195Y295D02*
X1250Y240D01*
X1215Y225D02*
X1840D01*
X1180Y260D02*
X1215Y225D01*
X1740Y365D02*
X1830Y275D01*
X1445Y365D02*
X1740D01*
X1760Y380D02*
X1780Y400D01*
X1500Y380D02*
X1760D01*
X1480Y400D02*
X1500Y380D01*
X1615Y240D02*
X1625Y250D01*
X2201Y350D02*
X2231Y320D01*
X2176Y430D02*
X2201Y405D01*
Y350D02*
Y405D01*
Y440D02*
X2216Y425D01*
Y356D02*
Y425D01*
Y356D02*
X2246Y326D01*
Y285D02*
Y326D01*
Y285D02*
X2266Y265D01*
X2176Y430D02*
Y470D01*
X2231Y250D02*
Y320D01*
Y250D02*
X2246Y235D01*
X2326Y280D02*
X2346D01*
X2311Y295D02*
X2326Y280D01*
X2311Y295D02*
Y410D01*
X2286Y295D02*
Y378D01*
X2265Y400D02*
X2286Y378D01*
D31*
X860Y810D02*
X880Y830D01*
X858Y808D02*
X860Y810D01*
X880Y830D02*
X1280D01*
X1535Y575D01*
X1495Y12D02*
Y140D01*
X1155Y375D02*
X1350D01*
X1132Y398D02*
X1155Y375D01*
X1100Y398D02*
X1132D01*
X705Y170D02*
X730Y145D01*
X705Y170D02*
Y195D01*
X650Y130D02*
X705D01*
X635Y145D02*
X650Y130D01*
X635Y145D02*
Y245D01*
X610Y270D02*
X635Y245D01*
X701Y105D02*
X715D01*
X730Y120D01*
Y145D01*
X675Y50D02*
X695Y30D01*
X675Y50D02*
Y80D01*
X701Y105D01*
D34*
X510Y555D02*
D03*
Y655D02*
D03*
Y455D02*
D03*
X1675Y720D02*
D03*
Y820D02*
D03*
X1775Y720D02*
D03*
Y820D02*
D03*
X1875Y720D02*
D03*
Y820D02*
D03*
X1975Y720D02*
D03*
Y820D02*
D03*
X2075Y720D02*
D03*
X510Y90D02*
D03*
D35*
Y755D02*
D03*
Y190D02*
D03*
D36*
X2075Y820D02*
D03*
D37*
X2431Y682D02*
D03*
Y582D02*
D03*
Y482D02*
D03*
Y382D02*
D03*
X3401Y682D02*
D03*
Y582D02*
D03*
Y482D02*
D03*
Y382D02*
D03*
X3076Y682D02*
D03*
Y582D02*
D03*
Y482D02*
D03*
Y382D02*
D03*
X2756Y682D02*
D03*
Y582D02*
D03*
Y482D02*
D03*
Y382D02*
D03*
D38*
X3575Y165D02*
D03*
X1000Y700D02*
D03*
D39*
X1135Y295D02*
D03*
Y430D02*
D03*
X1100Y450D02*
D03*
X1130Y340D02*
D03*
X1620Y310D02*
D03*
Y50D02*
D03*
Y190D02*
D03*
X1560Y50D02*
D03*
Y105D02*
D03*
X1530Y340D02*
D03*
X1560D02*
D03*
X1530Y405D02*
D03*
X1490Y450D02*
D03*
X1820Y550D02*
D03*
X1945D02*
D03*
X1910Y105D02*
D03*
X1825Y110D02*
D03*
X1820Y345D02*
D03*
X1975Y325D02*
D03*
Y470D02*
D03*
X1770D02*
D03*
X625Y795D02*
D03*
X870Y765D02*
D03*
X860Y810D02*
D03*
X1535Y575D02*
D03*
X940Y180D02*
D03*
X1190Y170D02*
D03*
X2165Y510D02*
D03*
X1585Y10D02*
D03*
X1260Y300D02*
D03*
X1495Y140D02*
D03*
X1045Y12D02*
D03*
X2235D02*
D03*
X1335Y290D02*
D03*
X1470D02*
D03*
X1420D02*
D03*
X1480Y400D02*
D03*
X1445Y365D02*
D03*
X1710Y67D02*
D03*
X1670D02*
D03*
X1475Y760D02*
D03*
Y825D02*
D03*
X1100Y398D02*
D03*
X1350Y375D02*
D03*
X1625Y250D02*
D03*
X2176Y470D02*
D03*
X2201Y440D02*
D03*
X1830Y275D02*
D03*
X1780Y400D02*
D03*
X1840Y225D02*
D03*
X2346Y280D02*
D03*
X2246Y235D02*
D03*
X2266Y265D02*
D03*
X2286Y295D02*
D03*
X2265Y400D02*
D03*
X2311Y410D02*
D03*
X1035Y335D02*
D03*
X675Y345D02*
D03*
X980Y70D02*
D03*
X1195Y295D02*
D03*
X1180Y260D02*
D03*
X1450Y443D02*
D03*
X1208Y488D02*
D03*
X1208Y532D02*
D03*
X775Y186D02*
D03*
Y154D02*
D03*
X705Y195D02*
D03*
X695Y30D02*
D03*
X705Y130D02*
D03*
X610Y270D02*
D03*
X1252Y488D02*
D03*
Y532D02*
D03*
X215Y20D02*
D03*
X295D02*
D03*
X440D02*
D03*
X510D02*
D03*
X140Y45D02*
D03*
X90Y105D02*
D03*
X60Y170D02*
D03*
X55Y255D02*
D03*
Y330D02*
D03*
X1105Y60D02*
D03*
X1190D02*
D03*
X1265D02*
D03*
X1005Y220D02*
D03*
X1150Y170D02*
D03*
X1080Y220D02*
D03*
Y170D02*
D03*
X1005D02*
D03*
X755Y430D02*
D03*
X875D02*
D03*
X970D02*
D03*
X675Y520D02*
D03*
X605Y485D02*
D03*
X600Y415D02*
D03*
X515Y330D02*
D03*
X445D02*
D03*
X295D02*
D03*
X220D02*
D03*
X140D02*
D03*
X755Y340D02*
D03*
Y270D02*
D03*
X875Y340D02*
D03*
X880Y270D02*
D03*
X940Y385D02*
D03*
X2145Y835D02*
D03*
X2225D02*
D03*
X2300D02*
D03*
X2375D02*
D03*
X2605D02*
D03*
X2530D02*
D03*
X2455D02*
D03*
X2835D02*
D03*
X2760D02*
D03*
X2685D02*
D03*
X3065D02*
D03*
X2990D02*
D03*
X2915D02*
D03*
X3295D02*
D03*
X3220D02*
D03*
X3145D02*
D03*
X3525D02*
D03*
X3450D02*
D03*
X3375D02*
D03*
X3580Y810D02*
D03*
X3625Y775D02*
D03*
X3670Y725D02*
D03*
X3700Y660D02*
D03*
Y590D02*
D03*
Y525D02*
D03*
Y460D02*
D03*
Y390D02*
D03*
Y320D02*
D03*
Y245D02*
D03*
X3575Y35D02*
D03*
X3445Y90D02*
D03*
X3450Y170D02*
D03*
X3650Y285D02*
D03*
X3150Y235D02*
D03*
X3075D02*
D03*
X3000D02*
D03*
X2925D02*
D03*
X2850D02*
D03*
X2775D02*
D03*
X2700D02*
D03*
X2625D02*
D03*
X2550D02*
D03*
X2475D02*
D03*
Y160D02*
D03*
X2550D02*
D03*
X2625D02*
D03*
X2700D02*
D03*
X2775D02*
D03*
X2700Y85D02*
D03*
X2780D02*
D03*
X2625D02*
D03*
X2550D02*
D03*
X2475D02*
D03*
X2850Y160D02*
D03*
Y85D02*
D03*
X2925Y160D02*
D03*
Y85D02*
D03*
X3000Y160D02*
D03*
Y85D02*
D03*
X3075Y160D02*
D03*
X3150D02*
D03*
X3075Y85D02*
D03*
X3150D02*
D03*
X515Y380D02*
D03*
X445D02*
D03*
X370D02*
D03*
X295D02*
D03*
X200D02*
D03*
X125D02*
D03*
X55D02*
D03*
Y455D02*
D03*
Y525D02*
D03*
Y600D02*
D03*
Y680D02*
D03*
X80Y745D02*
D03*
X200Y830D02*
D03*
X270Y835D02*
D03*
X345D02*
D03*
X425D02*
D03*
X510D02*
D03*
X650Y560D02*
D03*
X865D02*
D03*
X555Y520D02*
D03*
Y420D02*
D03*
X115Y785D02*
D03*
X135Y680D02*
D03*
X130Y600D02*
D03*
X125Y525D02*
D03*
Y455D02*
D03*
X200D02*
D03*
X295D02*
D03*
X370D02*
D03*
X445D02*
D03*
X270Y770D02*
D03*
X345D02*
D03*
X425D02*
D03*
X200D02*
D03*
X425Y680D02*
D03*
Y600D02*
D03*
X420Y520D02*
D03*
X140Y255D02*
D03*
Y170D02*
D03*
X220Y255D02*
D03*
Y170D02*
D03*
X295Y255D02*
D03*
Y170D02*
D03*
X140Y105D02*
D03*
X220D02*
D03*
X295D02*
D03*
X370Y330D02*
D03*
Y255D02*
D03*
Y170D02*
D03*
Y105D02*
D03*
Y20D02*
D03*
X440Y105D02*
D03*
Y170D02*
D03*
X445Y255D02*
D03*
M02*
